<svg width="1226" height="215" viewBox="0 0 1226 215" fill="none" xmlns="http://www.w3.org/2000/svg">
<g opacity="0.2">
<path d="M1125.84 40.0833C1125.84 37.7365 1127.74 35.8164 1130.08 36.0028C1139.36 36.7422 1148.32 39.8959 1156.1 45.1944C1165.06 51.2974 1172.04 59.9719 1176.16 70.1208C1180.29 80.2697 1181.37 91.4373 1179.26 102.211C1177.16 112.985 1171.97 122.882 1164.36 130.65C1156.74 138.417 1147.03 143.707 1136.46 145.85C1125.9 147.993 1114.94 146.893 1104.99 142.689C1095.04 138.486 1086.53 131.367 1080.54 122.233C1075.31 114.257 1072.22 105.058 1071.51 95.5397C1071.34 93.2442 1073.23 91.3757 1075.53 91.3757C1077.83 91.3757 1079.68 93.2452 1079.88 95.5382C1080.56 103.374 1083.16 110.934 1087.47 117.511C1092.54 125.248 1099.75 131.277 1108.18 134.838C1116.61 138.398 1125.89 139.33 1134.84 137.515C1143.79 135.7 1152.01 131.219 1158.46 124.64C1164.91 118.061 1169.31 109.679 1171.09 100.553C1172.87 91.4278 1171.96 81.969 1168.46 73.373C1164.97 64.777 1159.06 57.4299 1151.47 52.2607C1145.06 47.8964 1137.71 45.2501 1130.08 44.5319C1127.74 44.3119 1125.84 42.4301 1125.84 40.0833Z" fill="#EFF2F6"/>
<ellipse cx="1124.08" cy="75.25" rx="21.0872" ry="21.5" fill="#EFF2F6"/>
<path d="M1104.7 108.167C1097.74 111.339 1094.46 119.803 1099.84 125.246C1101.75 127.182 1103.88 128.908 1106.18 130.386C1112.36 134.349 1119.55 136.356 1126.85 136.152C1134.14 135.948 1141.22 133.543 1147.17 129.241C1149.39 127.637 1151.42 125.797 1153.22 123.76C1158.3 118.025 1154.57 109.744 1147.43 106.961L1131.34 100.689C1127.82 99.3157 1123.9 99.4249 1120.46 100.992L1104.7 108.167Z" fill="#EFF2F6"/>
<rect x="983.817" y="186.008" width="25.4091" height="8.30708" rx="4.15354" transform="rotate(90 983.817 186.008)" fill="#8D99BB"/>
<ellipse cx="979.663" cy="177.539" rx="12.4606" ry="12.7045" fill="#8D99BB"/>
<ellipse cx="971.356" cy="190.244" rx="12.4606" ry="12.7045" fill="#8D99BB"/>
<ellipse cx="987.97" cy="190.244" rx="12.4606" ry="12.7045" fill="#8D99BB"/>
<path d="M875.047 3.29492C875.047 2.23981 876.096 1.53679 877.05 1.88086L877.239 1.96387L981.788 56.3584C982.284 56.6166 982.595 57.1291 982.595 57.6885V211.349C982.595 212.177 981.924 212.849 981.095 212.849H876.547C875.718 212.849 875.047 212.177 875.047 211.349V3.29492Z" fill="#EFF2F6" stroke="#8D99BB"/>
<path d="M997.754 82.8486C997.754 81.7818 998.824 81.0789 999.781 81.4434L999.971 81.5312L1038.45 102.476C1038.93 102.738 1039.23 103.244 1039.23 103.793V211.349C1039.23 212.177 1038.56 212.849 1037.73 212.849H999.254C998.426 212.849 997.754 212.177 997.754 211.349V82.8486Z" fill="white" stroke="#8D99BB"/>
<rect x="893.425" y="54.3828" width="23.5976" height="8.36662" rx="2" fill="#8D99BB"/>
<rect x="893.425" y="71.1172" width="23.5976" height="8.36662" rx="2" fill="#8D99BB"/>
<rect x="893.425" y="104.582" width="23.5976" height="8.36662" rx="2" fill="#8D99BB"/>
<rect x="893.425" y="121.314" width="23.5976" height="8.36662" rx="2" fill="#8D99BB"/>
<rect x="893.425" y="154.781" width="23.5976" height="8.36662" rx="2" fill="#8D99BB"/>
<rect x="893.425" y="171.518" width="23.5976" height="8.36662" rx="2" fill="#8D99BB"/>
<rect x="940.62" y="54.3828" width="23.5976" height="8.36662" rx="2" fill="#8D99BB"/>
<rect x="940.62" y="71.1172" width="23.5976" height="8.36662" rx="2" fill="#8D99BB"/>
<rect x="940.62" y="104.582" width="23.5976" height="8.36662" rx="2" fill="#8D99BB"/>
<rect x="940.62" y="121.314" width="23.5976" height="8.36662" rx="2" fill="#8D99BB"/>
<rect x="940.62" y="154.781" width="23.5976" height="8.36662" rx="2" fill="#8D99BB"/>
<rect x="940.62" y="171.518" width="23.5976" height="8.36662" rx="2" fill="#8D99BB"/>
<rect x="1006.69" y="121.314" width="23.5976" height="8.36662" rx="2" fill="#8D99BB"/>
<rect x="1006.69" y="138.051" width="23.5976" height="8.36662" rx="2" fill="#8D99BB"/>
<rect x="1006.69" y="154.781" width="23.5976" height="8.36662" rx="2" fill="#8D99BB"/>
<rect x="1006.69" y="171.518" width="23.5976" height="8.36662" rx="2" fill="#8D99BB"/>
<rect x="917.022" y="188.25" width="23.5976" height="25.0999" rx="2" fill="#8D99BB"/>
<path d="M671.367 102.295C671.367 101.24 672.416 100.537 673.37 100.881L673.56 100.964L727.739 129.152C728.235 129.411 728.547 129.923 728.547 130.482V211.35C728.547 212.178 727.875 212.849 727.047 212.85H672.867C672.039 212.85 671.367 212.178 671.367 211.35V102.295Z" fill="#EFF2F6" stroke="#8D99BB"/>
<path d="M737.135 144.966C737.135 143.899 738.205 143.196 739.162 143.561L739.352 143.648L758.119 153.863C758.601 154.126 758.901 154.632 758.901 155.181V211.349C758.901 212.177 758.229 212.849 757.401 212.849H738.635C737.807 212.849 737.135 212.177 737.135 211.349V144.966Z" fill="white" stroke="#8D99BB"/>
<rect x="680.985" y="128.148" width="12.6477" height="4.48429" rx="2" fill="#8D99BB"/>
<rect x="680.985" y="137.117" width="12.6477" height="4.48429" rx="2" fill="#8D99BB"/>
<rect x="680.985" y="155.053" width="12.6477" height="4.48429" rx="2" fill="#8D99BB"/>
<rect x="680.985" y="164.021" width="12.6477" height="4.48429" rx="2" fill="#8D99BB"/>
<rect x="680.985" y="181.959" width="12.6477" height="4.48429" rx="2" fill="#8D99BB"/>
<rect x="680.985" y="190.93" width="12.6477" height="4.48429" rx="2" fill="#8D99BB"/>
<rect x="706.281" y="128.148" width="12.6477" height="4.48429" rx="2" fill="#8D99BB"/>
<rect x="706.281" y="137.117" width="12.6477" height="4.48429" rx="2" fill="#8D99BB"/>
<rect x="706.281" y="155.053" width="12.6477" height="4.48429" rx="2" fill="#8D99BB"/>
<rect x="706.281" y="164.021" width="12.6477" height="4.48429" rx="2" fill="#8D99BB"/>
<rect x="706.281" y="181.959" width="12.6477" height="4.48429" rx="2" fill="#8D99BB"/>
<rect x="706.281" y="190.93" width="12.6477" height="4.48429" rx="2" fill="#8D99BB"/>
<rect x="741.694" y="164.021" width="12.6477" height="4.48429" rx="2" fill="#8D99BB"/>
<rect x="741.694" y="172.992" width="12.6477" height="4.48429" rx="2" fill="#8D99BB"/>
<rect x="741.694" y="181.959" width="12.6477" height="4.48429" rx="2" fill="#8D99BB"/>
<rect x="741.694" y="190.93" width="12.6477" height="4.48429" rx="2" fill="#8D99BB"/>
<rect x="693.633" y="199.896" width="12.6477" height="13.4529" rx="2" fill="#8D99BB"/>
<path d="M824.511 154.816H852.944C853.773 154.816 854.444 155.488 854.444 156.316V213.182C854.444 214.01 853.772 214.682 852.944 214.682H824.511C823.682 214.682 823.011 214.01 823.011 213.182V156.316C823.011 155.54 823.601 154.901 824.357 154.824L824.511 154.816Z" fill="#EFF2F6" stroke="#8D99BB"/>
<path d="M792.077 127.5H820.511C821.339 127.5 822.011 128.172 822.011 129V185.865C822.011 186.694 821.339 187.365 820.511 187.365H792.077C791.249 187.365 790.577 186.694 790.577 185.865V129C790.577 128.223 791.167 127.585 791.924 127.508L792.077 127.5Z" fill="#EFF2F6" stroke="#8D99BB"/>
<path d="M781.736 132.293H829.759C830.587 132.293 831.259 132.965 831.259 133.793V213.35C831.259 214.178 830.587 214.85 829.759 214.85H781.736C780.908 214.85 780.236 214.178 780.236 213.35V133.793C780.236 133.016 780.826 132.378 781.583 132.301L781.736 132.293Z" fill="#EFF2F6" stroke="#8D99BB"/>
<path d="M840.946 162.775H856.9C857.729 162.775 858.4 163.447 858.4 164.275V213.35C858.4 214.178 857.729 214.85 856.9 214.85H840.56C839.779 214.85 839.138 214.253 839.066 213.492L839.06 213.338L839.447 164.264C839.453 163.491 840.042 162.859 840.794 162.783L840.946 162.775Z" fill="white" stroke="#8D99BB"/>
<rect x="788.783" y="139.164" width="11.3092" height="4.00972" rx="2" fill="#8D99BB"/>
<rect x="788.783" y="147.184" width="11.3092" height="4.00972" rx="2" fill="#8D99BB"/>
<rect x="788.783" y="163.223" width="11.3092" height="4.00972" rx="2" fill="#8D99BB"/>
<rect x="788.783" y="171.242" width="11.3092" height="4.00972" rx="2" fill="#8D99BB"/>
<rect x="788.783" y="187.281" width="11.3092" height="4.00972" rx="2" fill="#8D99BB"/>
<rect x="788.783" y="195.301" width="11.3092" height="4.00972" rx="2" fill="#8D99BB"/>
<rect x="811.402" y="139.164" width="11.3092" height="4.00972" rx="2" fill="#8D99BB"/>
<rect x="811.402" y="147.184" width="11.3092" height="4.00972" rx="2" fill="#8D99BB"/>
<rect x="811.402" y="163.223" width="11.3092" height="4.00972" rx="2" fill="#8D99BB"/>
<rect x="811.402" y="171.242" width="11.3092" height="4.00972" rx="2" fill="#8D99BB"/>
<rect x="811.402" y="187.281" width="11.3092" height="4.00972" rx="2" fill="#8D99BB"/>
<rect x="811.402" y="195.301" width="11.3092" height="4.00972" rx="2" fill="#8D99BB"/>
<rect x="843.067" y="171.242" width="11.3092" height="4.00972" rx="2" fill="#8D99BB"/>
<rect x="843.067" y="179.262" width="11.3092" height="4.00972" rx="2" fill="#8D99BB"/>
<rect x="843.067" y="187.281" width="11.3092" height="4.00972" rx="2" fill="#8D99BB"/>
<rect x="843.067" y="195.301" width="11.3092" height="4.00972" rx="2" fill="#8D99BB"/>
<rect x="800.093" y="203.32" width="11.3092" height="12.0292" rx="2" fill="#8D99BB"/>
<rect y="208" width="1226" height="7" fill="#8D99BB"/>
<rect x="1081.9" y="189.916" width="21.5" height="7.02907" rx="3.51453" transform="rotate(90 1081.9 189.916)" fill="#8D99BB"/>
<ellipse cx="1078.39" cy="182.75" rx="10.5436" ry="10.75" fill="#8D99BB"/>
<ellipse cx="1071.36" cy="193.5" rx="10.5436" ry="10.75" fill="#8D99BB"/>
<ellipse cx="1085.42" cy="193.5" rx="10.5436" ry="10.75" fill="#8D99BB"/>
<rect x="1141.65" y="164.834" width="46.5833" height="7.02907" rx="3.51453" transform="rotate(90 1141.65 164.834)" fill="#8D99BB"/>
<path d="M1159.54 164.996C1159.54 177.95 1149.24 188.451 1136.54 188.451C1123.83 188.451 1113.54 177.95 1113.54 164.996C1113.54 152.043 1123.83 107.5 1136.54 107.5C1149.24 107.5 1159.54 152.043 1159.54 164.996Z" fill="#8D99BB"/>
<rect x="759.692" y="199.127" width="12.2902" height="1.8545" rx="0.927251" transform="rotate(90 759.692 199.127)" fill="#8D99BB"/>
<path d="M764.412 199.169C764.412 202.587 761.695 205.358 758.343 205.358C754.991 205.358 752.274 202.587 752.274 199.169C752.274 195.752 754.991 184 758.343 184C761.695 184 764.412 195.752 764.412 199.169Z" fill="#8D99BB"/>
<rect x="1179.83" y="188.928" width="22.4885" height="3.39334" rx="1.69667" transform="rotate(90 1179.83 188.928)" fill="#8D99BB"/>
<path d="M1188.46 189.007C1188.46 195.26 1183.49 200.33 1177.36 200.33C1171.23 200.33 1166.25 195.26 1166.25 189.007C1166.25 182.753 1171.23 161.25 1177.36 161.25C1183.49 161.25 1188.46 182.753 1188.46 189.007Z" fill="#8D99BB"/>
<rect x="859.023" y="188.928" width="22.4885" height="3.39334" rx="1.69667" transform="rotate(90 859.023 188.928)" fill="#8D99BB"/>
<path d="M867.661 189.007C867.661 195.26 862.689 200.33 856.555 200.33C850.422 200.33 845.45 195.26 845.45 189.007C845.45 182.753 850.422 161.25 856.555 161.25C862.689 161.25 867.661 182.753 867.661 189.007Z" fill="#8D99BB"/>
<rect x="1217.76" y="201.777" width="9.63793" height="1.45429" rx="0.727145" transform="rotate(90 1217.76 201.777)" fill="#8D99BB"/>
<path d="M1221.46 201.812C1221.46 204.492 1219.33 206.664 1216.7 206.664C1214.07 206.664 1211.94 204.492 1211.94 201.812C1211.94 199.132 1214.07 189.916 1216.7 189.916C1219.33 189.916 1221.46 199.132 1221.46 201.812Z" fill="#8D99BB"/>
</g>
</svg>
