<svg width="242" height="157" viewBox="0 0 242 157" fill="none" xmlns="http://www.w3.org/2000/svg">
<path opacity="0.2" fill-rule="evenodd" clip-rule="evenodd" d="M154.303 2.47338C155.024 2.11575 155.986 2.53052 155.585 3.47594C155.155 4.48835 153.566 4.50086 152.669 4.48079C152.759 4.47609 153.048 3.54769 153.147 3.40741C153.439 2.99356 153.86 2.69364 154.303 2.47338ZM145.999 20.9202C145.744 21.138 145.978 20.9406 145.999 20.9202V20.9202ZM155.141 7.17384C155.572 7.50024 155.593 8.07688 155.24 8.46738C154.82 8.93227 154.054 8.91574 153.482 8.87075C153.223 8.85037 151.842 8.74151 152.169 8.51745C152.144 8.52688 152.092 8.54978 152.035 8.58089C152.005 8.69054 151.973 8.79981 151.94 8.90859C151.948 8.91329 151.955 8.91834 151.964 8.92301C151.954 8.91893 151.948 8.91452 151.939 8.91039C151.606 9.99765 151.133 11.033 150.513 12.0017C150.745 11.9112 150.985 11.8427 151.228 11.8121C151.949 11.7215 153.465 12.2754 152.658 13.2262C151.885 14.1377 150.682 13.1608 149.805 13.0265C148.953 14.2031 148.014 15.3308 147.03 16.4209C147.091 16.4395 147.144 16.4784 147.174 16.539C147.568 16.3406 147.98 16.0569 148.345 15.98C148.872 15.8691 149.952 15.8015 150.35 16.2683C150.839 16.8422 150.314 17.3089 149.735 17.4193C148.896 17.5795 147.798 17.1741 146.991 16.9002C146.899 16.9164 146.798 16.8897 146.738 16.8166C146.72 16.8108 146.702 16.8051 146.685 16.7996C145.689 17.8844 144.654 18.9333 143.626 19.9593C143.637 19.9587 143.648 19.9581 143.659 19.9575C143.928 19.7832 144.215 19.6402 144.527 19.5653C145.248 19.3909 146.096 19.3896 146.681 19.9059C147.263 20.42 147.469 21.3195 146.866 21.8974C145.659 23.0541 143.882 20.4189 143.273 20.3092C142.229 21.3409 141.124 22.3049 140.002 23.2494C140.129 23.2109 140.26 23.1827 140.395 23.1699C141.495 23.0651 144.075 24.399 142.725 25.7134C141.548 26.8588 140.188 24.656 139.241 23.8859C138.184 24.7663 137.121 25.6407 136.087 26.5491C136.651 26.4007 137.195 26.3786 137.799 26.559C138.424 26.7459 139.431 27.2126 139.036 28.0482C138.634 28.898 137.424 28.512 136.793 28.2426C136.449 28.0957 135.76 27.5995 135.155 27.3907C133.506 28.9323 132.078 30.6302 130.996 32.63C130.321 33.8786 129.808 35.2125 129.447 36.5834C129.217 37.4584 128.763 38.928 128.853 40.0667C128.421 37.7876 129.205 35.0497 130.048 33.012C130.824 31.1381 131.984 29.493 133.342 28.0119C133.002 26.9972 130.135 25.5349 131.85 24.5912C132.76 24.0922 133.692 24.9189 133.891 25.7949C134.027 26.3969 133.819 27.1535 133.597 27.7379C134.025 27.2864 134.469 26.8495 134.927 26.427C135.559 25.8431 136.207 25.2761 136.861 24.7162C135.784 23.7147 134.766 20.8504 136.211 20.3811C138.344 19.6901 137.315 23.5984 137.166 24.3308C137.123 24.3333 137.091 24.3207 137.066 24.2936C137.078 24.3607 137.092 24.4324 137.109 24.5047C138.361 23.4388 139.631 22.3937 140.859 21.3024C140.748 21.2214 140.573 20.9121 140.435 20.7475C140.123 20.3765 139.825 19.9888 139.607 19.5547C139.263 18.8686 138.931 17.7741 139.844 17.37C140.838 16.9296 141.309 18.1675 141.316 18.9061C141.32 19.4169 141.179 19.9022 141.106 20.4029C141.083 20.5591 141.171 21.2629 140.956 20.9602C140.966 21.0718 140.968 21.1527 140.963 21.21C141.183 21.0131 141.402 20.814 141.619 20.6136C141.609 20.5883 141.602 20.5607 141.6 20.5287C141.589 20.3085 141.812 20.2236 141.969 20.288C142.256 20.018 142.54 19.7445 142.819 19.4657C143.411 18.8749 144.011 18.2672 144.607 17.6466C144.477 17.5367 144.529 17.3845 144.408 17.2678C144.288 17.1515 144.05 17.0872 143.908 16.9791C143.552 16.7071 143.256 16.3106 143.042 15.9204C142.689 15.2757 142.233 13.9231 143.265 13.6152C144.329 13.2974 144.869 14.5994 144.937 15.4135C144.95 15.5712 144.83 16.9925 144.738 17.5086C145.841 16.3553 146.925 15.1587 147.908 13.9413C147.61 13.9388 146.766 13.3351 146.596 13.1703C146.18 12.7684 145.518 11.8803 146.249 11.4098C146.898 10.9925 147.698 11.5961 147.975 12.1829C148.02 12.2795 148.181 13.1791 148.193 13.5827C148.6 13.0665 148.988 12.5472 149.349 12.0263C149.589 11.68 149.814 11.3246 150.025 10.9615C149.974 10.9331 149.927 10.8836 149.882 10.822C148.799 10.6406 147.42 8.96859 148.692 8.38595C149.297 8.1089 149.954 8.67982 150.25 9.14736C150.311 9.24301 150.409 9.72401 150.489 10.1034C151.094 8.90087 151.557 7.62786 151.91 6.32269C151.816 6.29956 151.736 6.22831 151.726 6.10569C151.2 5.80922 150.785 5.56234 150.419 4.99192C150.191 4.63761 149.781 3.82807 150.451 3.63101C151.322 3.37461 151.869 4.69269 151.94 5.34201C151.948 5.41738 151.948 5.63661 151.945 5.8375C151.975 5.8334 152.006 5.83385 152.036 5.83908C152.236 5.03092 152.397 4.21237 152.524 3.39246C152.048 3.24107 151.967 0.766947 152.284 0.414493C152.993 -0.374693 153.492 0.76455 153.454 1.36682C153.409 2.07695 153.083 2.72308 152.696 3.29655C152.655 3.35728 152.666 3.35433 152.656 3.26976C152.65 3.31157 152.636 3.34243 152.615 3.36478C152.634 3.73856 152.673 4.12124 152.654 4.45201C152.6 5.39926 152.488 6.35205 152.326 7.28716C152.287 7.51459 152.241 7.74017 152.191 7.96379C152.573 7.641 153.089 7.35412 153.291 7.26439C153.814 7.03173 154.621 6.78039 155.141 7.17384ZM128.767 39.9767C128.792 40.2811 128.867 40.5589 129.015 40.7865C128.907 40.5263 128.825 40.2554 128.767 39.9767Z" fill="#C1DEE2"/>
<g opacity="0.5">
<path opacity="0.5" fill-rule="evenodd" clip-rule="evenodd" d="M147.731 33.4894C148.594 32.2586 150.196 29.1329 151.411 28.6931C152.193 28.4098 151.965 31.34 151.975 31.8987C152.013 34.0603 151.802 36.2083 151.542 38.3517C151.074 42.2175 149.543 45.6602 147.443 48.9504C146.363 50.6433 145.095 52.3569 143.34 53.4132C142.532 53.8997 141.56 53.9811 140.762 54.4002C139.833 54.8882 140.339 54.4937 139.92 55.4621C139.338 56.8066 139.152 58.5412 138.883 59.9758C137.647 66.5616 134.656 101.376 135.175 108.075C135.221 108.668 134.393 108.81 134.352 108.085C134.132 104.242 136.033 77.6262 136.992 68.9221C137.951 60.218 138.921 52.5283 139.895 49.517C141.075 45.8636 143.207 41.4701 144.982 38.0631C145.807 36.4803 146.705 34.9521 147.731 33.4894Z" fill="#69A1AC"/>
<path opacity="0.5" fill-rule="evenodd" clip-rule="evenodd" d="M154.138 76.1788C156.384 74.5298 158.816 77.642 156.783 79.2912C155.659 80.2028 154.485 79.8785 153.823 79.1188C153.394 79.6421 152.992 80.1893 152.606 80.6514C151.43 82.0597 150.318 83.5015 149.256 84.977C147.048 88.0423 145.157 91.2807 143.179 94.4599C141.227 97.5976 139.291 100.751 137.522 103.969C136.023 106.694 134.026 109.901 133.513 112.889C134.291 106.552 137.245 100.46 140.763 94.8732C144.252 89.3321 148.256 83.2807 153.659 78.9078C153.109 78.0992 153.094 76.945 154.138 76.1788Z" fill="#C1DEE2"/>
<path opacity="0.5" fill-rule="evenodd" clip-rule="evenodd" d="M111.517 60.7231C112.773 60.9689 114.827 63.8123 115.863 64.8956C117.095 66.183 118.212 67.5552 119.265 68.9929C121.532 72.0875 123.559 75.3777 125.283 78.8088C128.093 84.4022 130.345 90.1439 131.979 96.2348C132.979 99.9633 133.627 103.828 134.011 107.665C134.083 108.389 134.842 113.968 133.748 114.119C132.765 114.254 133.069 109.882 133.021 109.287C132.485 102.578 130.879 96.0494 128.644 89.7252C128.158 88.3476 127.705 86.6602 126.927 85.4205C126.366 84.5275 126.923 84.8389 125.938 84.5009C125.092 84.2106 124.128 84.2815 123.262 83.9261C121.381 83.1545 119.874 81.6565 118.553 80.1497C115.987 77.2213 113.953 74.0533 112.893 70.301C112.305 68.2205 111.764 66.1279 111.464 63.9831C111.387 63.4287 110.707 60.5648 111.517 60.7231Z" fill="#69A1AC"/>
<path opacity="0.5" fill-rule="evenodd" clip-rule="evenodd" d="M116.477 13.415C121.212 21.6259 125.102 30.6454 127.615 39.7807C129.137 45.3157 130.201 50.9955 131.259 56.6342C132.896 65.365 134.445 74.0952 134.886 82.9811C135.329 91.9185 136.206 102.227 133.279 110.835C134.741 102.095 133.349 92.7927 133.103 83.9988C132.985 79.8008 132.644 75.6438 132.196 71.4703C131.762 67.4217 131.052 63.3925 130.391 59.3758C130.069 57.4196 129.731 55.4663 129.387 53.5141C129.284 52.9317 129.241 51.2034 128.871 50.8055C128.499 50.405 126.602 50.2417 126.006 49.9478C124.807 49.3559 123.679 48.5152 122.68 47.6268C120.766 45.9239 119.101 43.6988 117.786 41.5053C114.745 36.4301 113.53 30.2364 113.591 24.3585C113.603 23.2173 115.438 10.9283 114.701 10.7591C114.745 10.7071 114.787 10.6535 114.827 10.5977C115.385 11.532 115.933 12.4727 116.477 13.415Z" fill="#FF2B2B"/>
<path opacity="0.5" fill-rule="evenodd" clip-rule="evenodd" d="M167.578 43.0289C167.651 42.9236 168.126 42.1908 167.887 42.2376C168.374 42.1422 167.216 43.0458 168.431 42.4914C167.854 43.036 168.187 43.7436 168.195 44.4766C168.207 45.6668 168.008 46.8472 167.784 48.0119C167.43 49.8528 166.902 51.6427 166.136 53.355C164.467 57.0865 161.633 60.6787 158.267 63.0116C156.606 64.1634 154.978 64.5556 153.083 65.0858C151.886 65.4208 151.792 66.0399 151.156 67.2012C149.834 69.62 148.535 72.0302 147.368 74.5306C145.976 77.5164 144.624 80.5054 143.348 83.5438C139.052 93.7782 135.555 104.381 133.719 115.354C133.674 108.888 135.17 102.228 137.057 96.0645C138.431 91.5739 140.221 87.245 142.129 82.96C142.592 81.9219 143.292 80.5865 143.489 79.4404C143.626 78.6374 143.206 77.8651 143.013 77.0192C142.263 73.7251 142.317 70.0345 142.976 66.7228C143.702 63.0709 145.804 61.376 149.358 60.8587C150.658 60.6695 152.311 60.7388 153.503 60.1845C154.801 59.5809 155.337 57.5968 156.076 56.3232C158.059 52.9019 160.416 49.6207 163.122 46.738C163.872 45.9398 164.678 45.2033 165.533 44.5207C166.072 44.0901 167.21 43.5595 167.578 43.0289Z" fill="#C7CC89"/>
<path opacity="0.5" fill-rule="evenodd" clip-rule="evenodd" d="M127.719 108.371H140.334C140.901 108.371 141.361 108.831 141.361 109.398C141.361 109.448 141.357 109.498 141.35 109.548L140.375 116.16C140.078 118.175 138.348 119.668 136.311 119.668H131.742C129.704 119.668 127.975 118.175 127.678 116.16L126.703 109.548C126.62 108.987 127.008 108.465 127.569 108.382C127.618 108.375 127.668 108.371 127.719 108.371Z" fill="#C1DEE2"/>
</g>
<path opacity="0.2" fill-rule="evenodd" clip-rule="evenodd" d="M39.0169 29.9327C39.4762 29.2715 40.5185 29.171 40.6232 30.1927C40.7352 31.2867 39.3498 32.0639 38.5543 32.4791C38.6307 32.4316 38.4361 31.4789 38.4552 31.3083C38.5112 30.805 38.7348 30.3395 39.0169 29.9327ZM40.6407 50.0972C40.5226 50.4108 40.6324 50.1251 40.6407 50.0972V50.0972ZM42.0186 33.6458C42.5538 33.7237 42.8497 34.219 42.7292 34.7312C42.5856 35.3409 41.9064 35.6961 41.3837 35.9325C41.1472 36.0395 39.8846 36.6105 40.0635 36.2562C40.0459 36.2766 40.0109 36.3221 39.9766 36.3765C40.0029 36.4872 40.0277 36.5983 40.051 36.7096C40.0604 36.7098 40.0689 36.7109 40.0788 36.7108C40.0686 36.7117 40.0607 36.7111 40.0514 36.7114C40.2843 37.8244 40.369 38.9597 40.2934 40.1071C40.4528 39.9161 40.63 39.7403 40.8284 39.5961C41.4161 39.1691 43.0112 38.9231 42.7632 40.145C42.5253 41.3166 41.0003 41.0412 40.1671 41.3466C39.9887 42.7881 39.7103 44.2288 39.3743 45.6582C39.436 45.6455 39.5011 45.6541 39.5569 45.6926C39.8068 45.3285 40.0301 44.8816 40.3128 44.6381C40.7209 44.2868 41.6345 43.7065 42.2082 43.9234C42.9138 44.1901 42.6789 44.8523 42.2253 45.2281C41.5676 45.7731 40.4102 45.9476 39.5711 46.097C39.498 46.1558 39.3968 46.181 39.3088 46.146C39.2904 46.1496 39.2721 46.1532 39.2542 46.1567C38.9047 47.5875 38.5047 49.0053 38.099 50.3999C38.1083 50.3941 38.1176 50.3883 38.1273 50.3823C38.2781 50.1003 38.461 49.8363 38.6979 49.6203C39.2453 49.1198 39.9877 48.7095 40.749 48.8797C41.5072 49.049 42.1215 49.7376 41.8719 50.5348C41.3723 52.1305 38.5449 50.679 37.9588 50.8765C37.5413 52.2842 37.0387 53.6614 36.5115 55.0301C36.6045 54.9349 36.7053 54.8471 36.8174 54.7708C37.7302 54.1485 40.6342 54.0722 40.0854 55.8749C39.6071 57.4458 37.3531 56.1724 36.1518 55.9548C35.6503 57.236 35.1409 58.5146 34.674 59.8087C35.0959 59.407 35.5621 59.1251 36.1779 58.9919C36.8153 58.8543 37.9234 58.7769 37.9801 59.6996C38.0377 60.638 36.7912 60.8838 36.109 60.9519C35.737 60.989 34.8938 60.8869 34.2629 60.9959C33.5623 63.1417 33.1301 65.3179 33.1472 67.5914C33.158 69.0109 33.3524 70.4266 33.6974 71.8016C33.9175 72.6793 34.2288 74.1856 34.857 75.1395C33.3799 73.3512 32.7454 70.575 32.5013 68.3832C32.2767 66.3677 32.4992 64.3671 32.9748 62.4144C32.1873 61.6897 28.9705 61.7917 30.0175 60.1378C30.5745 59.2614 31.7897 59.5361 32.3862 60.2077C32.796 60.6692 32.9782 61.4326 33.0662 62.0513C33.2228 61.4497 33.4011 60.8526 33.5983 60.2617C33.8708 59.4451 34.1647 58.636 34.4674 57.8302C33.0412 57.4721 30.768 55.4541 31.8069 54.3463C33.3419 52.7122 34.3259 56.6319 34.5486 57.3455C34.5128 57.3681 34.4778 57.3729 34.4436 57.3608C34.4864 57.4138 34.5331 57.4699 34.5828 57.5252C35.1649 55.9877 35.7734 54.4597 36.3229 52.9112C36.187 52.8936 35.8839 52.7074 35.6835 52.6299C35.2315 52.4552 34.7833 52.2595 34.383 51.9843C33.7506 51.5493 32.9321 50.7505 33.5373 49.9559C34.1951 49.091 35.205 49.948 35.567 50.5918C35.8173 51.0371 35.9282 51.5301 36.1054 52.0041C36.1606 52.152 36.5769 52.7262 36.2429 52.5646C36.3056 52.6575 36.3458 52.7277 36.3691 52.7803C36.4673 52.5015 36.5629 52.2216 36.6567 51.9411C36.6357 51.9237 36.6158 51.9032 36.5989 51.876C36.4826 51.6886 36.6377 51.5063 36.8061 51.4871C36.9272 51.1121 37.0442 50.7356 37.1541 50.3567C37.3872 49.5539 37.6197 48.7321 37.8423 47.9011C37.6762 47.8672 37.6478 47.709 37.4858 47.665C37.324 47.6213 37.0849 47.6795 36.9085 47.6533C36.4649 47.587 36.0146 47.3824 35.6391 47.1437C35.019 46.7492 33.9672 45.7843 34.7229 45.0167C35.5015 44.2251 36.602 45.1054 37.0542 45.7858C37.1419 45.9175 37.7224 47.2204 37.8911 47.7167C38.3006 46.1745 38.6734 44.6033 38.9469 43.0629C38.6849 43.2043 37.6545 43.0825 37.4256 43.0204C36.8672 42.8692 35.8594 42.4103 36.2721 41.6459C36.6396 40.9671 37.6313 41.1101 38.1572 41.4904C38.2437 41.5531 38.8182 42.2637 39.0237 42.6113C39.1309 41.9629 39.2203 41.3209 39.2852 40.6905C39.329 40.271 39.3546 39.8511 39.3639 39.4316C39.3059 39.4311 39.2403 39.4107 39.1712 39.3784C38.1355 39.7416 36.1208 38.9423 36.9538 37.8185C37.3506 37.2837 38.2009 37.4673 38.686 37.7339C38.7853 37.7884 39.1033 38.1624 39.3563 38.4562C39.3068 37.1106 39.0983 35.7721 38.7776 34.4588C38.6839 34.484 38.5797 34.46 38.5114 34.3577C37.9081 34.3514 37.4256 34.3353 36.8293 34.0124C36.4589 33.8119 35.7092 33.3006 36.2009 32.8049C36.8408 32.1598 37.9555 33.0507 38.3309 33.5852C38.3745 33.6473 38.4799 33.8395 38.5742 34.0169C38.5987 33.9987 38.6257 33.9844 38.6545 33.9745C38.4404 33.1698 38.1859 32.3755 37.9021 31.5958C37.4124 31.6926 36.148 29.5644 36.2556 29.1028C36.4955 28.0698 37.482 28.8271 37.7391 29.373C38.0423 30.0168 38.069 30.7397 38.0065 31.4288C37.9994 31.502 38.0083 31.4937 37.9582 31.4248C37.9731 31.4643 37.9756 31.4982 37.968 31.5279C38.1657 31.8457 38.3842 32.1623 38.5272 32.4611C38.9368 33.317 39.2983 34.2056 39.6073 35.1029C39.6824 35.3212 39.7516 35.5406 39.8152 35.7609C39.9945 35.2936 40.3078 34.7936 40.4413 34.6177C40.7878 34.1613 41.3734 33.5519 42.0186 33.6458ZM34.7386 75.1021C34.9076 75.3565 35.1073 75.5636 35.3465 75.6917C35.126 75.5162 34.9241 75.3181 34.7386 75.1021Z" fill="#ADBABC"/>
<g opacity="0.5">
<path opacity="0.5" fill-rule="evenodd" clip-rule="evenodd" d="M48.2214 60.2717C48.3838 58.7772 48.2792 55.2664 49.1313 54.2951C49.6801 53.6695 50.8937 56.3464 51.1716 56.8311C52.2473 58.7065 53.099 60.6895 53.9053 62.6925C55.3599 66.3046 55.6795 70.0588 55.4272 73.9538C55.2973 75.958 55.0136 78.0703 53.9855 79.8424C53.5124 80.6582 52.7 81.1986 52.2032 81.9506C51.6245 82.8263 51.8776 82.2366 51.9779 83.287C52.1169 84.7453 52.7907 86.3544 53.247 87.7409C55.3413 94.1058 69.5141 126.045 73.1997 131.663C73.5264 132.161 72.8697 132.684 72.4838 132.069C70.4375 128.809 59.2641 104.577 55.9057 96.4899C52.5472 88.4027 49.6881 81.1987 49.088 78.0914C48.3599 74.3217 48.1083 69.4446 48.0196 65.604C47.9783 63.8199 48.0283 62.0477 48.2214 60.2717Z" fill="#69A1AC"/>
<path opacity="0.5" fill-rule="evenodd" clip-rule="evenodd" d="M74.4258 94.576C75.5979 92.0481 79.2288 93.6015 78.2439 96.0266C77.6994 97.3672 76.514 97.6497 75.5683 97.3032C75.4446 97.9687 75.3566 98.6418 75.2413 99.2329C74.8902 101.034 74.6119 102.833 74.3928 104.638C73.9379 108.388 73.8431 112.137 73.6441 115.876C73.4479 119.566 73.2731 123.263 73.2753 126.934C73.2773 130.045 73.0743 133.817 74.0663 136.682C71.6912 130.755 71.3406 123.994 71.7271 117.403C72.1107 110.867 72.6993 103.634 75.3224 97.1977C74.4507 96.7546 73.8806 95.751 74.4258 94.576Z" fill="#C1DEE2"/>
<path opacity="0.5" fill-rule="evenodd" clip-rule="evenodd" d="M29.6349 101.595C30.8545 101.204 34.0251 102.704 35.4552 103.154C37.1548 103.687 38.7952 104.35 40.4111 105.102C43.8896 106.719 47.2525 108.623 50.4177 110.797C55.5776 114.341 60.3195 118.285 64.6889 122.832C67.3636 125.616 69.7949 128.688 71.9822 131.865C72.3948 132.464 75.7509 136.985 74.8657 137.644C74.0696 138.237 72.2267 134.261 71.8982 133.763C68.192 128.144 63.6358 123.2 58.6279 118.738C57.537 117.766 56.327 116.506 55.0471 115.796C54.1254 115.284 54.7631 115.288 53.7372 115.468C52.8562 115.621 52.0462 116.148 51.1161 116.255C49.0956 116.486 47.0532 115.901 45.1695 115.218C41.5087 113.891 38.199 112.097 35.4604 109.321C33.9416 107.783 32.4588 106.21 31.1615 104.476C30.8261 104.028 28.8494 101.847 29.6349 101.595Z" fill="#69A1AC"/>
<path opacity="0.5" fill-rule="evenodd" clip-rule="evenodd" d="M11.1605 57.7622C19.2685 62.6709 27.0273 68.695 33.6345 75.4855C37.6377 79.5998 41.3098 84.0616 44.9562 88.4908C50.6021 95.3488 56.17 102.249 60.8423 109.82C65.5416 117.435 71.2818 126.042 72.8705 134.994C69.9354 126.634 64.229 119.156 59.7712 111.572C57.6431 107.951 55.339 104.475 52.9337 101.035C50.6003 97.6977 48.0351 94.5106 45.5186 91.3108C44.293 89.7525 43.0547 88.2046 41.8115 86.6606C41.4405 86.2 40.5688 84.707 40.0532 84.5366C39.5343 84.3652 37.7936 85.1373 37.1301 85.1672C35.7939 85.2273 34.4 85.0351 33.0969 84.7386C30.5986 84.1702 28.0666 83.0243 25.8573 81.7369C20.7453 78.758 16.6926 73.919 13.9112 68.7406C13.3711 67.7352 9.05096 56.0851 8.32366 56.2924C8.33746 56.2255 8.34835 56.1582 8.3561 56.0902C9.29562 56.6395 10.229 57.1994 11.1605 57.7622Z" fill="#29C9DC"/>
<path opacity="0.5" fill-rule="evenodd" clip-rule="evenodd" d="M70.2077 59.054C70.2209 58.9264 70.2839 58.0552 70.0967 58.2117C70.4777 57.893 69.8992 59.2431 70.6958 58.1715C70.4533 58.9268 71.0862 59.3861 71.4465 60.0245C72.0316 61.061 72.4266 62.191 72.792 63.3194C73.3697 65.1028 73.7709 66.9253 73.9259 68.7946C74.2636 72.8685 73.5134 77.3825 71.6909 81.0492C70.7912 82.8596 69.5542 83.9884 68.1503 85.3669C67.2635 86.2376 67.479 86.8257 67.4828 88.1494C67.491 90.9062 67.5157 93.6439 67.7001 96.3968C67.9203 99.6841 68.1779 102.955 68.5263 106.231C69.6996 117.269 71.751 128.243 75.4354 138.741C72.2769 133.099 70.3747 126.543 69.0545 120.234C68.0924 115.637 67.5718 110.982 67.1767 106.308C67.081 105.176 67.0508 103.668 66.67 102.569C66.4031 101.799 65.6623 101.326 65.0857 100.678C62.8393 98.1539 61.1062 94.8953 60.086 91.6764C58.9609 88.1269 59.9841 85.6286 62.8484 83.4608C63.8959 82.668 65.3768 81.9317 66.1536 80.8711C67.0001 79.7159 66.5123 77.7195 66.5449 76.2476C66.6321 72.2938 67.1139 68.2828 68.094 64.4522C68.3653 63.3915 68.716 62.3577 69.1356 61.3474C69.4001 60.7101 70.1418 59.6959 70.2077 59.054Z" fill="#89C5CC"/>
<path opacity="0.5" fill-rule="evenodd" clip-rule="evenodd" d="M66.8109 135.518L77.8615 129.433C78.3584 129.159 78.983 129.34 79.2566 129.837C79.2808 129.881 79.3017 129.927 79.3192 129.974L81.6543 136.236C82.3662 138.145 81.5714 140.287 79.7868 141.27L75.7844 143.474C73.9998 144.456 71.7645 143.983 70.5319 142.36L66.4886 137.039C66.1454 136.588 66.2333 135.943 66.6849 135.6C66.7249 135.57 66.767 135.542 66.8109 135.518Z" fill="#C1DEE2"/>
</g>
<path opacity="0.2" fill-rule="evenodd" clip-rule="evenodd" d="M207.052 52.2822C206.685 51.7539 205.853 51.6737 205.769 52.4899C205.68 53.364 206.786 53.985 207.422 54.3166C207.361 54.2787 207.516 53.5176 207.501 53.3812C207.456 52.9791 207.278 52.6072 207.052 52.2822ZM205.755 68.3927C205.849 68.6433 205.762 68.415 205.755 68.3927V68.3927ZM204.654 55.2488C204.227 55.311 203.99 55.7068 204.087 56.116C204.201 56.6031 204.744 56.8869 205.161 57.0758C205.35 57.1613 206.359 57.6175 206.216 57.3344C206.23 57.3507 206.258 57.387 206.286 57.4305C206.265 57.519 206.245 57.6077 206.226 57.6966C206.219 57.6968 206.212 57.6977 206.204 57.6976C206.212 57.6984 206.219 57.6978 206.226 57.6981C206.04 58.5873 205.972 59.4944 206.033 60.4111C205.905 60.2585 205.764 60.1181 205.605 60.0029C205.136 59.6617 203.861 59.4651 204.059 60.4414C204.249 61.3774 205.468 61.1574 206.133 61.4014C206.276 62.5531 206.498 63.7041 206.767 64.8462C206.718 64.836 206.666 64.8429 206.621 64.8736C206.421 64.5827 206.243 64.2257 206.017 64.0311C205.691 63.7505 204.961 63.2868 204.503 63.4602C203.939 63.6733 204.127 64.2023 204.489 64.5025C205.015 64.938 205.939 65.0774 206.61 65.1968C206.668 65.2437 206.749 65.2639 206.819 65.2359C206.834 65.2388 206.849 65.2416 206.863 65.2445C207.142 66.3876 207.462 67.5204 207.786 68.6346C207.778 68.63 207.771 68.6253 207.763 68.6205C207.643 68.3952 207.497 68.1843 207.307 68.0117C206.87 67.6118 206.277 67.284 205.669 67.42C205.063 67.5553 204.572 68.1054 204.771 68.7423C205.171 70.0172 207.43 68.8576 207.898 69.0154C208.231 70.14 208.633 71.2404 209.054 72.3339C208.98 72.2579 208.899 72.1877 208.81 72.1268C208.08 71.6296 205.76 71.5686 206.199 73.0089C206.581 74.264 208.382 73.2465 209.342 73.0727C209.742 74.0963 210.149 75.1179 210.522 76.1518C210.185 75.8309 209.813 75.6056 209.321 75.4992C208.811 75.3893 207.926 75.3274 207.881 76.0646C207.835 76.8144 208.831 77.0107 209.376 77.0651C209.673 77.0948 210.347 77.0132 210.851 77.1003C211.41 78.8147 211.756 80.5534 211.742 82.3698C211.733 83.5039 211.578 84.635 211.303 85.7336C211.127 86.4348 210.878 87.6383 210.376 88.4004C211.556 86.9716 212.063 84.7536 212.258 83.0024C212.438 81.3922 212.26 79.7937 211.88 78.2336C212.509 77.6546 215.079 77.7361 214.243 76.4147C213.798 75.7145 212.827 75.934 212.35 76.4705C212.023 76.8393 211.877 77.4492 211.807 77.9435C211.682 77.4628 211.539 76.9858 211.382 76.5137C211.164 75.8613 210.929 75.2148 210.687 74.571C211.827 74.285 213.643 72.6727 212.813 71.7876C211.586 70.482 210.8 73.6137 210.622 74.1838C210.651 74.2018 210.679 74.2057 210.706 74.1961C210.672 74.2384 210.635 74.2832 210.595 74.3274C210.13 73.099 209.644 71.8782 209.205 70.641C209.313 70.6269 209.556 70.4782 209.716 70.4162C210.077 70.2767 210.435 70.1203 210.755 69.9004C211.26 69.5529 211.914 68.9147 211.43 68.2799C210.905 67.5889 210.098 68.2735 209.809 68.7879C209.609 69.1437 209.52 69.5376 209.379 69.9163C209.334 70.0344 209.002 70.4932 209.269 70.3641C209.219 70.4383 209.186 70.4944 209.168 70.5364C209.089 70.3136 209.013 70.09 208.938 69.8659C208.955 69.8521 208.971 69.8356 208.984 69.8139C209.077 69.6642 208.953 69.5186 208.819 69.5032C208.722 69.2036 208.629 68.9028 208.541 68.6001C208.354 67.9586 208.169 67.3021 207.991 66.6382C208.124 66.611 208.146 66.4846 208.276 66.4496C208.405 66.4146 208.596 66.4611 208.737 66.4401C209.091 66.3872 209.451 66.2237 209.751 66.0331C210.247 65.7179 211.087 64.9469 210.483 64.3336C209.861 63.7012 208.982 64.4045 208.621 64.9481C208.55 65.0534 208.087 66.0943 207.952 66.4908C207.625 65.2587 207.327 64.0033 207.108 62.7727C207.318 62.8856 208.141 62.7883 208.324 62.7387C208.77 62.6179 209.575 62.2512 209.245 61.6405C208.952 61.0982 208.159 61.2124 207.739 61.5163C207.67 61.5664 207.211 62.1341 207.047 62.4118C206.961 61.8938 206.89 61.3809 206.838 60.8772C206.803 60.5421 206.783 60.2066 206.775 59.8714C206.822 59.871 206.874 59.8547 206.929 59.8289C207.757 60.1191 209.366 59.4805 208.701 58.5826C208.384 58.1553 207.704 58.302 207.317 58.515C207.237 58.5585 206.983 58.8573 206.781 59.0921C206.821 58.017 206.987 56.9477 207.244 55.8983C207.318 55.9185 207.402 55.8994 207.456 55.8176C207.938 55.8126 208.324 55.7997 208.8 55.5417C209.096 55.3816 209.695 54.973 209.302 54.577C208.791 54.0616 207.9 54.7733 207.6 55.2004C207.566 55.25 207.481 55.4036 207.406 55.5453C207.387 55.5308 207.365 55.5193 207.342 55.5114C207.513 54.8685 207.716 54.2339 207.943 53.6109C208.334 53.6883 209.345 51.988 209.259 51.6192C209.067 50.7938 208.279 51.3989 208.073 51.8351C207.831 52.3494 207.81 52.927 207.86 53.4775C207.865 53.536 207.858 53.5294 207.898 53.4744C207.886 53.5059 207.884 53.533 207.89 53.5567C207.733 53.8107 207.558 54.0636 207.444 54.3023C207.116 54.9861 206.828 55.696 206.581 56.413C206.521 56.5874 206.465 56.7627 206.415 56.9387C206.271 56.5654 206.021 56.1659 205.914 56.0253C205.638 55.6607 205.17 55.1738 204.654 55.2488ZM210.471 88.3705C210.336 88.5738 210.176 88.7393 209.985 88.8416C210.161 88.7013 210.322 88.5431 210.471 88.3705Z" fill="#F9EAB4"/>
<g opacity="0.5">
<path opacity="0.5" fill-rule="evenodd" clip-rule="evenodd" d="M199.699 76.5216C199.569 75.3276 199.653 72.5227 198.972 71.7467C198.533 71.2468 197.564 73.3855 197.342 73.7728C196.482 75.2711 195.802 76.8555 195.158 78.4558C193.995 81.3417 193.74 84.3411 193.942 87.453C194.045 89.0543 194.272 90.7419 195.093 92.1577C195.471 92.8096 196.12 93.2413 196.517 93.8421C196.98 94.5418 196.778 94.0707 196.697 94.9098C196.586 96.0749 196.048 97.3606 195.684 98.4683C194.01 103.554 182.687 129.071 179.742 133.56C179.481 133.958 180.006 134.376 180.314 133.885C181.949 131.28 190.876 111.92 193.559 105.458C196.243 98.9971 198.527 93.2413 199.006 90.7588C199.588 87.7469 199.789 83.8504 199.86 80.782C199.893 79.3565 199.853 77.9406 199.699 76.5216Z" fill="#AC9569"/>
<path opacity="0.5" fill-rule="evenodd" clip-rule="evenodd" d="M178.763 103.929C177.826 101.91 174.925 103.151 175.712 105.088C176.147 106.159 177.094 106.385 177.85 106.108C177.949 106.64 178.019 107.178 178.111 107.65C178.392 109.089 178.614 110.526 178.789 111.969C179.152 114.965 179.228 117.96 179.387 120.947C179.544 123.895 179.684 126.849 179.682 129.782C179.68 132.267 179.842 135.281 179.05 137.57C180.947 132.835 181.228 127.433 180.919 122.167C180.612 116.945 180.142 111.166 178.046 106.024C178.743 105.67 179.198 104.868 178.763 103.929Z" fill="#F9EAB4"/>
<path opacity="0.5" fill-rule="evenodd" clip-rule="evenodd" d="M214.548 109.537C213.574 109.224 211.041 110.423 209.898 110.782C208.54 111.208 207.23 111.738 205.938 112.338C203.159 113.63 200.473 115.152 197.944 116.889C193.821 119.72 190.033 122.871 186.542 126.504C184.405 128.728 182.462 131.183 180.715 133.72C180.385 134.199 177.704 137.812 178.411 138.338C179.047 138.812 180.519 135.635 180.782 135.237C183.743 130.748 187.383 126.798 191.384 123.233C192.256 122.457 193.222 121.45 194.245 120.882C194.981 120.473 194.472 120.477 195.292 120.62C195.995 120.743 196.643 121.164 197.386 121.249C199 121.434 200.632 120.966 202.137 120.421C205.062 119.36 207.706 117.927 209.894 115.709C211.107 114.48 212.292 113.224 213.329 111.838C213.596 111.48 215.176 109.738 214.548 109.537Z" fill="#AC9569"/>
<path opacity="0.5" fill-rule="evenodd" clip-rule="evenodd" d="M226.949 89.4493C219.645 91.4469 212.365 94.3778 205.802 98.1497C201.825 100.435 198.027 103.06 194.256 105.665C188.417 109.699 182.629 113.783 177.382 118.578C172.104 123.401 165.81 128.759 162.63 135.29C166.715 129.508 172.736 125.011 177.821 120.159C180.249 117.842 182.78 115.675 185.381 113.558C187.904 111.505 190.573 109.617 193.207 107.709C194.49 106.78 195.78 105.862 197.073 104.947C197.459 104.674 198.455 103.718 198.889 103.7C199.325 103.682 200.494 104.656 200.997 104.824C202.011 105.163 203.124 105.32 204.19 105.377C206.234 105.487 208.43 105.161 210.41 104.655C214.99 103.485 219.163 100.654 222.433 97.2831C223.068 96.6288 228.937 88.6223 229.451 88.9408C229.455 88.8863 229.461 88.8323 229.47 88.7783C228.628 88.9948 227.788 89.2207 226.949 89.4493Z" fill="#F26158"/>
<path opacity="0.5" fill-rule="evenodd" clip-rule="evenodd" d="M182.132 75.5486C182.122 75.4467 182.071 74.7506 182.221 74.8756C181.916 74.621 182.379 75.6997 181.742 74.8436C181.936 75.447 181.43 75.8139 181.142 76.324C180.675 77.1521 180.359 78.055 180.067 78.9564C179.606 80.3813 179.285 81.8374 179.161 83.3309C178.892 86.5858 179.491 90.1922 180.947 93.1218C181.666 94.5682 182.654 95.4701 183.776 96.5714C184.484 97.2671 184.312 97.7369 184.309 98.7945C184.303 100.997 184.283 103.184 184.136 105.384C183.96 108.01 183.754 110.623 183.476 113.241C182.538 122.06 180.899 130.828 177.955 139.215C180.479 134.707 181.999 129.469 183.053 124.429C183.822 120.756 184.238 117.037 184.554 113.302C184.63 112.398 184.654 111.193 184.959 110.315C185.172 109.7 185.764 109.322 186.224 108.804C188.019 106.788 189.404 104.184 190.219 101.612C191.118 98.7766 190.3 96.7805 188.012 95.0485C187.175 94.4151 185.992 93.8268 185.371 92.9795C184.695 92.0565 185.085 90.4615 185.059 89.2855C184.989 86.1266 184.604 82.922 183.821 79.8615C183.604 79.0141 183.324 78.1881 182.989 77.3809C182.777 76.8717 182.185 76.0615 182.132 75.5486Z" fill="#F26158"/>
<path opacity="0.5" fill-rule="evenodd" clip-rule="evenodd" d="M184.847 136.639L176.018 131.778C175.621 131.559 175.122 131.704 174.903 132.1C174.884 132.136 174.867 132.172 174.853 132.21L172.987 137.213C172.419 138.738 173.054 140.449 174.479 141.234L177.677 142.995C179.103 143.78 180.889 143.402 181.874 142.106L185.104 137.855C185.378 137.494 185.308 136.979 184.947 136.705C184.915 136.68 184.882 136.659 184.847 136.639Z" fill="#F9EAB4"/>
</g>
<g clip-path="url(#clip0_5206_21918)">
<path fill-rule="evenodd" clip-rule="evenodd" d="M177.623 50.7717C178.214 50.8133 178.826 50.9579 179.319 51.2902C180.367 51.9968 180.429 53.4093 180.201 54.503C179.955 55.6802 179.454 56.921 180.167 58.0464C180.494 58.5638 180.942 58.9981 181.261 59.5221C181.602 60.082 181.835 60.6924 181.973 61.326C182.227 62.4896 182.208 63.7966 181.567 64.8413C181.003 65.761 179.893 66.4747 179.877 67.6419C179.859 68.8594 180.871 69.9893 181.442 71.0097C182.089 72.1645 182.616 73.5822 182.49 74.9075C182.37 76.1777 181.582 77.333 180.567 78.1136C178.537 79.6733 175.857 80.1107 173.337 79.6154C172.267 79.4051 171.064 79.1214 170.252 78.3666C170.001 78.1334 169.889 77.9046 169.773 77.5943C169.669 77.3161 169.499 77.1153 169.301 76.8941C168.865 76.4083 168.597 75.8157 168.474 75.1868C167.999 72.7441 169.274 70.0841 170.946 68.3215C171.342 67.9039 171.679 67.4936 171.642 66.897C171.603 66.2742 171.329 65.666 171.093 65.0914C170.861 64.5235 170.577 63.9697 170.424 63.375C170.264 62.7519 170.304 62.1397 170.473 61.5246C170.791 60.3692 171.507 59.3852 172.407 58.5811C173.274 57.8066 174.253 57.0947 174.486 55.9046C174.733 54.6432 174.108 53.3571 174.716 52.1441C174.968 51.6418 175.373 51.1548 175.916 50.9299C176.437 50.7141 177.067 50.7326 177.623 50.7717Z" fill="#B1D2D7"/>
<path fill-rule="evenodd" clip-rule="evenodd" d="M176.854 52.7153C176.897 52.548 177.118 52.4854 177.268 52.5603C177.465 52.659 177.423 52.8528 177.384 53.0251C177.263 53.5548 177.24 54.0877 177.268 54.6297C177.325 55.7566 177.625 56.8427 177.814 57.9511C178.003 59.0587 177.979 60.1596 177.539 61.2071C177.124 62.1948 176.59 63.1319 176.17 64.1199C175.799 64.9907 175.406 65.9086 175.526 66.8723C175.642 67.7998 176.133 68.6324 176.434 69.5088C177.055 71.3228 177.12 73.2139 176.814 75.0877C176.672 75.9578 176.479 76.8263 176.114 77.6358C175.903 78.102 175.62 78.7321 175.136 78.9881C174.913 79.1061 174.572 79.0958 174.454 78.8339C174.344 78.5883 174.542 78.2798 174.635 78.0589C175.039 77.1028 175.279 76.0923 175.425 75.0705C175.567 74.0806 175.641 73.0794 175.514 72.0832C175.397 71.1586 175.113 70.2937 174.749 69.4342C174.377 68.5582 173.985 67.6767 173.948 66.717C173.91 65.7422 174.272 64.8283 174.688 63.9601C175.127 63.0418 175.639 62.1663 176.163 61.2915C176.673 60.4391 176.959 59.5944 176.962 58.5992C176.968 56.6329 176.344 54.6652 176.854 52.7153Z" fill="#89A0B0"/>
<path fill-rule="evenodd" clip-rule="evenodd" d="M201.29 63.1926C201.787 63.7689 202.207 64.4572 202.346 65.2074C202.642 66.8028 201.395 68.1404 200.177 68.9237C198.867 69.7668 197.268 70.4353 196.874 72.1049C196.692 72.8724 196.697 73.6745 196.501 74.4398C196.292 75.2575 195.94 76.0241 195.48 76.7241C194.634 78.0097 193.41 79.1777 191.865 79.5409C190.505 79.8607 188.841 79.4973 187.748 80.5401C186.608 81.6279 186.48 83.5737 186.055 85.0194C185.573 86.6555 184.741 88.4206 183.403 89.5077C182.121 90.5497 180.341 90.8799 178.701 90.6624C175.423 90.2279 172.593 88.1832 170.769 85.4382C169.994 84.2727 169.167 82.9199 169.129 81.4958C169.118 81.0557 169.228 80.7463 169.409 80.3595C169.572 80.0125 169.604 79.676 169.629 79.2946C169.682 78.4568 169.987 77.6753 170.457 76.9937C172.283 74.3463 175.895 73.0964 179.036 73.0209C179.78 73.003 180.464 72.9385 180.982 72.3637C181.522 71.7638 181.835 70.9625 182.153 70.2271C182.467 69.5003 182.721 68.7395 183.132 68.0613C183.563 67.3509 184.165 66.8321 184.886 66.4284C186.241 65.6702 187.798 65.4307 189.355 65.5215C190.855 65.609 192.4 65.8558 193.71 64.989C195.098 64.0704 195.72 62.3345 197.391 61.789C198.083 61.5631 198.899 61.4903 199.599 61.7814C200.27 62.0606 200.823 62.6506 201.29 63.1926Z" fill="#B1D2D7"/>
<path fill-rule="evenodd" clip-rule="evenodd" d="M198.69 64.5199C198.883 64.4073 199.139 64.5515 199.205 64.7562C199.291 65.0256 199.075 65.164 198.881 65.2853C198.285 65.658 197.773 66.122 197.298 66.6409C196.312 67.7196 195.58 68.982 194.729 70.1641C193.879 71.3452 192.843 72.3259 191.481 72.8784C190.198 73.3994 188.855 73.7669 187.566 74.2833C186.43 74.7384 185.231 75.2164 184.451 76.2034C183.7 77.1534 183.375 78.3598 182.837 79.4316C181.725 81.6503 180.041 83.4317 178.039 84.8593C177.109 85.5221 176.135 86.1375 175.061 86.5416C174.442 86.7744 173.606 87.0899 172.935 86.8817C172.625 86.7858 172.328 86.4659 172.464 86.12C172.591 85.7955 173.054 85.6957 173.341 85.5795C174.585 85.0763 175.732 84.3748 176.805 83.5774C177.845 82.8052 178.834 81.9609 179.638 80.9381C180.384 79.9888 180.926 78.9427 181.39 77.8276C181.863 76.6914 182.323 75.5315 183.174 74.6233C184.038 73.7009 185.206 73.1986 186.38 72.7866C187.621 72.3508 188.888 72.0203 190.165 71.7007C191.41 71.3893 192.445 70.8809 193.365 69.9772C195.182 68.1919 196.434 65.8312 198.69 64.5199Z" fill="#89A0B0"/>
<path fill-rule="evenodd" clip-rule="evenodd" d="M168.591 60.6987C169.78 60.9294 170.702 61.7623 171.249 62.7961C171.888 64.0063 171.81 65.3173 171.911 66.6311C171.96 67.2848 172.134 67.9579 172.565 68.4793C172.957 68.9535 173.535 69.1453 174.058 69.4412C175.102 70.0325 175.828 71.1097 175.971 72.2796C176.145 73.7066 175.422 74.9712 175.237 76.3473C175.067 77.6111 176.147 78.6299 177.022 79.4214C177.885 80.2019 178.658 80.9258 178.729 82.1337C178.805 83.4148 178.645 84.7974 177.978 85.9191C176.869 87.7868 174.59 88.2617 172.528 88.0035C170.656 87.7691 168.371 87.1228 167.244 85.5123C166.569 84.5485 166.486 83.3677 166.74 82.2583C166.898 81.5684 167.17 80.9071 167.478 80.2706C167.696 79.8195 167.958 79.379 168.102 78.8969C168.485 77.6144 167.325 77.1287 166.366 76.5699C165.148 75.8599 164.4 74.8204 163.997 73.4963C163.621 72.2633 163.616 70.9602 164.211 69.7984C164.514 69.2051 164.954 68.6988 165.494 68.3005C165.732 68.1252 166.044 68.001 166.264 67.8111C166.471 67.6338 166.487 67.3555 166.478 67.0991C166.434 65.9148 165.795 64.817 165.72 63.629C165.653 62.5565 166.057 61.3164 167.118 60.839C167.576 60.6327 168.098 60.6061 168.591 60.6987Z" fill="#89A0B0"/>
<path fill-rule="evenodd" clip-rule="evenodd" d="M169.638 63.9651C170.637 65.5515 170.626 67.4386 170.384 69.2226C170.248 70.2231 169.987 71.2554 170.091 72.2716C170.18 73.1413 170.641 73.8825 171.127 74.5927C172.105 76.0223 173.219 77.4988 173.237 79.2965C173.248 80.3515 172.904 81.3724 172.996 82.4316C173.08 83.3944 173.365 84.3798 173.774 85.2585C174.104 85.9661 174.598 86.5548 174.977 87.2285C175.093 87.4341 175.257 87.7357 175.147 87.9728C175.018 88.2506 174.628 88.2708 174.373 88.1737C173.779 87.9475 173.376 87.2599 173.057 86.755C172.59 86.0167 172.221 85.2484 171.961 84.4165C171.673 83.4927 171.482 82.5349 171.509 81.5665C171.537 80.5619 171.814 79.5631 171.628 78.5576C171.315 76.8658 169.995 75.647 169.149 74.2114C168.094 72.4225 168.664 70.5618 169.167 68.7109C169.444 67.6937 169.745 66.5431 169.407 65.4996C169.278 65.1014 168.899 64.6799 168.893 64.2544C168.887 63.8647 169.389 63.5693 169.638 63.9651Z" fill="#7D90A8"/>
</g>
<path fill-rule="evenodd" clip-rule="evenodd" d="M113.948 47.4846C114.539 47.5262 115.151 47.6708 115.643 48.0031C116.691 48.7097 116.754 50.1222 116.526 51.2159C116.279 52.3931 115.778 53.6339 116.491 54.7593C116.819 55.2767 117.267 55.711 117.586 56.2349C117.926 56.7949 118.16 57.4053 118.298 58.0389C118.551 59.2025 118.533 60.5095 117.892 61.5542C117.327 62.4739 116.218 63.1876 116.201 64.3548C116.184 65.5723 117.195 66.7022 117.767 67.7226C118.414 68.8774 118.94 70.2951 118.815 71.6204C118.694 72.8906 117.907 74.0459 116.891 74.8264C114.862 76.3862 112.182 76.8236 109.662 76.3283C108.591 76.1179 107.389 75.8342 106.576 75.0795C106.325 74.8463 106.214 74.6175 106.098 74.3072C105.994 74.0289 105.824 73.8281 105.626 73.607C105.189 73.1212 104.921 72.5286 104.799 71.8997C104.324 69.457 105.599 66.797 107.27 65.0344C107.666 64.6168 108.004 64.2065 107.967 63.6098C107.928 62.9871 107.654 62.3789 107.418 61.8043C107.185 61.2364 106.901 60.6826 106.749 60.0879C106.589 59.4648 106.629 58.8526 106.798 58.2375C107.115 57.0821 107.832 56.0981 108.732 55.294C109.599 54.5195 110.578 53.8076 110.811 52.6175C111.058 51.3561 110.432 50.07 111.041 48.857C111.293 48.3547 111.697 47.8677 112.241 47.6428C112.762 47.427 113.391 47.4455 113.948 47.4846Z" fill="#C2B1D7"/>
<path fill-rule="evenodd" clip-rule="evenodd" d="M113.178 49.4282C113.222 49.2608 113.443 49.1982 113.592 49.2732C113.789 49.3719 113.748 49.5657 113.708 49.738C113.588 50.2677 113.565 50.8006 113.592 51.3426C113.65 52.4695 113.95 53.5556 114.139 54.664C114.328 55.7715 114.304 56.8725 113.864 57.92C113.448 58.9076 112.915 59.8448 112.495 60.8328C112.124 61.7035 111.731 62.6215 111.851 63.5851C111.966 64.5127 112.458 65.3453 112.758 66.2216C113.38 68.0357 113.445 69.9268 113.139 71.8006C112.997 72.6707 112.804 73.5392 112.438 74.3487C112.228 74.8148 111.945 75.445 111.46 75.701C111.237 75.819 110.897 75.8087 110.779 75.5468C110.668 75.3011 110.867 74.9927 110.96 74.7718C111.363 73.8157 111.603 72.8052 111.75 71.7833C111.891 70.7935 111.966 69.7923 111.839 68.796C111.721 67.8715 111.438 67.0066 111.073 66.1471C110.702 65.2711 110.31 64.3896 110.273 63.4299C110.235 62.4551 110.597 61.5411 111.012 60.673C111.452 59.7546 111.964 58.8792 112.487 58.0044C112.997 57.152 113.283 56.3073 113.286 55.3121C113.292 53.3458 112.669 51.3781 113.178 49.4282Z" fill="#2F4F65"/>
<path fill-rule="evenodd" clip-rule="evenodd" d="M104.915 57.4116C106.104 57.6423 107.027 58.4752 107.573 59.509C108.213 60.7192 108.135 62.0302 108.235 63.344C108.285 63.9977 108.458 64.6708 108.889 65.1922C109.282 65.6664 109.859 65.8582 110.382 66.1541C111.426 66.7454 112.153 67.8226 112.295 68.9924C112.469 70.4195 111.746 71.6841 111.561 73.0602C111.391 74.324 112.472 75.3428 113.347 76.1343C114.209 76.9148 114.983 77.6387 115.054 78.8466C115.129 80.1277 114.969 81.5103 114.303 82.632C113.193 84.4997 110.914 84.9746 108.852 84.7164C106.98 84.482 104.695 83.8357 103.568 82.2252C102.893 81.2614 102.811 80.0806 103.065 78.9712C103.223 78.2813 103.494 77.62 103.802 76.9835C104.02 76.5324 104.283 76.0919 104.427 75.6098C104.809 74.3273 103.65 73.8416 102.691 73.2828C101.472 72.5728 100.724 71.5333 100.321 70.2091C99.9455 68.9762 99.9405 67.6731 100.535 66.5113C100.838 65.918 101.278 65.4117 101.818 65.0134C102.056 64.8381 102.368 64.7139 102.589 64.524C102.795 64.3467 102.812 64.0684 102.802 63.812C102.758 62.6277 102.119 61.5299 102.045 60.3419C101.977 59.2694 102.381 58.0293 103.442 57.5519C103.901 57.3456 104.422 57.319 104.915 57.4116Z" fill="#89A0B0"/>
<path fill-rule="evenodd" clip-rule="evenodd" d="M105.962 60.678C106.961 62.2644 106.95 64.1515 106.708 65.9355C106.572 66.936 106.311 67.9683 106.415 68.9845C106.504 69.8542 106.966 70.5954 107.451 71.3056C108.429 72.7352 109.543 74.2117 109.561 76.0094C109.572 77.0644 109.228 78.0853 109.32 79.1445C109.404 80.1073 109.689 81.0927 110.099 81.9714C110.428 82.679 110.922 83.2677 111.301 83.9414C111.417 84.147 111.582 84.4486 111.471 84.6857C111.342 84.9635 110.952 84.9837 110.698 84.8866C110.104 84.6604 109.7 83.9728 109.381 83.4679C108.914 82.7296 108.545 81.9613 108.285 81.1294C107.997 80.2056 107.806 79.2478 107.833 78.2794C107.861 77.2748 108.138 76.276 107.952 75.2705C107.639 73.5787 106.319 72.3599 105.473 70.9243C104.418 69.1354 104.988 67.2747 105.491 65.4238C105.768 64.4066 106.07 63.2559 105.731 62.2125C105.602 61.8142 105.223 61.3927 105.217 60.9673C105.211 60.5776 105.713 60.2822 105.962 60.678Z" fill="#7D90A8"/>
<path fill-rule="evenodd" clip-rule="evenodd" d="M44.8893 112.248C45.2545 111.781 45.7165 111.355 46.2676 111.132C47.4396 110.659 48.6455 111.397 49.4242 112.198C50.2624 113.061 51.0106 114.17 52.3422 114.209C52.9544 114.226 53.5651 114.098 54.1777 114.127C54.8323 114.158 55.4691 114.305 56.0714 114.545C57.1777 114.986 58.2507 115.733 58.758 116.849C59.2047 117.831 59.1759 119.15 60.1339 119.816C61.1333 120.512 62.6358 120.306 63.8013 120.403C65.1203 120.512 66.5901 120.869 67.6184 121.714C68.604 122.524 69.1212 123.823 69.2001 125.102C69.3579 127.656 68.2214 130.123 66.4009 131.935C65.628 132.704 64.72 133.543 63.6401 133.794C63.3063 133.871 63.0541 133.836 62.7321 133.759C62.4433 133.689 62.1819 133.717 61.8876 133.758C61.2409 133.848 60.5997 133.739 60.0099 133.488C57.7193 132.516 56.2277 129.971 55.7016 127.6C55.5769 127.038 55.4256 126.528 54.9103 126.226C54.3724 125.909 53.7148 125.796 53.1068 125.67C52.5059 125.546 51.888 125.471 51.3096 125.265C50.7038 125.049 50.2186 124.673 49.8032 124.189C49.0231 123.28 48.6082 122.135 48.4451 120.94C48.288 119.788 48.2457 118.578 47.3895 117.719C46.4821 116.809 45.0661 116.608 44.4009 115.425C44.1255 114.935 43.9482 114.327 44.0657 113.751C44.1784 113.198 44.5458 112.687 44.8893 112.248Z" fill="#B1B3D7"/>
<path fill-rule="evenodd" clip-rule="evenodd" d="M46.0704 113.973C45.9562 113.844 46.0278 113.626 46.1736 113.543C46.3656 113.435 46.5029 113.578 46.6238 113.707C46.9956 114.103 47.4242 114.421 47.889 114.701C48.8552 115.284 49.9232 115.643 50.9479 116.106C51.9718 116.569 52.8709 117.204 53.4928 118.155C54.0792 119.052 54.5578 120.018 55.1415 120.919C55.6559 121.714 56.1971 122.553 57.063 122.993C57.8964 123.416 58.8616 123.474 59.756 123.715C61.6073 124.215 63.2112 125.219 64.5933 126.521C65.235 127.125 65.8471 127.771 66.3137 128.526C66.5824 128.962 66.9462 129.549 66.8876 130.093C66.8606 130.345 66.6615 130.621 66.3785 130.572C66.113 130.527 65.9685 130.189 65.8375 129.988C65.2706 129.119 64.5672 128.355 63.802 127.662C63.0608 126.991 62.2723 126.37 61.3756 125.917C60.5435 125.498 59.6679 125.249 58.7515 125.07C57.8177 124.888 56.8679 124.72 56.0514 124.214C55.2222 123.7 54.6671 122.889 54.1799 122.059C53.6645 121.181 53.2252 120.267 52.7929 119.344C52.3716 118.444 51.8315 117.734 51.0082 117.175C49.3817 116.07 47.4016 115.487 46.0704 113.973Z" fill="#C4DDEE"/>
<path fill-rule="evenodd" clip-rule="evenodd" d="M48.0664 125.286C48.9225 124.43 50.1289 124.131 51.2915 124.257C52.6524 124.403 53.6956 125.201 54.8406 125.853C55.4104 126.178 56.0652 126.41 56.7387 126.344C57.3512 126.284 57.8335 125.913 58.371 125.645C59.4452 125.11 60.7445 125.111 61.7939 125.647C63.074 126.301 63.7179 127.608 64.7551 128.531C65.7076 129.379 67.1566 129.053 68.3022 128.77C69.4317 128.492 70.4643 128.256 71.5053 128.872C72.6093 129.527 73.666 130.433 74.223 131.612C75.1504 133.577 74.2695 135.731 72.9018 137.297C71.6606 138.717 69.8465 140.25 67.881 140.283C66.7049 140.303 65.6798 139.711 64.9023 138.88C64.4188 138.363 64.0224 137.769 63.6671 137.157C63.4153 136.724 63.1969 136.26 62.8778 135.871C62.0289 134.836 60.9775 135.526 59.9779 136.008C58.7077 136.621 57.4278 136.66 56.1046 136.253C54.8725 135.875 53.7895 135.15 53.1589 134.007C52.8369 133.424 52.6632 132.776 52.6354 132.106C52.6231 131.81 52.6944 131.483 52.6606 131.193C52.6289 130.923 52.4075 130.754 52.1897 130.618C51.1836 129.992 49.9158 129.908 48.8895 129.305C47.963 128.761 47.1608 127.733 47.3587 126.586C47.4441 126.09 47.7136 125.643 48.0664 125.286Z" fill="#ACD0E9"/>
<path fill-rule="evenodd" clip-rule="evenodd" d="M51.3597 126.247C53.2336 126.306 54.7916 127.371 56.135 128.57C56.8883 129.242 57.5979 130.036 58.4986 130.518C59.2695 130.93 60.1418 130.963 61.0023 130.957C62.7344 130.946 64.5812 130.849 66.0815 131.839C66.962 132.421 67.616 133.277 68.5455 133.793C69.3905 134.262 70.3668 134.577 71.3241 134.729C72.095 134.852 72.8592 134.772 73.6299 134.834C73.8651 134.853 74.2071 134.885 74.342 135.109C74.5 135.372 74.2988 135.706 74.0758 135.863C73.5559 136.229 72.7602 136.179 72.1632 136.161C71.2901 136.135 70.4467 136.011 69.6118 135.761C68.6848 135.483 67.7841 135.106 66.9966 134.542C66.1796 133.956 65.5066 133.168 64.569 132.76C62.9915 132.073 61.243 132.485 59.5794 132.384C57.5067 132.258 56.2833 130.744 55.0304 129.292C54.3419 128.494 53.5569 127.6 52.5027 127.297C52.1002 127.181 51.539 127.259 51.1829 127.026C50.8567 126.813 50.8922 126.232 51.3597 126.247Z" fill="#7D90A8"/>
<path d="M65.9351 75.6187C65.9351 70.7217 69.9048 66.752 74.8018 66.752H178.462C183.359 66.752 187.329 70.7217 187.329 75.6187V134.3C187.329 139.197 183.359 143.167 178.462 143.167H74.8018C69.9048 143.167 65.9351 139.197 65.9351 134.3V75.6187Z" fill="#353B44"/>
<path d="M69.1597 78.8433C69.1597 73.9463 73.1294 69.9766 78.0264 69.9766H175.238C180.135 69.9766 184.105 73.9463 184.105 78.8433V131.077C184.105 135.974 180.135 139.943 175.238 139.943H78.0264C73.1294 139.943 69.1597 135.974 69.1597 131.077V78.8433Z" fill="#F9FBFD"/>
<path opacity="0.45" d="M74.8013 89.9671C74.8013 87.4741 76.8222 85.4531 79.3153 85.4531H98.6609C101.154 85.4531 103.175 87.4741 103.175 89.9671V129.303C103.175 131.796 101.154 133.817 98.6609 133.817H79.3153C76.8222 133.817 74.8013 131.796 74.8013 129.303V89.9671Z" fill="#5680F9"/>
<path opacity="0.45" d="M78.3481 90.4511C78.3481 89.4717 79.1421 88.6777 80.1215 88.6777H104.948C105.928 88.6777 106.722 89.4717 106.722 90.4511V92.0632C106.722 93.0426 105.928 93.8366 104.948 93.8366H80.1215C79.1421 93.8366 78.3481 93.0426 78.3481 92.0632V90.4511Z" fill="#5680F9"/>
<path opacity="0.45" d="M76.0913 97.6241C76.0913 97.0453 76.5605 96.5762 77.1392 96.5762H100.838C101.416 96.5762 101.885 97.0453 101.885 97.6241C101.885 98.2028 101.416 98.6719 100.838 98.6719H77.1392C76.5605 98.6719 76.0913 98.2028 76.0913 97.6241Z" fill="#5680F9"/>
<path opacity="0.45" d="M76.0913 102.944C76.0913 102.366 76.5605 101.896 77.1392 101.896H100.838C101.416 101.896 101.885 102.366 101.885 102.944C101.885 103.523 101.416 103.992 100.838 103.992H77.1392C76.5605 103.992 76.0913 103.523 76.0913 102.944Z" fill="#5680F9"/>
<path opacity="0.45" d="M113.009 117.292C113.009 116.713 113.478 116.244 114.057 116.244H120.666C121.245 116.244 121.714 116.713 121.714 117.292C121.714 117.871 121.245 118.34 120.666 118.34H114.057C113.478 118.34 113.009 117.871 113.009 117.292Z" fill="#5680F9"/>
<path opacity="0.45" d="M113.009 122.45C113.009 121.871 113.478 121.402 114.057 121.402H120.666C121.245 121.402 121.714 121.871 121.714 122.45C121.714 123.029 121.245 123.498 120.666 123.498H114.057C113.478 123.498 113.009 123.029 113.009 122.45Z" fill="#5680F9"/>
<path opacity="0.45" d="M113.009 125.837C113.009 125.258 113.478 124.789 114.057 124.789H120.666C121.245 124.789 121.714 125.258 121.714 125.837C121.714 126.416 121.245 126.885 120.666 126.885H114.057C113.478 126.885 113.009 126.416 113.009 125.837Z" fill="#5680F9"/>
<path opacity="0.45" d="M113.009 129.544C113.009 128.965 113.478 128.496 114.057 128.496H120.666C121.245 128.496 121.714 128.965 121.714 129.544C121.714 130.123 121.245 130.592 120.666 130.592H114.057C113.478 130.592 113.009 130.123 113.009 129.544Z" fill="#5680F9"/>
<path opacity="0.45" d="M125.422 117.292C125.422 116.713 125.892 116.244 126.47 116.244H133.08C133.659 116.244 134.128 116.713 134.128 117.292C134.128 117.871 133.659 118.34 133.08 118.34H126.47C125.892 118.34 125.422 117.871 125.422 117.292Z" fill="#5680F9"/>
<path opacity="0.45" d="M125.422 122.45C125.422 121.871 125.892 121.402 126.47 121.402H133.08C133.659 121.402 134.128 121.871 134.128 122.45C134.128 123.029 133.659 123.498 133.08 123.498H126.47C125.892 123.498 125.422 123.029 125.422 122.45Z" fill="#5680F9"/>
<path opacity="0.45" d="M125.422 125.837C125.422 125.258 125.892 124.789 126.47 124.789H133.08C133.659 124.789 134.128 125.258 134.128 125.837C134.128 126.416 133.659 126.885 133.08 126.885H126.47C125.892 126.885 125.422 126.416 125.422 125.837Z" fill="#5680F9"/>
<path opacity="0.45" d="M125.422 129.544C125.422 128.965 125.892 128.496 126.47 128.496H133.08C133.659 128.496 134.128 128.965 134.128 129.544C134.128 130.123 133.659 130.592 133.08 130.592H126.47C125.892 130.592 125.422 130.123 125.422 129.544Z" fill="#5680F9"/>
<path opacity="0.45" d="M137.836 117.292C137.836 116.713 138.305 116.244 138.884 116.244H145.494C146.072 116.244 146.541 116.713 146.541 117.292C146.541 117.871 146.072 118.34 145.494 118.34H138.884C138.305 118.34 137.836 117.871 137.836 117.292Z" fill="#5680F9"/>
<path opacity="0.45" d="M137.836 122.45C137.836 121.871 138.305 121.402 138.884 121.402H145.494C146.072 121.402 146.541 121.871 146.541 122.45C146.541 123.029 146.072 123.498 145.494 123.498H138.884C138.305 123.498 137.836 123.029 137.836 122.45Z" fill="#5680F9"/>
<path opacity="0.45" d="M137.836 125.837C137.836 125.258 138.305 124.789 138.884 124.789H145.494C146.072 124.789 146.541 125.258 146.541 125.837C146.541 126.416 146.072 126.885 145.494 126.885H138.884C138.305 126.885 137.836 126.416 137.836 125.837Z" fill="#5680F9"/>
<path opacity="0.45" d="M137.836 129.544C137.836 128.965 138.305 128.496 138.884 128.496H145.494C146.072 128.496 146.541 128.965 146.541 129.544C146.541 130.123 146.072 130.592 145.494 130.592H138.884C138.305 130.592 137.836 130.123 137.836 129.544Z" fill="#5680F9"/>
<path opacity="0.45" d="M150.25 117.292C150.25 116.713 150.719 116.244 151.297 116.244H157.907C158.486 116.244 158.955 116.713 158.955 117.292C158.955 117.871 158.486 118.34 157.907 118.34H151.297C150.719 118.34 150.25 117.871 150.25 117.292Z" fill="#5680F9"/>
<path opacity="0.45" d="M150.25 122.45C150.25 121.871 150.719 121.402 151.297 121.402H157.907C158.486 121.402 158.955 121.871 158.955 122.45C158.955 123.029 158.486 123.498 157.907 123.498H151.297C150.719 123.498 150.25 123.029 150.25 122.45Z" fill="#5680F9"/>
<path opacity="0.45" d="M150.25 125.837C150.25 125.258 150.719 124.789 151.297 124.789H157.907C158.486 124.789 158.955 125.258 158.955 125.837C158.955 126.416 158.486 126.885 157.907 126.885H151.297C150.719 126.885 150.25 126.416 150.25 125.837Z" fill="#5680F9"/>
<path opacity="0.45" d="M150.25 129.544C150.25 128.965 150.719 128.496 151.297 128.496H157.907C158.486 128.496 158.955 128.965 158.955 129.544C158.955 130.123 158.486 130.592 157.907 130.592H151.297C150.719 130.592 150.25 130.123 150.25 129.544Z" fill="#5680F9"/>
<path opacity="0.45" d="M162.663 117.292C162.663 116.713 163.132 116.244 163.71 116.244H170.32C170.899 116.244 171.368 116.713 171.368 117.292C171.368 117.871 170.899 118.34 170.32 118.34H163.71C163.132 118.34 162.663 117.871 162.663 117.292Z" fill="#5680F9"/>
<path opacity="0.45" d="M162.663 122.45C162.663 121.871 163.132 121.402 163.71 121.402H170.32C170.899 121.402 171.368 121.871 171.368 122.45C171.368 123.029 170.899 123.498 170.32 123.498H163.71C163.132 123.498 162.663 123.029 162.663 122.45Z" fill="#5680F9"/>
<path opacity="0.45" d="M162.663 125.837C162.663 125.258 163.132 124.789 163.71 124.789H170.32C170.899 124.789 171.368 125.258 171.368 125.837C171.368 126.416 170.899 126.885 170.32 126.885H163.71C163.132 126.885 162.663 126.416 162.663 125.837Z" fill="#5680F9"/>
<path opacity="0.45" d="M162.663 129.544C162.663 128.965 163.132 128.496 163.71 128.496H170.32C170.899 128.496 171.368 128.965 171.368 129.544C171.368 130.123 170.899 130.592 170.32 130.592H163.71C163.132 130.592 162.663 130.123 162.663 129.544Z" fill="#5680F9"/>
<path opacity="0.45" d="M76.0913 107.78C76.0913 107.202 76.5605 106.732 77.1392 106.732H89.3914C89.9702 106.732 90.4393 107.202 90.4393 107.78C90.4393 108.359 89.9702 108.828 89.3914 108.828H77.1392C76.5605 108.828 76.0913 108.359 76.0913 107.78Z" fill="#5680F9"/>
<path opacity="0.45" d="M76.0913 107.78C76.0913 107.202 76.5605 106.732 77.1392 106.732H100.838C101.416 106.732 101.885 107.202 101.885 107.78C101.885 108.359 101.416 108.828 100.838 108.828H77.1392C76.5605 108.828 76.0913 108.359 76.0913 107.78Z" fill="#5680F9"/>
<path opacity="0.45" d="M74.8013 78.0365C74.8013 76.6119 75.9561 75.457 77.3807 75.457H100.595C102.02 75.457 103.175 76.6119 103.175 78.0365V80.1322C103.175 81.5568 102.02 82.7116 100.595 82.7116H77.3807C75.9561 82.7116 74.8013 81.5568 74.8013 80.1322V78.0365Z" fill="#5680F9"/>
<path opacity="0.45" d="M109.946 117.05C109.946 115.626 111.101 114.471 112.525 114.471H173.948C175.372 114.471 176.527 115.626 176.527 117.05V129.947C176.527 131.372 175.372 132.527 173.948 132.527H112.525C111.101 132.527 109.946 131.372 109.946 129.947V117.05Z" fill="#5680F9"/>
<path opacity="0.45" d="M109.301 78.0365C109.301 76.6119 110.456 75.457 111.881 75.457H135.095C136.52 75.457 137.675 76.6119 137.675 78.0365V80.1322C137.675 81.5568 136.52 82.7116 135.095 82.7116H111.881C110.456 82.7116 109.301 81.5568 109.301 80.1322V78.0365Z" fill="#5680F9"/>
<path opacity="0.45" d="M142.833 78.0365C142.833 76.6119 143.988 75.457 145.413 75.457H173.948C175.372 75.457 176.527 76.6119 176.527 78.0365V80.1322C176.527 81.5568 175.372 82.7116 173.948 82.7116H145.413C143.988 82.7116 142.833 81.5568 142.833 80.1322V78.0365Z" fill="#5680F9"/>
<path opacity="0.45" d="M109.301 78.0365C109.301 76.6119 110.456 75.457 111.881 75.457H113.976C115.401 75.457 116.556 76.6119 116.556 78.0365V80.1322C116.556 81.5568 115.401 82.7116 113.976 82.7116H111.881C110.456 82.7116 109.301 81.5568 109.301 80.1322V78.0365Z" fill="#5680F9"/>
<path opacity="0.45" d="M135.58 94.0786C135.58 93.0547 136.41 92.2246 137.434 92.2246C138.457 92.2246 139.288 93.0547 139.288 94.0786C139.288 95.1025 138.457 95.9325 137.434 95.9325C136.41 95.9325 135.58 95.1025 135.58 94.0786Z" fill="#5680F9"/>
<path opacity="0.45" d="M140.254 94.0786C140.254 93.0547 141.084 92.2246 142.108 92.2246H174.674C175.697 92.2246 176.527 93.0547 176.527 94.0786C176.527 95.1025 175.697 95.9325 174.674 95.9325H142.108C141.084 95.9325 140.254 95.1025 140.254 94.0786Z" fill="#5680F9"/>
<path opacity="0.45" d="M135.58 101.977C135.58 100.953 136.41 100.123 137.434 100.123C138.457 100.123 139.288 100.953 139.288 101.977C139.288 103.001 138.457 103.831 137.434 103.831C136.41 103.831 135.58 103.001 135.58 101.977Z" fill="#5680F9"/>
<path opacity="0.45" d="M140.254 101.977C140.254 100.953 141.084 100.123 142.108 100.123H174.674C175.697 100.123 176.527 100.953 176.527 101.977C176.527 103.001 175.697 103.831 174.674 103.831H142.108C141.084 103.831 140.254 103.001 140.254 101.977Z" fill="#5680F9"/>
<path opacity="0.45" d="M135.58 109.553C135.58 108.529 136.41 107.699 137.434 107.699C138.457 107.699 139.288 108.529 139.288 109.553C139.288 110.577 138.457 111.407 137.434 111.407C136.41 111.407 135.58 110.577 135.58 109.553Z" fill="#5680F9"/>
<path opacity="0.45" d="M140.254 109.553C140.254 108.529 141.084 107.699 142.108 107.699H174.674C175.697 107.699 176.527 108.529 176.527 109.553C176.527 110.577 175.697 111.407 174.674 111.407H142.108C141.084 111.407 140.254 110.577 140.254 109.553Z" fill="#5680F9"/>
<path opacity="0.45" d="M142.833 78.0365C142.833 76.6119 143.988 75.457 145.413 75.457H156.537C157.961 75.457 159.116 76.6119 159.116 78.0365V80.1322C159.116 81.5568 157.961 82.7116 156.537 82.7116H145.413C143.988 82.7116 142.833 81.5568 142.833 80.1322V78.0365Z" fill="#5680F9"/>
<path opacity="0.45" d="M77.0586 127.368C77.0586 125.944 78.2134 124.789 79.638 124.789H98.1776C99.6022 124.789 100.757 125.944 100.757 127.368V129.464C100.757 130.889 99.6022 132.044 98.1776 132.044H79.638C78.2134 132.044 77.0586 130.889 77.0586 129.464V127.368Z" fill="#5680F9"/>
<path opacity="0.34" d="M128.91 95.9976C130.13 97.7889 130.71 99.9341 130.558 102.091C130.405 104.247 129.528 106.291 128.067 107.896C126.606 109.5 124.645 110.573 122.498 110.943C120.35 111.313 118.139 110.959 116.218 109.937C114.297 108.915 112.777 107.285 111.899 105.306C111.022 103.326 110.839 101.113 111.378 99.0183C111.918 96.9237 113.15 95.0688 114.877 93.7497C116.604 92.4305 118.727 91.7232 120.907 91.7405L120.828 101.413L128.91 95.9976Z" fill="#5680F9"/>
<path opacity="0.6" d="M122.961 89.4963C125.523 89.7839 127.865 91.0775 129.474 93.0924L121.876 99.1558L122.961 89.4963Z" fill="#5680F9"/>
<path fill-rule="evenodd" clip-rule="evenodd" d="M181.297 86.5324C181.977 85.734 182.437 84.7556 182.36 83.6593C182.138 80.5004 177.741 81.1953 176.886 82.7896C176.031 84.384 176.132 88.4281 177.238 88.713C177.679 88.8267 178.618 88.5483 179.574 87.9722L178.974 92.2167H182.516L181.297 86.5324Z" fill="#F4C89F"/>
<path fill-rule="evenodd" clip-rule="evenodd" d="M183.904 82.6081C184.018 82.4947 184.081 82.3329 184.135 82.1792C184.191 82.0196 184.245 81.8583 184.283 81.6921C184.357 81.3601 184.358 80.9783 184.121 80.7205C183.931 80.5138 183.646 80.4211 183.383 80.4009C183.208 80.3875 183.028 80.412 182.86 80.4672C182.693 80.522 182.549 80.6312 182.388 80.699C182.381 80.3412 182.32 79.9669 182.139 79.6614C181.964 79.3674 181.686 79.2025 181.368 79.1589C181.043 79.1141 180.721 79.1902 180.43 79.3478C180.357 79.3873 180.285 79.4286 180.216 79.4754C180.158 79.5146 180.098 79.5618 180.03 79.5777C179.954 79.5955 179.916 79.5518 179.867 79.4965C179.809 79.4317 179.744 79.3746 179.675 79.324C179.371 79.1003 178.972 79.0084 178.619 79.1424C178.457 79.2042 178.299 79.3091 178.189 79.4537C178.09 79.5826 178.02 79.787 177.885 79.8768C177.827 79.9149 177.787 79.8644 177.734 79.8271C177.655 79.771 177.58 79.7091 177.501 79.6546C177.389 79.5779 177.268 79.5206 177.138 79.4906C176.948 79.4467 176.686 79.457 176.632 79.7057C176.611 79.7991 176.627 79.899 176.633 79.9931C176.642 80.1223 176.652 80.2515 176.663 80.3806C176.672 80.4786 176.682 80.5732 176.701 80.6694C176.711 80.7207 176.742 80.8163 176.72 80.8677C176.692 80.9319 176.565 80.8954 176.511 80.8976C176.404 80.902 176.296 80.9208 176.197 80.9665C176.121 81.002 176.04 81.0541 176.008 81.1421C175.988 81.1961 175.993 81.2515 176.003 81.3071C176.014 81.3738 176.001 81.4092 175.992 81.4764C175.849 81.4056 175.351 81.2484 175.288 81.506C175.267 81.5918 175.314 81.6887 175.351 81.7611C175.414 81.888 175.498 82.004 175.583 82.1146C175.761 82.3453 175.973 82.5444 176.201 82.7146C175.934 82.8336 175.864 83.1844 176.096 83.3935C176.198 83.4858 176.335 83.5063 176.464 83.5004C176.512 83.4983 176.58 83.4801 176.617 83.4883C176.637 83.4927 176.658 83.5097 176.686 83.5116C176.868 83.5241 177.074 83.4802 177.252 83.4398C177.569 83.3678 177.869 83.2175 178.114 82.9887C178.177 82.9299 178.229 82.8962 178.314 82.897C178.388 82.8978 178.461 82.9181 178.535 82.92C178.731 82.925 178.908 82.8291 179.09 82.7653C179.101 83.0113 179.171 83.2823 179.272 83.5036C179.354 83.6841 179.525 83.7104 179.694 83.7262C180.232 83.7769 180.773 83.7203 181.312 83.7211C180.79 83.8391 180.251 83.8877 179.733 84.0265C179.499 84.0893 179.678 84.2469 179.778 84.3562C179.943 84.5361 180.065 84.759 180.15 84.9939C180.405 84.661 180.857 84.4417 181.257 84.544C181.698 84.6569 182.01 85.2544 181.727 85.6839C181.563 85.9333 181.267 86.0296 181.02 86.1367C181.213 86.3366 181.259 86.6318 181.375 86.8805C181.432 87.0032 181.512 87.1418 181.64 87.1846C181.687 87.2004 181.742 87.2017 181.779 87.2402C181.826 87.2879 181.837 87.3412 181.896 87.3822C182.131 87.5457 182.498 87.5331 182.707 87.3197C182.895 87.1267 182.846 86.8214 182.689 86.6257C182.939 86.5213 183.396 86.3869 183.296 85.9965C183.839 85.9604 185.158 85.0797 184.429 84.4362C184.829 84.2101 185.196 83.6576 184.939 83.1706C184.742 82.7956 184.281 82.628 183.904 82.6081Z" fill="#191847"/>
<path fill-rule="evenodd" clip-rule="evenodd" d="M201.593 110.713H177.721L174.593 145.426H210.128L201.593 110.713Z" fill="#C5CFD6"/>
<path fill-rule="evenodd" clip-rule="evenodd" d="M201.48 110.713H194.041L189.588 145.426H210.128L201.48 110.713Z" fill="black" fill-opacity="0.1"/>
<path fill-rule="evenodd" clip-rule="evenodd" d="M164.515 107.532C163.299 106.802 161.259 107.74 161.26 108.784C161.265 111.908 164.116 126.632 164.264 127.562C164.413 128.493 166.008 128.739 166.101 127.565C166.249 125.698 166.523 119.234 166.248 116.242C166.135 115.007 166.013 113.831 165.893 112.781C167.389 115.483 169.702 119.351 172.834 124.385L174.534 123.609C173.199 119.211 172.104 116.106 171.25 114.294C169.787 111.192 168.416 108.535 167.838 107.599C166.93 106.127 165.35 106.641 164.515 107.532Z" fill="#DCBDA3"/>
<path fill-rule="evenodd" clip-rule="evenodd" d="M174.413 121.167L168.578 107.346C167.181 105.097 163.262 107.803 163.738 109.107C164.821 112.068 170.324 121.653 170.647 122.535L174.413 121.167Z" fill="#760E24"/>
<path fill-rule="evenodd" clip-rule="evenodd" d="M174.737 122.738C175.1 123.037 175.337 123.281 175.446 123.471C175.579 123.701 175.735 124.06 175.914 124.546C175.646 124.701 173.243 126.088 168.704 128.709C168.159 128.198 168.074 127.801 168.449 127.519C168.824 127.236 169.134 126.998 169.378 126.804L171.866 123.375C171.914 123.309 172.006 123.295 172.072 123.342C172.074 123.343 172.075 123.344 172.076 123.345L172.593 123.743C173.067 123.702 173.421 123.614 173.655 123.479C173.845 123.369 174.063 123.141 174.309 122.795L174.309 122.795C174.403 122.662 174.587 122.63 174.72 122.725C174.726 122.729 174.731 122.733 174.737 122.738Z" fill="#1E0D86"/>
<path fill-rule="evenodd" clip-rule="evenodd" d="M166.474 126.816C166.64 127.257 166.722 127.587 166.722 127.805C166.722 128.072 166.678 128.46 166.589 128.971C166.28 128.971 163.505 128.971 158.264 128.971C158.048 128.255 158.172 127.869 158.639 127.812C159.105 127.755 159.492 127.704 159.8 127.658L163.67 125.933C163.744 125.9 163.831 125.933 163.865 126.007C163.865 126.009 163.866 126.01 163.866 126.011L164.115 126.615C164.546 126.816 164.897 126.917 165.167 126.917C165.386 126.917 165.689 126.828 166.075 126.651L166.075 126.651C166.223 126.583 166.398 126.648 166.466 126.796C166.469 126.803 166.472 126.809 166.474 126.816Z" fill="#1E0D86"/>
<path fill-rule="evenodd" clip-rule="evenodd" d="M160.852 109.847C160.852 113.768 162.715 122.915 162.716 123.779L166.723 123.782C166.136 115.62 165.928 111.495 166.099 111.407C166.355 111.275 176.586 112.428 179.655 112.428C184.08 112.428 185.911 109.638 186.059 104.469H177.293C175.508 104.66 166.199 106.537 162.741 107.183C161.261 107.459 160.852 108.766 160.852 109.847Z" fill="#D3002D"/>
<path fill-rule="evenodd" clip-rule="evenodd" d="M175.927 95.2739L170.803 92.4679C169.951 91.4561 169.112 90.6704 168.285 90.1106C168.032 90.0051 167.59 89.9413 168.004 90.6747C168.417 91.4081 168.819 92.1982 168.608 92.4241C168.398 92.6501 167.873 92.3344 167.621 92.7099C167.454 92.9602 168.351 93.3555 170.312 93.896L174.035 97.3046L175.927 95.2739ZM167.903 97.6415L165.652 96.4052C165.336 95.2036 164.959 94.5991 164.52 94.5915C164.182 94.4346 164.77 95.9529 164.13 95.8212C163.491 95.6895 161.93 94.5286 161.661 94.7643C161.263 95.113 161.618 96.1838 162.036 96.7165C162.817 97.712 163.464 98.0524 165.063 98.4983C165.899 98.7314 166.803 99.1986 167.774 99.8999L167.903 97.6415Z" fill="#FFD8B8"/>
<path fill-rule="evenodd" clip-rule="evenodd" d="M178.422 94.6484C176.628 94.6294 174.235 94.2504 171.681 92.6296L170.678 94.8658C172.44 96.6137 174.916 98.0499 177.082 97.989C178.788 97.9411 179.66 95.877 178.422 94.6484Z" fill="#353B44"/>
<path fill-rule="evenodd" clip-rule="evenodd" d="M176.006 98.2347C174.101 98.7098 170.906 98.1495 166.422 96.5538C165.309 98.855 164.795 100.496 164.879 101.475C168.726 103.485 172.023 104.381 174.74 104.44C174.653 106.052 174.849 107.586 175.508 108.987C176.863 111.868 184.797 109.2 187.465 109.725C189.135 104.3 185.905 102.095 185.903 98.6237C185.9 94.8221 182.847 88.9707 182.398 88.9707H178.303C178.077 91.874 176.939 95.0736 176.006 98.2347Z" fill="#7B8089"/>
<g clip-path="url(#clip1_5206_21918)">
<path fill-rule="evenodd" clip-rule="evenodd" d="M71.3545 114.412L76.1929 131.47L79.723 144.042H82.2978L78.5465 114.412H71.3545Z" fill="#6C76D0"/>
<path fill-rule="evenodd" clip-rule="evenodd" d="M70.0603 114.412C69.9484 123.204 69.5667 127.999 69.4492 128.798C69.3317 129.596 67.555 134.678 64.1191 144.042H66.7864C71.1606 135.059 73.6023 129.977 74.1117 128.798C74.6211 127.618 76.1931 122.823 78.5608 114.412H70.0603Z" fill="#A2AAEF"/>
<path fill-rule="evenodd" clip-rule="evenodd" d="M63.8809 146.456L64.0143 143.641H66.8169C68.1458 144.579 69.8807 145.339 72.0216 145.92V146.456H66.9503L65.2154 146.188V146.456H63.8809Z" fill="#191847"/>
<path fill-rule="evenodd" clip-rule="evenodd" d="M79.3613 146.456L79.4948 143.641H82.2973C83.6262 144.579 85.3611 145.339 87.5021 145.92V146.456H82.4308L80.6959 146.188V146.456H79.3613Z" fill="#191847"/>
</g>
<path fill-rule="evenodd" clip-rule="evenodd" d="M73.1635 99.8563C72.5726 99.1618 72.1727 98.3107 72.2395 97.357C72.4321 94.6092 76.252 95.2137 76.9951 96.6005C77.7382 97.9874 77.6499 101.505 76.6895 101.753C76.3066 101.852 75.4907 101.61 74.6603 101.109L75.1815 104.801H72.104L73.1635 99.8563Z" fill="#DBA576"/>
<path d="M77.8922 94.2038C78.1232 94.2608 78.2946 94.4529 78.3584 94.6772C78.4389 94.9606 78.3408 95.2602 78.1823 95.4979C78.1007 95.6202 78.0016 95.7306 77.8857 95.8213C77.9615 95.8699 78.0492 95.9206 78.0987 95.9984C78.1459 96.0726 78.1594 96.162 78.1507 96.2483C78.1398 96.3545 78.1017 96.4723 78.0568 96.5691C78.0135 96.6622 77.951 96.7456 77.8755 96.8153C77.948 96.8352 78.0082 96.8829 78.0434 96.9492C78.0614 96.9832 78.0693 97.0183 78.0776 97.0553L78.0783 97.0585C78.0886 97.104 78.1072 97.1473 78.1164 97.1936C78.1319 97.2723 78.1232 97.3513 78.0868 97.4232C78.0513 97.4934 77.9326 97.6055 77.8266 97.6487C77.7207 97.6919 77.3936 97.662 77.3496 97.6125C77.2511 97.5018 77.2161 97.3287 77.1601 97.1936C77.0845 97.0114 76.9916 96.8544 76.8783 96.6912C76.7643 96.5272 76.6231 96.377 76.4537 96.2693C76.4194 96.2475 76.3615 96.1874 76.3218 96.2105C76.2963 96.2253 76.2797 96.2702 76.263 96.2936C76.2418 96.3233 76.2161 96.3501 76.1898 96.3753C76.0698 96.49 75.9178 96.556 75.7631 96.61C75.607 96.6646 75.444 96.7103 75.3019 96.797C75.1712 96.8768 75.0871 97.0026 75.0338 97.1434C74.9802 97.2849 74.954 97.4346 74.913 97.5798C74.8598 97.7681 74.7845 97.9526 74.6912 98.1246C74.6483 98.2036 74.5988 98.2815 74.5294 98.34C74.4892 98.3739 74.3993 98.4427 74.3448 98.403C74.32 98.385 74.3237 98.3516 74.3164 98.3245C74.3047 98.2809 74.0662 97.8162 73.8559 97.7685C73.6559 97.7231 73.1527 97.7228 72.9848 97.8146C72.6243 98.0116 72.5794 98.4422 72.6888 98.8011C72.7387 98.9646 72.8116 99.1289 72.9309 99.2542C72.9823 99.3082 73.0505 99.3673 73.1233 99.3898C73.1976 99.4126 73.2935 99.4339 73.3723 99.4209C73.3653 99.4644 73.3531 99.5055 73.3573 99.5496C73.362 99.5986 73.3683 99.6468 73.3678 99.6961C73.3669 99.7907 73.3453 99.8813 73.3105 99.969C73.2926 100.014 73.2615 100.059 73.2567 100.106C73.2529 100.142 73.2561 100.18 73.251 100.217C73.2414 100.287 73.0739 102.184 73.0409 102.247C72.4761 103.975 71.5817 104.302 72.1999 101.882C71.3017 103.541 68.745 101.354 69.4657 99.9737C69.4571 99.9554 69.6526 99.9006 69.6337 99.8916C69.597 99.8742 69.562 99.853 69.5296 99.8284C69.4636 99.778 69.5037 99.6234 69.4657 99.5496C69.377 99.3772 69.4355 99.2973 69.4657 99.1094C69.4814 99.0116 69.3972 98.9985 69.4269 98.904C69.4416 98.8574 69.1891 98.7486 69.2069 98.703C69.2241 98.6588 69.2522 98.6139 69.2646 98.5684C69.2735 98.5359 69.2699 98.5541 69.2527 98.532C69.2456 98.5229 69.2348 98.5158 69.2265 98.5077C69.212 98.4934 69.1981 98.4786 69.1851 98.463C69.1599 98.4331 69.1377 98.4007 69.1186 98.3665C69.0813 98.2995 69.0568 98.226 69.0428 98.1508C69.0126 97.9889 69.0278 97.82 69.0584 97.6592C69.0771 97.5613 69.1067 97.4653 69.149 97.3749C69.1619 97.3471 69.1819 97.3196 69.1928 97.2912C69.2026 97.2657 69.1977 97.2657 69.1827 97.2414C69.1581 97.2018 69.1372 97.1599 69.1196 97.1168C69.0107 96.8499 69.0091 96.5382 69.1002 96.2662C69.187 96.007 69.3643 95.7767 69.6123 95.6538C69.6759 95.6223 69.7432 95.5982 69.8123 95.5818C69.8498 95.5729 69.8878 95.5663 69.926 95.5618C69.9371 95.5605 69.9663 95.5634 69.9735 95.5567C69.9788 95.5518 69.9797 95.5145 69.9814 95.5055C70.0091 95.3526 70.0753 95.2075 70.1773 95.0896C70.2781 94.973 70.4105 94.8868 70.5557 94.8359C70.5843 94.8258 70.5949 94.8254 70.6107 94.8024C70.623 94.7845 70.6291 94.7597 70.6384 94.7399C70.6576 94.699 70.6786 94.6589 70.7015 94.6199C70.7494 94.5386 70.8057 94.4623 70.8702 94.3932C70.9956 94.2588 71.1482 94.1276 71.3257 94.0691C71.42 94.038 71.5182 94.0329 71.6146 94.0581C71.6326 94.0629 71.8243 94.1369 71.8198 94.1489C71.8274 94.1288 71.8551 94.1126 71.8691 94.0967C71.893 94.0697 71.9121 94.0388 71.9332 94.0096C71.9821 93.942 72.043 93.8916 72.1127 93.8462C72.2577 93.7517 72.4259 93.6833 72.5971 93.6555C72.763 93.6285 72.9332 93.6429 73.0911 93.7013C73.1203 93.7121 73.1816 93.7546 73.2099 93.7541C73.2385 93.7537 73.3007 93.7078 73.3275 93.6963C73.4063 93.6626 73.4893 93.6369 73.5747 93.6264C73.7184 93.6087 73.861 93.6438 73.9841 93.7186C74.0162 93.7382 74.0126 93.729 74.0355 93.701C74.049 93.6845 74.063 93.6685 74.0774 93.6528C74.1013 93.6268 74.1264 93.6019 74.1522 93.5778C74.2013 93.5321 74.2529 93.4887 74.3071 93.4491C74.5629 93.2618 74.8582 93.2465 75.165 93.2442C75.4367 93.2422 75.7061 93.3081 75.9243 93.4757C75.9419 93.4893 75.9856 93.5433 76.0073 93.5467C76.0269 93.5499 76.0905 93.5017 76.11 93.4919C76.1751 93.4592 76.2419 93.4297 76.3108 93.4059C76.4438 93.3601 76.5835 93.3372 76.7242 93.3495C76.9813 93.3719 77.2288 93.4958 77.412 93.6753C77.5099 93.7712 77.5911 93.8851 77.6394 94.0138C77.6536 94.0516 77.6651 94.0903 77.6743 94.1295C77.6772 94.1421 77.6774 94.1684 77.6846 94.1791C77.6942 94.1936 77.7 94.1876 77.7207 94.1868C77.7783 94.1844 77.8362 94.19 77.8922 94.2038Z" fill="#0C371A"/>
<path fill-rule="evenodd" clip-rule="evenodd" d="M78.9979 116.408L77.3799 115.393C78.0539 111.845 79.4175 109.855 73.9458 107.942L75.8723 102.76C79.6675 105.441 81.1276 107.694 80.7073 112.363C80.2137 113.804 79.6451 115.275 78.9979 116.408Z" fill="#760E24"/>
<path d="M76.1396 102.743L72.8086 101.979L72.8068 101.977H72.5887C67.6716 106.427 67.8861 109.996 69.5294 116.357H78.9007C77.9646 112.14 76.1396 108.479 76.1396 102.743Z" fill="#D3002D"/>
<path fill-rule="evenodd" clip-rule="evenodd" d="M71.055 104.459C70.6595 107.429 72.6787 108.295 75.6919 105.169L72.8225 109.091C68.9918 109.192 71.055 104.459 71.055 104.459Z" fill="black" fill-opacity="0.2"/>
<path fill-rule="evenodd" clip-rule="evenodd" d="M68.7078 112.667C68.7078 112.667 74.5349 114.16 77.1295 110.1L78.8754 116.262L69.5295 116.262L68.7078 112.667Z" fill="black" fill-opacity="0.2"/>
<path d="M77.7387 104.337L77.7793 109.447L75.4013 108.873L76.4271 104.574C76.0005 102.847 75.9195 101.993 76.1844 102.014C76.5816 102.045 76.5641 102.58 76.8287 102.644C77.0933 102.708 76.6391 101.897 77.0266 101.267C77.414 100.638 77.5548 101.002 77.5821 101.24C77.5063 102.111 78.152 103.254 77.7387 104.337Z" fill="#C68A56"/>
<path fill-rule="evenodd" clip-rule="evenodd" d="M80.724 106.401L76.4104 104.45C76.4104 104.45 70.1558 111.479 70.8223 105.721L72.0969 102.396C68.3905 103.053 64.249 113.578 71.8489 113.734C77.0048 113.839 80.8635 110.044 80.724 106.401Z" fill="#D3002D"/>
<g clip-path="url(#clip2_5206_21918)">
<path fill-rule="evenodd" clip-rule="evenodd" d="M197.857 108.694C198.445 108.622 199.073 108.647 199.62 108.879C200.784 109.373 201.115 110.748 201.099 111.865C201.081 113.068 200.826 114.381 201.74 115.35C202.161 115.796 202.683 116.137 203.096 116.59C203.537 117.075 203.883 117.63 204.139 118.225C204.61 119.319 204.84 120.606 204.41 121.754C204.032 122.764 203.079 123.676 203.285 124.825C203.499 126.024 204.708 126.94 205.463 127.833C206.318 128.843 207.106 130.134 207.235 131.459C207.359 132.729 206.806 134.013 205.958 134.973C204.263 136.891 201.716 137.831 199.147 137.826C198.056 137.823 196.822 137.774 195.88 137.188C195.59 137.007 195.436 136.803 195.263 136.521C195.108 136.267 194.903 136.103 194.666 135.923C194.145 135.53 193.769 134.999 193.529 134.405C192.597 132.098 193.342 129.243 194.647 127.194C194.956 126.709 195.209 126.242 195.059 125.663C194.902 125.059 194.517 124.515 194.176 123.995C193.84 123.482 193.455 122.993 193.192 122.438C192.917 121.857 192.839 121.248 192.888 120.612C192.979 119.418 193.495 118.315 194.225 117.354C194.928 116.429 195.754 115.543 195.756 114.33C195.758 113.045 194.899 111.902 195.265 110.595C195.416 110.054 195.721 109.499 196.212 109.174C196.682 108.863 197.303 108.761 197.857 108.694Z" fill="#CFB1D7"/>
<path fill-rule="evenodd" clip-rule="evenodd" d="M197.472 110.749C197.483 110.577 197.688 110.473 197.849 110.518C198.061 110.578 198.057 110.776 198.052 110.953C198.035 111.495 198.113 112.023 198.244 112.55C198.515 113.645 199.016 114.654 199.413 115.706C199.81 116.757 199.996 117.843 199.764 118.955C199.544 120.004 199.199 121.025 198.975 122.075C198.777 123.001 198.566 123.977 198.868 124.9C199.158 125.788 199.799 126.512 200.261 127.315C201.217 128.977 201.641 130.821 201.698 132.719C201.724 133.6 201.7 134.49 201.496 135.354C201.378 135.852 201.22 136.524 200.794 136.868C200.597 137.026 200.261 137.081 200.095 136.847C199.94 136.626 200.076 136.286 200.125 136.051C200.339 135.036 200.382 133.998 200.331 132.967C200.281 131.968 200.163 130.971 199.849 130.018C199.557 129.132 199.114 128.337 198.592 127.563C198.061 126.774 197.508 125.983 197.289 125.048C197.066 124.099 197.247 123.132 197.489 122.201C197.746 121.216 198.081 120.259 198.428 119.3C198.767 118.366 198.887 117.482 198.7 116.505C198.331 114.573 197.344 112.761 197.472 110.749Z" fill="#A689B0"/>
<path fill-rule="evenodd" clip-rule="evenodd" d="M223.458 116.375C224.055 116.846 224.599 117.442 224.879 118.152C225.474 119.661 224.503 121.212 223.458 122.213C222.332 123.29 220.89 124.252 220.821 125.966C220.789 126.754 220.947 127.54 220.901 128.329C220.851 129.171 220.652 129.991 220.333 130.766C219.748 132.189 218.769 133.569 217.322 134.22C216.047 134.793 214.345 134.753 213.471 135.986C212.558 137.271 212.804 139.205 212.662 140.706C212.501 142.403 212.02 144.295 210.914 145.617C209.854 146.884 206.336 145.518 204.685 145.617C201.384 145.815 200.05 146.377 197.736 144.03C196.754 143.034 195.684 141.863 195.375 140.473C195.28 140.043 195.329 139.718 195.433 139.304C195.527 138.932 195.494 138.596 195.446 138.217C195.339 137.384 195.489 136.559 195.821 135.8C197.109 132.853 200.416 130.938 203.485 130.265C204.212 130.105 204.871 129.912 205.27 129.249C205.686 128.557 205.841 127.711 206.012 126.928C206.182 126.155 206.287 125.359 206.561 124.615C206.849 123.836 207.34 123.212 207.971 122.678C209.156 121.676 210.64 121.144 212.186 120.936C213.675 120.736 215.238 120.684 216.359 119.583C217.547 118.417 217.826 116.594 219.363 115.74C219.999 115.387 220.786 115.16 221.529 115.312C222.241 115.458 222.896 115.932 223.458 116.375Z" fill="#D7D3B1"/>
<path fill-rule="evenodd" clip-rule="evenodd" d="M221.158 118.173C221.327 118.026 221.606 118.118 221.709 118.307C221.845 118.555 221.659 118.732 221.492 118.888C220.978 119.367 220.563 119.921 220.196 120.52C219.433 121.767 218.956 123.146 218.346 124.469C217.737 125.79 216.906 126.95 215.675 127.752C214.514 128.508 213.266 129.125 212.099 129.878C211.071 130.541 209.985 131.239 209.407 132.356C208.851 133.432 208.762 134.678 208.439 135.833C207.77 138.223 206.456 140.293 204.763 142.076C203.976 142.904 203.138 143.693 202.16 144.295C201.597 144.641 200.837 145.11 200.138 145.034C199.815 144.999 199.463 144.741 199.53 144.376C199.593 144.033 200.028 143.847 200.288 143.678C201.413 142.947 202.406 142.04 203.307 141.052C204.18 140.096 204.991 139.079 205.585 137.921C206.137 136.847 206.469 135.717 206.712 134.534C206.96 133.329 207.19 132.102 207.852 131.049C208.525 129.978 209.576 129.263 210.649 128.635C211.785 127.97 212.966 127.404 214.159 126.847C215.321 126.304 216.241 125.607 216.971 124.545C218.415 122.446 219.194 119.89 221.158 118.173Z" fill="#B09589"/>
<path fill-rule="evenodd" clip-rule="evenodd" d="M190.883 120.16C192.094 120.16 193.158 120.802 193.892 121.713C194.75 122.779 194.924 124.081 195.272 125.351C195.446 125.983 195.744 126.611 196.267 127.041C196.743 127.431 197.346 127.51 197.916 127.7C199.053 128.082 199.972 129.001 200.335 130.122C200.777 131.49 200.308 132.869 200.389 134.255C200.463 135.528 201.718 136.322 202.728 136.933C203.724 137.534 204.621 138.098 204.921 139.27C205.239 140.513 205.346 141.901 204.905 143.129C204.172 145.174 202.025 146.075 199.952 146.214C198.07 146.341 195.703 146.142 194.29 144.776C193.444 143.958 193.137 142.815 193.175 141.677C193.199 140.97 193.339 140.269 193.52 139.586C193.649 139.101 193.822 138.619 193.872 138.118C194.003 136.786 192.772 136.53 191.724 136.165C190.393 135.7 189.46 134.822 188.812 133.599C188.208 132.46 187.955 131.182 188.317 129.928C188.502 129.288 188.837 128.707 189.292 128.213C189.492 127.996 189.774 127.814 189.955 127.586C190.123 127.372 190.087 127.096 190.028 126.846C189.76 125.692 188.923 124.736 188.623 123.584C188.353 122.544 188.513 121.25 189.464 120.579C189.874 120.289 190.381 120.163 190.883 120.16Z" fill="#89A0B0"/>
<path fill-rule="evenodd" clip-rule="evenodd" d="M192.533 123.167C193.816 124.534 194.165 126.388 194.267 128.186C194.324 129.194 194.265 130.257 194.561 131.235C194.814 132.072 195.408 132.711 196.021 133.316C197.253 134.533 198.628 135.77 198.988 137.531C199.2 138.565 199.057 139.633 199.349 140.655C199.615 141.584 200.083 142.497 200.652 143.282C201.11 143.913 201.707 144.397 202.208 144.986C202.361 145.166 202.58 145.431 202.517 145.684C202.443 145.982 202.065 146.076 201.796 146.029C201.17 145.92 200.642 145.322 200.233 144.887C199.634 144.252 199.125 143.568 198.712 142.801C198.252 141.949 197.883 141.045 197.725 140.089C197.561 139.097 197.642 138.064 197.268 137.113C196.638 135.511 195.11 134.567 194.006 133.319C192.629 131.764 192.835 129.828 192.976 127.915C193.053 126.864 193.13 125.677 192.599 124.717C192.396 124.351 191.944 124.009 191.857 123.593C191.777 123.211 192.213 122.826 192.533 123.167Z" fill="#7D90A8"/>
</g>
<defs>
<clipPath id="clip0_5206_21918">
<rect width="37.9341" height="42.4469" fill="white" transform="translate(168.101 48.8867) rotate(10.9879)"/>
</clipPath>
<clipPath id="clip1_5206_21918">
<rect width="23.6215" height="32.0431" fill="white" transform="translate(63.8809 114.412)"/>
</clipPath>
<clipPath id="clip2_5206_21918">
<rect width="37.9341" height="42.4469" fill="white" transform="translate(188.15 108.658)"/>
</clipPath>
</defs>
</svg>
