<svg width="242" height="157" viewBox="0 0 242 157" fill="none" xmlns="http://www.w3.org/2000/svg">
<path d="M158.96 144.464C160.636 144 161.006 144 163.53 144H216.956C219.48 144 219.791 144.048 221.526 144.464C223.761 144.999 223.202 146.997 221.526 147.533C219.835 148.073 219.48 147.996 216.956 147.996H163.53C161.006 147.996 160.636 147.996 158.96 147.533C157.68 147.178 157.68 144.818 158.96 144.464Z" fill="#CDE1DE"/>
<path opacity="0.2" fill-rule="evenodd" clip-rule="evenodd" d="M154.05 2.46984C154.77 2.1128 155.73 2.52689 155.329 3.47076C154.9 4.4815 153.314 4.49399 152.419 4.47395C152.508 4.46925 152.797 3.54239 152.896 3.40233C153.187 2.98917 153.607 2.68974 154.05 2.46984ZM145.759 20.8863C145.505 21.1037 145.738 20.9067 145.759 20.8863V20.8863ZM154.886 7.16258C155.317 7.48843 155.337 8.06413 154.985 8.45399C154.566 8.91811 153.801 8.90161 153.23 8.85669C152.972 8.83635 151.593 8.72767 151.92 8.50397C151.894 8.51339 151.842 8.53625 151.786 8.56731C151.755 8.67678 151.724 8.78587 151.69 8.89447C151.698 8.89916 151.705 8.9042 151.714 8.90887C151.705 8.9048 151.698 8.90039 151.69 8.89627C151.358 9.98174 150.885 11.0154 150.266 11.9825C150.498 11.8921 150.737 11.8237 150.98 11.7932C151.7 11.7027 153.213 12.2557 152.408 13.205C151.636 14.115 150.435 13.1397 149.559 13.0056C148.709 14.1803 147.771 15.3061 146.789 16.3944C146.849 16.413 146.902 16.4519 146.932 16.5124C147.326 16.3143 147.737 16.031 148.101 15.9542C148.627 15.8435 149.706 15.776 150.103 16.242C150.592 16.8151 150.067 17.281 149.49 17.3912C148.652 17.5511 147.556 17.1464 146.75 16.873C146.658 16.8891 146.557 16.8625 146.497 16.7895C146.479 16.7837 146.461 16.778 146.444 16.7725C145.449 17.8555 144.417 18.9027 143.39 19.927C143.401 19.9265 143.412 19.9258 143.424 19.9252C143.691 19.7512 143.978 19.6085 144.29 19.5336C145.009 19.3595 145.856 19.3583 146.44 19.8737C147.021 20.3869 147.227 21.2849 146.625 21.8619C145.42 23.0168 143.646 20.3859 143.038 20.2763C141.995 21.3063 140.892 22.2687 139.772 23.2117C139.899 23.1733 140.03 23.1451 140.165 23.1323C141.263 23.0277 143.839 24.3594 142.491 25.6716C141.316 26.8151 139.958 24.616 139.012 23.8472C137.957 24.7261 136.896 25.5991 135.864 26.506C136.427 26.3578 136.97 26.3357 137.573 26.5158C138.196 26.7025 139.203 27.1684 138.808 28.0026C138.406 28.851 137.198 28.4657 136.569 28.1967C136.225 28.05 135.537 27.5547 134.933 27.3462C133.287 28.8853 131.861 30.5804 130.781 32.5769C130.107 33.8234 129.595 35.1551 129.235 36.5237C129.004 37.3973 128.551 38.8645 128.641 40.0013C128.211 37.726 128.993 34.9926 129.835 32.9582C130.609 31.0875 131.767 29.445 133.123 27.9664C132.784 26.9534 129.921 25.4935 131.633 24.5513C132.542 24.0531 133.473 24.8785 133.671 25.753C133.807 26.354 133.599 27.1094 133.378 27.6929C133.805 27.2421 134.248 26.8059 134.705 26.3841C135.337 25.8011 135.983 25.235 136.636 24.6761C135.561 23.6762 134.545 20.8166 135.987 20.3481C138.117 19.6583 137.09 23.5601 136.941 24.2914C136.898 24.2938 136.866 24.2812 136.841 24.2542C136.853 24.3212 136.867 24.3928 136.884 24.4649C138.134 23.4008 139.402 22.3575 140.628 21.2679C140.517 21.1871 140.342 20.8783 140.204 20.714C139.893 20.3435 139.595 19.9565 139.378 19.5231C139.034 18.8381 138.703 17.7454 139.615 17.3419C140.607 16.9023 141.077 18.1381 141.084 18.8755C141.088 19.3855 140.948 19.87 140.874 20.3699C140.851 20.5258 140.939 21.2285 140.725 20.9263C140.735 21.0377 140.736 21.1185 140.731 21.1757C140.951 20.9791 141.17 20.7804 141.387 20.5802C141.377 20.5549 141.369 20.5274 141.368 20.4955C141.356 20.2757 141.58 20.1909 141.736 20.2552C142.023 19.9856 142.306 19.7126 142.585 19.4342C143.175 18.8444 143.774 18.2377 144.369 17.6181C144.24 17.5084 144.292 17.3564 144.171 17.24C144.051 17.1238 143.814 17.0596 143.672 16.9517C143.316 16.6801 143.021 16.2843 142.807 15.8948C142.455 15.2511 142 13.9008 143.03 13.5934C144.092 13.2761 144.631 14.5759 144.699 15.3887C144.712 15.5462 144.592 16.9651 144.501 17.4804C145.602 16.3289 146.684 15.1343 147.665 13.919C147.368 13.9164 146.526 13.3137 146.355 13.1492C145.94 12.748 145.279 11.8613 146.008 11.3916C146.657 10.9749 147.455 11.5775 147.732 12.1634C147.777 12.2599 147.938 13.158 147.95 13.5609C148.356 13.0455 148.743 12.5272 149.104 12.0071C149.344 11.6613 149.569 11.3065 149.779 10.9441C149.728 10.9157 149.681 10.8663 149.636 10.8047C148.555 10.6236 147.178 8.95437 148.448 8.37269C149.052 8.0961 149.707 8.66608 150.003 9.13285C150.064 9.22834 150.162 9.70855 150.242 10.0873C150.846 8.88676 151.309 7.61584 151.661 6.31282C151.567 6.28973 151.487 6.2186 151.477 6.09618C150.952 5.8002 150.538 5.55373 150.172 4.98424C149.944 4.63051 149.535 3.8223 150.204 3.62556C151.074 3.36958 151.62 4.6855 151.691 5.33376C151.699 5.409 151.699 5.62787 151.696 5.82843C151.726 5.82434 151.756 5.82479 151.786 5.83001C151.987 5.02317 152.146 4.20597 152.274 3.38741C151.799 3.23627 151.718 0.766211 152.034 0.414336C152.742 -0.373552 153.24 0.763818 153.202 1.36509C153.157 2.07406 152.832 2.71912 152.445 3.29166C152.404 3.35229 152.416 3.34934 152.405 3.26492C152.399 3.30665 152.385 3.33746 152.364 3.35978C152.384 3.73294 152.423 4.11499 152.404 4.44522C152.35 5.39091 152.238 6.34214 152.076 7.27571C152.037 7.50276 151.992 7.72797 151.941 7.95123C152.323 7.62897 152.838 7.34256 153.039 7.25297C153.562 7.02069 154.368 6.76977 154.886 7.16258ZM128.556 39.9115C128.581 40.2154 128.656 40.4927 128.803 40.72C128.695 40.4602 128.614 40.1898 128.556 39.9115Z" fill="#C1DEE2"/>
<g opacity="0.5">
<path opacity="0.5" fill-rule="evenodd" clip-rule="evenodd" d="M147.488 33.4327C148.35 32.2039 149.949 29.0833 151.162 28.6442C151.943 28.3614 151.716 31.2868 151.725 31.8446C151.763 34.0027 151.553 36.147 151.293 38.287C150.826 42.1464 149.297 45.5835 147.201 48.8682C146.122 50.5584 144.857 52.2691 143.105 53.3237C142.298 53.8094 141.327 53.8907 140.531 54.3091C139.603 54.7962 140.108 54.4025 139.69 55.3693C139.109 56.7116 138.924 58.4433 138.655 59.8755C137.421 66.4505 134.435 101.207 134.953 107.895C134.999 108.488 134.172 108.63 134.131 107.906C133.911 104.069 135.809 77.4969 136.767 68.8071C137.724 60.1173 138.693 52.4403 139.665 49.4339C140.843 45.7865 142.972 41.4002 144.744 37.9989C145.567 36.4187 146.464 34.8929 147.488 33.4327Z" fill="#69A1AC"/>
<path opacity="0.5" fill-rule="evenodd" clip-rule="evenodd" d="M153.885 76.053C156.127 74.4067 158.554 77.5138 156.525 79.1603C155.403 80.0704 154.231 79.7467 153.57 78.9882C153.142 79.5107 152.741 80.0569 152.355 80.5183C151.181 81.9242 150.071 83.3637 149.01 84.8368C146.806 87.897 144.918 91.1301 142.943 94.3041C140.995 97.4366 139.062 100.585 137.296 103.797C135.799 106.518 133.805 109.72 133.293 112.703C134.07 106.376 137.019 100.295 140.531 94.7167C144.015 89.1847 148.012 83.1432 153.406 78.7775C152.857 77.9703 152.842 76.818 153.885 76.053Z" fill="#C1DEE2"/>
<path opacity="0.5" fill-rule="evenodd" clip-rule="evenodd" d="M111.333 60.6235C112.588 60.8689 114.639 63.7076 115.673 64.7891C116.902 66.0744 118.017 67.4443 119.069 68.8797C121.332 71.9692 123.356 75.254 125.077 78.6794C127.883 84.2636 130.131 89.996 131.762 96.0768C132.761 99.7991 133.407 103.657 133.79 107.488C133.863 108.211 134.62 113.781 133.529 113.931C132.547 114.067 132.85 109.702 132.803 109.108C132.267 102.409 130.664 95.8917 128.433 89.5779C127.947 88.2026 127.495 86.518 126.718 85.2802C126.159 84.3887 126.714 84.6996 125.731 84.3622C124.886 84.0724 123.924 84.1432 123.06 83.7884C121.181 83.018 119.677 81.5224 118.358 80.0181C115.796 77.0946 113.766 73.9318 112.707 70.1857C112.12 68.1086 111.58 66.0194 111.281 63.8781C111.204 63.3247 110.525 60.4654 111.333 60.6235Z" fill="#69A1AC"/>
<path opacity="0.5" fill-rule="evenodd" clip-rule="evenodd" d="M116.285 13.3928C121.012 21.5902 124.896 30.5948 127.404 39.7152C128.924 45.2411 129.986 50.9115 131.042 56.5409C132.677 65.2574 134.223 73.9732 134.663 82.8445C135.106 91.7673 135.981 102.059 133.059 110.653C134.519 101.927 133.129 92.64 132.883 83.8606C132.766 79.6694 132.425 75.5193 131.978 71.3526C131.544 67.3108 130.836 63.2881 130.176 59.278C129.855 57.325 129.517 55.375 129.173 53.426C129.071 52.8445 129.027 51.119 128.659 50.7218C128.287 50.3219 126.393 50.1589 125.799 49.8656C124.601 49.2746 123.475 48.4353 122.478 47.5484C120.567 45.8482 118.904 43.6268 117.592 41.437C114.556 36.37 113.342 30.1865 113.404 24.3183C113.415 23.179 115.248 10.9102 114.512 10.7413C114.556 10.6894 114.598 10.6358 114.638 10.5801C115.195 11.5129 115.741 12.452 116.285 13.3928Z" fill="#FF2B2B"/>
<path opacity="0.5" fill-rule="evenodd" clip-rule="evenodd" d="M167.302 42.9573C167.375 42.8521 167.85 42.1205 167.611 42.1673C168.098 42.0721 166.942 42.9741 168.154 42.4206C167.579 42.9644 167.911 43.6708 167.919 44.4026C167.931 45.5909 167.732 46.7693 167.508 47.932C167.155 49.7699 166.628 51.5569 165.863 53.2664C164.197 56.9917 161.367 60.578 158.007 62.9071C156.349 64.057 154.723 64.4485 152.832 64.9779C151.637 65.3124 151.542 65.9304 150.908 67.0899C149.588 69.5047 148.291 71.9109 147.126 74.4072C145.736 77.388 144.386 80.3722 143.113 83.4055C138.824 93.6232 135.332 104.209 133.499 115.164C133.454 108.708 134.948 102.059 136.831 95.9057C138.204 91.4224 139.99 87.1007 141.896 82.8227C142.357 81.7863 143.057 80.4532 143.253 79.3089C143.39 78.5073 142.971 77.7363 142.778 76.8917C142.029 73.603 142.083 69.9185 142.741 66.6122C143.466 62.9663 145.564 61.2742 149.113 60.7578C150.411 60.5689 152.06 60.6381 153.251 60.0847C154.547 59.4821 155.082 57.5012 155.819 56.2297C157.8 52.8141 160.153 49.5383 162.854 46.6603C163.602 45.8634 164.407 45.1281 165.261 44.4467C165.799 44.0167 166.936 43.487 167.302 42.9573Z" fill="#C7CC89"/>
<path opacity="0.5" fill-rule="evenodd" clip-rule="evenodd" d="M127.508 108.191H140.103C140.669 108.191 141.128 108.65 141.128 109.217C141.128 109.267 141.125 109.317 141.117 109.366L140.144 115.967C139.847 117.979 138.12 119.47 136.086 119.47H131.525C129.491 119.47 127.764 117.979 127.467 115.967L126.494 109.366C126.411 108.806 126.799 108.285 127.359 108.202C127.408 108.195 127.458 108.191 127.508 108.191Z" fill="#C1DEE2"/>
</g>
<path opacity="0.2" fill-rule="evenodd" clip-rule="evenodd" d="M38.9526 29.8828C39.4111 29.2227 40.4517 29.1224 40.5562 30.1424C40.668 31.2347 39.2849 32.0106 38.4907 32.425C38.567 32.3777 38.3727 31.4265 38.3917 31.2562C38.4477 30.7537 38.6709 30.2889 38.9526 29.8828ZM40.5737 50.0142C40.4558 50.3273 40.5654 50.042 40.5737 50.0142V50.0142ZM41.9493 33.5898C42.4836 33.6676 42.779 34.1621 42.6587 34.6734C42.5154 35.2822 41.8373 35.6367 41.3154 35.8728C41.0794 35.9796 39.8188 36.5497 39.9974 36.196C39.9799 36.2164 39.9449 36.2617 39.9106 36.3161C39.9369 36.4266 39.9616 36.5375 39.985 36.6486C39.9943 36.6488 40.0028 36.6499 40.0127 36.6498C40.0025 36.6507 39.9946 36.6501 39.9853 36.6504C40.2179 37.7615 40.3025 38.895 40.227 40.0406C40.3861 39.8499 40.563 39.6743 40.7611 39.5304C41.3478 39.104 42.9403 38.8584 42.6927 40.0784C42.4552 41.248 40.9327 40.9731 40.1008 41.278C39.9227 42.7171 39.6448 44.1554 39.3093 45.5825C39.371 45.5698 39.436 45.5784 39.4916 45.6168C39.7411 45.2533 39.9641 44.8071 40.2463 44.564C40.6537 44.2133 41.5658 43.634 42.1386 43.8506C42.8431 44.1168 42.6085 44.7779 42.1556 45.1531C41.499 45.6972 40.3435 45.8714 39.5058 46.0206C39.4329 46.0793 39.3319 46.1045 39.244 46.0695C39.2256 46.073 39.2073 46.0767 39.1895 46.0802C38.8406 47.5086 38.4411 48.9241 38.0361 50.3164C38.0454 50.3107 38.0547 50.3048 38.0644 50.2988C38.2149 50.0173 38.3976 49.7537 38.634 49.5381C39.1806 49.0384 39.9217 48.6288 40.6818 48.7987C41.4387 48.9678 42.052 49.6552 41.8028 50.4511C41.3041 52.0441 38.4813 50.5951 37.8962 50.7922C37.4794 52.1976 36.9776 53.5726 36.4513 54.9389C36.5441 54.844 36.6447 54.7563 36.7567 54.6801C37.668 54.0589 40.5672 53.9827 40.0192 55.7824C39.5418 57.3507 37.2915 56.0794 36.0921 55.8622C35.5915 57.1412 35.0829 58.4178 34.6168 59.7098C35.038 59.3087 35.5034 59.0272 36.1182 58.8943C36.7546 58.7569 37.8608 58.6797 37.9174 59.6008C37.975 60.5377 36.7305 60.783 36.0494 60.851C35.678 60.8881 34.8363 60.7861 34.2063 60.895C33.5069 63.0372 33.0754 65.2099 33.0925 67.4797C33.1033 68.8968 33.2973 70.3102 33.6417 71.6829C33.8616 72.5591 34.1723 74.063 34.7995 75.0154C33.3248 73.23 32.6913 70.4583 32.4476 68.2701C32.2234 66.258 32.4456 64.2606 32.9203 62.3112C32.1342 61.5876 28.9227 61.6895 29.9679 60.0383C30.524 59.1634 31.7372 59.4376 32.3327 60.108C32.7419 60.5688 32.9237 61.3309 33.0117 61.9486C33.168 61.348 33.346 60.7519 33.5429 60.162C33.8149 59.3467 34.1083 58.539 34.4105 57.7344C32.9867 57.377 30.7172 55.3623 31.7544 54.2563C33.2869 52.6249 34.2692 56.5382 34.4915 57.2506C34.4558 57.2731 34.4209 57.2779 34.3867 57.2659C34.4295 57.3188 34.4762 57.3748 34.5257 57.43C35.1069 55.895 35.7144 54.3695 36.263 52.8235C36.1273 52.806 35.8247 52.6201 35.6247 52.5427C35.1734 52.3683 34.7259 52.1729 34.3263 51.8982C33.6949 51.4639 32.8777 50.6665 33.4819 49.8731C34.1386 49.0097 35.147 49.8652 35.5084 50.508C35.7582 50.9525 35.8689 51.4447 36.0458 51.918C36.101 52.0656 36.5166 52.6389 36.1831 52.4776C36.2457 52.5703 36.2859 52.6404 36.3091 52.6929C36.4071 52.4145 36.5026 52.1351 36.5962 51.855C36.5752 51.8377 36.5554 51.8172 36.5386 51.79C36.4224 51.603 36.5772 51.421 36.7454 51.4018C36.8663 51.0275 36.9831 50.6515 37.0928 50.2733C37.3255 49.4718 37.5576 48.6514 37.7799 47.8217C37.614 47.7878 37.5857 47.6299 37.4239 47.586C37.2624 47.5423 37.0237 47.6005 36.8476 47.5743C36.4047 47.5082 35.9552 47.3039 35.5803 47.0656C34.9612 46.6717 33.9111 45.7084 34.6656 44.942C35.443 44.1517 36.5416 45.0306 36.9931 45.7099C37.0806 45.8414 37.6602 47.1421 37.8286 47.6376C38.2375 46.098 38.6096 44.5293 38.8827 42.9915C38.6211 43.1326 37.5924 43.011 37.3639 42.9491C36.8064 42.798 35.8003 42.3399 36.2123 41.5768C36.5791 40.8991 37.5692 41.0418 38.0943 41.4215C38.1807 41.4841 38.7541 42.1935 38.9593 42.5406C39.0664 41.8933 39.1556 41.2523 39.2204 40.6229C39.2642 40.2042 39.2897 39.785 39.299 39.3661C39.2411 39.3657 39.1756 39.3453 39.1066 39.313C38.0726 39.6757 36.0612 38.8777 36.8929 37.7557C37.289 37.2218 38.1378 37.405 38.6221 37.6712C38.7213 37.7256 39.0388 38.099 39.2913 38.3923C39.2419 37.049 39.0338 35.7127 38.7136 34.4015C38.6201 34.4266 38.516 34.4027 38.4478 34.3005C37.8456 34.2943 37.3638 34.2782 36.7685 33.9559C36.3987 33.7557 35.6503 33.2452 36.1412 32.7503C36.78 32.1063 37.8929 32.9957 38.2677 33.5294C38.3112 33.5913 38.4164 33.7832 38.5106 33.9603C38.5351 33.9422 38.562 33.9278 38.5908 33.918C38.377 33.1146 38.1229 32.3216 37.8396 31.5432C37.3507 31.6398 36.0884 29.5152 36.1958 29.0543C36.4352 28.023 37.4202 28.7791 37.6769 29.3241C37.9795 29.9668 38.0062 30.6885 37.9438 31.3765C37.9367 31.4496 37.9456 31.4413 37.8955 31.3725C37.9105 31.412 37.913 31.4457 37.9054 31.4754C38.1027 31.7927 38.3208 32.1088 38.4636 32.4071C38.8725 33.2615 39.2335 34.1487 39.5419 35.0446C39.617 35.2625 39.6861 35.4815 39.7495 35.7015C39.9286 35.235 40.2414 34.7358 40.3746 34.5601C40.7205 34.1045 41.3052 33.4961 41.9493 33.5898ZM34.6813 74.978C34.85 75.232 35.0494 75.4388 35.2882 75.5666C35.0681 75.3914 34.8664 75.1936 34.6813 74.978Z" fill="#ADBABC"/>
<g opacity="0.5">
<path opacity="0.5" fill-rule="evenodd" clip-rule="evenodd" d="M48.1426 60.1699C48.3048 58.6778 48.2003 55.1729 49.051 54.2032C49.5989 53.5786 50.8105 56.251 51.088 56.735C52.1619 58.6073 53.0122 60.587 53.8172 62.5867C55.2694 66.1929 55.5885 69.941 55.3365 73.8295C55.2069 75.8304 54.9237 77.9393 53.8973 79.7084C53.4249 80.523 52.6139 81.0624 52.1179 81.8132C51.5402 82.6874 51.7928 82.0988 51.8929 83.1474C52.0318 84.6032 52.7044 86.2098 53.1599 87.594C55.2509 93.9484 69.4003 125.835 73.0799 131.444C73.4061 131.941 72.7504 132.464 72.3652 131.85C70.3222 128.594 59.1672 104.402 55.8143 96.3285C52.4613 88.2547 49.6069 81.0625 49.0078 77.9603C48.2809 74.1968 48.0297 69.3277 47.9412 65.4935C47.9 63.7123 47.9499 61.943 48.1426 60.1699Z" fill="#69A1AC"/>
<path opacity="0.5" fill-rule="evenodd" clip-rule="evenodd" d="M74.3035 94.4198C75.4736 91.8961 79.0985 93.4469 78.1153 95.8681C77.5717 97.2064 76.3882 97.4885 75.444 97.1426C75.3206 97.8069 75.2327 98.4789 75.1176 99.069C74.7671 100.867 74.4892 102.663 74.2705 104.465C73.8164 108.209 73.7217 111.952 73.5231 115.685C73.3272 119.369 73.1527 123.059 73.1549 126.725C73.1569 129.83 72.9542 133.596 73.9445 136.457C71.5734 130.54 71.2233 123.79 71.6092 117.21C71.9922 110.684 72.5797 103.463 75.1985 97.0372C74.3283 96.5948 73.7591 95.5928 74.3035 94.4198Z" fill="#C1DEE2"/>
<path opacity="0.5" fill-rule="evenodd" clip-rule="evenodd" d="M29.5865 101.428C30.8041 101.037 33.9694 102.535 35.3972 102.983C37.094 103.516 38.7317 104.178 40.345 104.928C43.8177 106.543 47.1752 108.444 50.3351 110.615C55.4865 114.153 60.2207 118.09 64.5829 122.63C67.2531 125.408 69.6805 128.476 71.8641 131.647C72.276 132.245 75.6266 136.759 74.7429 137.417C73.9482 138.009 72.1082 134.04 71.7804 133.542C68.0802 127.933 63.5315 122.997 58.5318 118.543C57.4427 117.572 56.2347 116.314 54.9569 115.605C54.0367 115.094 54.6733 115.098 53.6491 115.277C52.7696 115.431 51.961 115.957 51.0323 116.063C49.0152 116.294 46.9762 115.71 45.0955 115.028C41.4408 113.703 38.1365 111.912 35.4024 109.141C33.8861 107.605 32.4058 106.035 31.1106 104.304C30.7758 103.856 28.8022 101.679 29.5865 101.428Z" fill="#69A1AC"/>
<path opacity="0.5" fill-rule="evenodd" clip-rule="evenodd" d="M11.1424 57.6667C19.237 62.5673 26.9831 68.5815 33.5794 75.3608C37.5761 79.4683 41.2422 83.9228 44.8826 88.3447C50.5192 95.1915 56.078 102.08 60.7425 109.639C65.4342 117.242 71.1649 125.835 72.751 134.772C69.8206 126.425 64.1236 118.96 59.6732 111.388C57.5486 107.773 55.2483 104.302 52.8469 100.868C50.5174 97.5366 47.9564 94.3547 45.4441 91.1602C44.2205 89.6044 42.9842 88.0591 41.743 86.5176C41.3726 86.0577 40.5024 84.5672 39.9876 84.3971C39.4696 84.2259 37.7317 84.9968 37.0693 85.0267C35.7353 85.0867 34.3437 84.8947 33.0427 84.5987C30.5486 84.0313 28.0207 82.8873 25.815 81.602C20.7114 78.628 16.6654 73.7969 13.8886 68.627C13.3493 67.6233 9.03632 55.9924 8.31021 56.1993C8.32399 56.1325 8.33486 56.0654 8.3426 55.9975C9.28057 56.5458 10.2125 57.1048 11.1424 57.6667Z" fill="#29C9DC"/>
<path opacity="0.5" fill-rule="evenodd" clip-rule="evenodd" d="M70.0929 58.9566C70.106 58.8293 70.1689 57.9595 69.9821 58.1157C70.3625 57.7976 69.7849 59.1454 70.5802 58.0756C70.3381 58.8297 70.9699 59.2882 71.3297 59.9255C71.9138 60.9603 72.3081 62.0885 72.6729 63.215C73.2497 64.9955 73.6502 66.815 73.805 68.6813C74.1421 72.7484 73.3931 77.255 71.5736 80.9157C70.6755 82.7231 69.4405 83.8501 68.0389 85.2263C67.1536 86.0956 67.3687 86.6827 67.3724 88.0042C67.3806 90.7565 67.4053 93.4897 67.5894 96.2381C67.8093 99.52 68.0664 102.785 68.4142 106.056C69.5856 117.076 71.6337 128.032 75.312 138.513C72.1586 132.88 70.2596 126.335 68.9416 120.036C67.9811 115.447 67.4613 110.799 67.0668 106.133C66.9714 105.002 66.9412 103.497 66.561 102.4C66.2946 101.632 65.555 101.159 64.9793 100.512C62.7366 97.9923 61.0063 94.739 59.9878 91.5254C58.8646 87.9818 59.886 85.4876 62.7456 83.3234C63.7914 82.5318 65.2699 81.7967 66.0454 80.7379C66.8905 79.5846 66.4036 77.5914 66.4361 76.122C66.5232 72.1747 67.0042 68.1702 67.9827 64.346C68.2536 63.287 68.6036 62.2549 69.0226 61.2463C69.2866 60.61 70.0271 59.5975 70.0929 58.9566Z" fill="#89C5CC"/>
<path opacity="0.5" fill-rule="evenodd" clip-rule="evenodd" d="M66.7015 135.294L77.734 129.219C78.23 128.946 78.8536 129.127 79.1267 129.623C79.1509 129.667 79.1718 129.712 79.1893 129.759L81.5206 136.011C82.2312 137.917 81.4378 140.055 79.6561 141.036L75.6603 143.237C73.8786 144.218 71.647 143.745 70.4164 142.125L66.3797 136.813C66.0371 136.362 66.1249 135.719 66.5758 135.376C66.6156 135.346 66.6576 135.319 66.7015 135.294Z" fill="#C1DEE2"/>
</g>
<path opacity="0.2" fill-rule="evenodd" clip-rule="evenodd" d="M206.712 52.197C206.345 51.6696 205.514 51.5895 205.43 52.4044C205.341 53.277 206.446 53.8969 207.081 54.2281C207.02 54.1902 207.175 53.4303 207.16 53.2942C207.115 52.8927 206.937 52.5214 206.712 52.197ZM205.416 68.281C205.511 68.5312 205.423 68.3033 205.416 68.281V68.281ZM204.317 55.1587C203.891 55.2208 203.655 55.6159 203.751 56.0244C203.865 56.5108 204.407 56.7941 204.824 56.9827C205.012 57.068 206.02 57.5235 205.877 57.2409C205.891 57.2572 205.919 57.2934 205.946 57.3368C205.925 57.4251 205.905 57.5137 205.887 57.6025C205.879 57.6027 205.873 57.6035 205.865 57.6035C205.873 57.6042 205.879 57.6037 205.887 57.604C205.701 58.4917 205.633 59.3973 205.693 60.3126C205.566 60.1602 205.425 60.02 205.267 59.905C204.798 59.5643 203.526 59.3681 203.723 60.3428C203.913 61.2773 205.13 61.0576 205.794 61.3012C205.937 62.451 206.159 63.6001 206.427 64.7403C206.377 64.7302 206.325 64.737 206.281 64.7677C206.082 64.4773 205.904 64.1208 205.678 63.9266C205.353 63.6464 204.624 63.1835 204.166 63.3566C203.603 63.5693 203.791 64.0974 204.153 64.3972C204.677 64.8319 205.6 64.9712 206.27 65.0904C206.328 65.1372 206.409 65.1573 206.479 65.1294C206.493 65.1322 206.508 65.1351 206.522 65.1379C206.801 66.2792 207.12 67.4101 207.444 68.5225C207.436 68.5179 207.429 68.5132 207.421 68.5084C207.301 68.2835 207.155 68.0729 206.966 67.9006C206.529 67.5014 205.937 67.1742 205.33 67.3099C204.725 67.445 204.235 67.9942 204.434 68.6301C204.833 69.9028 207.088 68.7451 207.556 68.9026C207.889 70.0255 208.29 71.124 208.71 72.2157C208.636 72.1398 208.556 72.0698 208.466 72.0089C207.738 71.5125 205.422 71.4517 205.859 72.8896C206.241 74.1426 208.039 73.1269 208.997 72.9533C209.397 73.9752 209.803 74.9951 210.176 76.0274C209.839 75.7069 209.467 75.4821 208.976 75.3758C208.468 75.2661 207.584 75.2043 207.539 75.9403C207.493 76.6888 208.487 76.8849 209.031 76.9392C209.328 76.9688 210 76.8873 210.504 76.9743C211.063 78.6859 211.407 80.4217 211.394 82.2351C211.385 83.3674 211.23 84.4966 210.955 85.5934C210.779 86.2934 210.531 87.4949 210.03 88.2559C211.208 86.8294 211.714 84.615 211.909 82.8667C212.088 81.2591 211.91 79.6633 211.531 78.1058C212.159 77.5277 214.725 77.609 213.89 76.2898C213.446 75.5908 212.476 75.8099 212.001 76.3456C211.674 76.7137 211.528 77.3226 211.458 77.8161C211.333 77.3362 211.191 76.86 211.034 76.3887C210.816 75.7373 210.582 75.0919 210.341 74.4492C211.478 74.1636 213.291 72.5539 212.463 71.6703C211.238 70.3669 210.453 73.4934 210.276 74.0626C210.304 74.0806 210.332 74.0844 210.36 74.0748C210.325 74.1171 210.288 74.1618 210.249 74.2059C209.784 72.9796 209.299 71.7607 208.861 70.5256C208.969 70.5116 209.211 70.3631 209.371 70.3012C209.731 70.1619 210.089 70.0058 210.408 69.7862C210.912 69.4393 211.565 68.8022 211.082 68.1683C210.558 67.4785 209.752 68.162 209.463 68.6755C209.264 69.0307 209.175 69.424 209.034 69.8021C208.99 69.92 208.658 70.378 208.924 70.2491C208.874 70.3233 208.842 70.3792 208.824 70.4212C208.745 70.1988 208.669 69.9755 208.594 69.7518C208.611 69.738 208.627 69.7216 208.64 69.6998C208.733 69.5504 208.609 69.405 208.475 69.3897C208.378 69.0906 208.285 68.7902 208.198 68.488C208.012 67.8477 207.826 67.1922 207.649 66.5293C207.781 66.5023 207.804 66.3761 207.933 66.341C208.062 66.3061 208.253 66.3526 208.393 66.3317C208.747 66.2788 209.106 66.1156 209.406 65.9252C209.901 65.6106 210.74 64.8409 210.137 64.2286C209.516 63.5972 208.638 64.2994 208.277 64.8421C208.207 64.9472 207.744 65.9864 207.61 66.3822C207.283 65.1522 206.986 63.8988 206.767 62.6702C206.977 62.783 207.798 62.6858 207.981 62.6363C208.426 62.5157 209.23 62.1496 208.901 61.5399C208.608 60.9985 207.817 61.1125 207.397 61.4159C207.328 61.4659 206.87 62.0327 206.706 62.31C206.621 61.7928 206.549 61.2807 206.498 60.7779C206.463 60.4433 206.442 60.1083 206.435 59.7737C206.481 59.7733 206.533 59.757 206.589 59.7313C207.415 60.021 209.022 59.3835 208.357 58.487C208.041 58.0605 207.363 58.2069 206.976 58.4195C206.896 58.463 206.643 58.7613 206.441 58.9957C206.48 57.9224 206.647 56.8548 206.903 55.8072C206.977 55.8273 207.06 55.8082 207.115 55.7265C207.596 55.7215 207.981 55.7087 208.457 55.4512C208.752 55.2912 209.35 54.8834 208.958 54.488C208.447 53.9734 207.558 54.684 207.259 55.1104C207.224 55.1599 207.14 55.3132 207.065 55.4547C207.045 55.4402 207.024 55.4288 207.001 55.4209C207.172 54.779 207.375 54.1455 207.601 53.5235C207.991 53.6008 209 51.9032 208.914 51.535C208.723 50.7111 207.936 51.3151 207.731 51.7506C207.489 52.2641 207.468 52.8407 207.518 53.3903C207.523 53.4488 207.516 53.4421 207.556 53.3872C207.544 53.4187 207.542 53.4457 207.548 53.4694C207.391 53.7229 207.216 53.9754 207.102 54.2138C206.776 54.8964 206.487 55.6052 206.241 56.321C206.181 56.4951 206.126 56.6701 206.075 56.8458C205.932 56.4731 205.682 56.0743 205.576 55.9339C205.299 55.5699 204.832 55.0838 204.317 55.1587ZM210.124 88.226C209.989 88.4289 209.83 88.5941 209.639 88.6963C209.815 88.5563 209.976 88.3983 210.124 88.226Z" fill="#F9EAB4"/>
<g opacity="0.5">
<path opacity="0.5" fill-rule="evenodd" clip-rule="evenodd" d="M199.37 76.3976C199.24 75.2055 199.324 72.4052 198.644 71.6305C198.206 71.1315 197.238 73.2666 197.017 73.6533C196.159 75.1492 195.479 76.7309 194.836 78.3286C193.676 81.2098 193.421 84.2043 193.622 87.311C193.726 88.9097 193.952 90.5946 194.772 92.008C195.15 92.6588 195.798 93.0898 196.194 93.6897C196.656 94.3881 196.454 93.9178 196.374 94.7556C196.263 95.9188 195.725 97.2023 195.361 98.3082C193.691 103.385 182.386 128.861 179.446 133.342C179.186 133.739 179.71 134.157 180.017 133.666C181.65 131.065 190.562 111.737 193.241 105.287C195.92 98.8361 198.2 93.0899 198.679 90.6114C199.26 87.6045 199.46 83.7143 199.531 80.651C199.564 79.2278 199.524 77.8143 199.37 76.3976Z" fill="#AC9569"/>
<path opacity="0.5" fill-rule="evenodd" clip-rule="evenodd" d="M178.468 103.76C177.533 101.744 174.637 102.983 175.423 104.917C175.857 105.987 176.803 106.212 177.557 105.936C177.656 106.466 177.726 107.003 177.818 107.475C178.098 108.911 178.32 110.347 178.495 111.786C178.857 114.777 178.933 117.768 179.092 120.75C179.248 123.693 179.388 126.642 179.386 129.57C179.384 132.052 179.546 135.061 178.755 137.346C180.65 132.618 180.929 127.226 180.621 121.968C180.315 116.754 179.845 110.985 177.753 105.851C178.448 105.498 178.903 104.697 178.468 103.76Z" fill="#F9EAB4"/>
<path opacity="0.5" fill-rule="evenodd" clip-rule="evenodd" d="M214.195 109.359C213.222 109.047 210.693 110.244 209.553 110.602C208.197 111.028 206.888 111.557 205.6 112.156C202.825 113.446 200.143 114.965 197.618 116.699C193.502 119.526 189.72 122.671 186.235 126.298C184.101 128.519 182.162 130.97 180.417 133.503C180.088 133.981 177.411 137.588 178.117 138.113C178.752 138.586 180.222 135.415 180.484 135.017C183.44 130.536 187.075 126.592 191.069 123.033C191.939 122.258 192.904 121.253 193.925 120.686C194.661 120.278 194.152 120.281 194.97 120.424C195.673 120.547 196.319 120.967 197.061 121.052C198.673 121.237 200.302 120.77 201.804 120.225C204.724 119.167 207.364 117.736 209.549 115.522C210.76 114.294 211.943 113.04 212.977 111.657C213.245 111.3 214.822 109.56 214.195 109.359Z" fill="#AC9569"/>
<path opacity="0.5" fill-rule="evenodd" clip-rule="evenodd" d="M226.576 89.3029C219.284 91.2971 212.016 94.2233 205.463 97.989C201.494 100.271 197.702 102.891 193.937 105.492C188.107 109.52 182.328 113.597 177.09 118.384C171.821 123.199 165.537 128.548 162.363 135.068C166.441 129.296 172.452 124.806 177.529 119.962C179.952 117.649 182.48 115.486 185.076 113.372C187.595 111.322 190.26 109.438 192.889 107.533C194.17 106.605 195.458 105.688 196.749 104.775C197.134 104.503 198.129 103.548 198.562 103.53C198.997 103.512 200.164 104.485 200.667 104.652C201.678 104.991 202.79 105.148 203.854 105.205C205.895 105.315 208.088 104.989 210.064 104.484C214.636 103.315 218.802 100.489 222.068 97.1238C222.702 96.4706 228.561 88.4772 229.074 88.7952C229.078 88.7408 229.084 88.6868 229.093 88.633C228.252 88.8491 227.414 89.0746 226.576 89.3029Z" fill="#F26158"/>
<path opacity="0.5" fill-rule="evenodd" clip-rule="evenodd" d="M181.833 75.4265C181.822 75.3248 181.772 74.6299 181.921 74.7547C181.617 74.5005 182.079 75.5774 181.443 74.7227C181.637 75.3251 181.132 75.6914 180.845 76.2007C180.378 77.0274 180.063 77.9288 179.771 78.8288C179.311 80.2513 178.991 81.705 178.867 83.1961C178.598 86.4456 179.196 90.0461 180.65 92.9709C181.367 94.4149 182.354 95.3153 183.474 96.4148C184.181 97.1093 184.009 97.5784 184.006 98.6343C184 100.833 183.98 103.017 183.833 105.213C183.657 107.835 183.452 110.443 183.174 113.057C182.238 121.861 180.602 130.615 177.663 138.989C180.182 134.488 181.699 129.259 182.753 124.226C183.52 120.56 183.935 116.847 184.25 113.118C184.327 112.215 184.351 111.012 184.655 110.136C184.867 109.522 185.458 109.144 185.918 108.627C187.71 106.614 189.092 104.015 189.906 101.447C190.804 98.6163 189.988 96.6236 187.703 94.8945C186.867 94.2621 185.686 93.6748 185.066 92.8288C184.391 91.9074 184.78 90.3149 184.754 89.1409C184.685 85.9872 184.3 82.7878 183.519 79.7324C183.302 78.8863 183.023 78.0617 182.688 77.2558C182.477 76.7475 181.885 75.9386 181.833 75.4265Z" fill="#F26158"/>
<path opacity="0.5" fill-rule="evenodd" clip-rule="evenodd" d="M184.542 136.417L175.728 131.563C175.331 131.345 174.833 131.49 174.615 131.886C174.596 131.921 174.579 131.957 174.565 131.995L172.702 136.99C172.135 138.512 172.768 140.221 174.192 141.005L177.384 142.763C178.808 143.547 180.591 143.169 181.574 141.875L184.799 137.631C185.073 137.27 185.003 136.756 184.643 136.483C184.611 136.458 184.577 136.437 184.542 136.417Z" fill="#F9EAB4"/>
</g>
<g clip-path="url(#clip0_5206_22257)">
<path fill-rule="evenodd" clip-rule="evenodd" d="M177.331 50.6861C177.921 50.7276 178.532 50.872 179.024 51.2037C180.07 51.9092 180.133 53.3193 179.904 54.4113C179.659 55.5866 179.158 56.8253 179.87 57.9488C180.197 58.4654 180.645 58.899 180.963 59.4221C181.303 59.9811 181.536 60.5905 181.674 61.223C181.927 62.3848 181.908 63.6896 181.268 64.7325C180.705 65.6508 179.598 66.3633 179.581 67.5285C179.563 68.7441 180.573 69.8721 181.144 70.8909C181.789 72.0438 182.315 73.4591 182.19 74.7823C182.07 76.0503 181.284 77.2037 180.27 77.983C178.244 79.5402 175.568 79.9769 173.052 79.4824C171.983 79.2724 170.783 78.9892 169.972 78.2357C169.721 78.0028 169.609 77.7744 169.494 77.4646C169.39 77.1868 169.221 76.9863 169.022 76.7655C168.587 76.2806 168.319 75.6889 168.197 75.061C167.723 72.6224 168.996 69.9667 170.664 68.207C171.06 67.7901 171.397 67.3805 171.36 66.7848C171.321 66.1631 171.047 65.5559 170.812 64.9822C170.58 64.4153 170.296 63.8624 170.144 63.2687C169.984 62.6466 170.024 62.0354 170.193 61.4213C170.51 60.2678 171.225 59.2854 172.123 58.4827C172.989 57.7095 173.967 56.9987 174.199 55.8106C174.446 54.5513 173.821 53.2672 174.429 52.0562C174.68 51.5547 175.084 51.0686 175.627 50.844C176.147 50.6286 176.775 50.6471 177.331 50.6861Z" fill="#B1D2D7"/>
<path fill-rule="evenodd" clip-rule="evenodd" d="M176.563 52.6269C176.607 52.4599 176.827 52.3974 176.977 52.4722C177.173 52.5707 177.132 52.7642 177.092 52.9362C176.972 53.4651 176.949 53.9971 176.977 54.5382C177.034 55.6632 177.333 56.7475 177.522 57.8542C177.711 58.9599 177.687 60.059 177.247 61.1048C176.833 62.0908 176.301 63.0264 175.881 64.0127C175.51 64.8821 175.118 65.7985 175.238 66.7606C175.353 67.6867 175.844 68.5179 176.144 69.3928C176.764 71.2038 176.829 73.0919 176.524 74.9626C176.382 75.8312 176.189 76.6983 175.824 77.5065C175.614 77.9718 175.332 78.6009 174.848 78.8565C174.625 78.9744 174.285 78.9641 174.168 78.7026C174.057 78.4574 174.256 78.1494 174.349 77.9289C174.751 76.9744 174.991 75.9655 175.137 74.9453C175.278 73.9571 175.353 72.9575 175.226 71.9629C175.108 71.0399 174.825 70.1764 174.462 69.3183C174.091 68.4438 173.7 67.5637 173.662 66.6056C173.624 65.6325 173.986 64.72 174.401 63.8532C174.839 62.9364 175.351 62.0624 175.873 61.1891C176.382 60.338 176.668 59.4947 176.671 58.5011C176.677 56.5381 176.054 54.5736 176.563 52.6269Z" fill="#89A0B0"/>
<path fill-rule="evenodd" clip-rule="evenodd" d="M200.959 63.0878C201.455 63.6632 201.875 64.3503 202.014 65.0993C202.309 66.6921 201.064 68.0275 199.848 68.8095C198.54 69.6513 196.944 70.3186 196.55 71.9855C196.369 72.7518 196.374 73.5525 196.178 74.3165C195.97 75.1329 195.618 75.8982 195.159 76.5971C194.315 77.8806 193.093 79.0467 191.55 79.4093C190.192 79.7285 188.531 79.3657 187.44 80.4068C186.301 81.4928 186.173 83.4355 185.749 84.8788C185.268 86.5122 184.437 88.2744 183.102 89.3597C181.822 90.3999 180.045 90.7296 178.407 90.5125C175.135 90.0787 172.309 88.0374 170.488 85.2969C169.715 84.1333 168.889 82.7827 168.851 81.361C168.84 80.9215 168.949 80.6127 169.131 80.2265C169.293 79.8801 169.325 79.5441 169.35 79.1634C169.404 78.3269 169.708 77.5467 170.177 76.8662C172 74.2232 175.606 72.9754 178.741 72.8999C179.484 72.8821 180.168 72.8177 180.684 72.2439C181.224 71.645 181.537 70.845 181.854 70.1108C182.167 69.3851 182.421 68.6256 182.831 67.9485C183.262 67.2393 183.862 66.7214 184.582 66.3184C185.935 65.5614 187.489 65.3223 189.044 65.413C190.542 65.5003 192.083 65.7466 193.391 64.8813C194.778 63.9642 195.398 62.2312 197.067 61.6866C197.758 61.4611 198.573 61.3883 199.271 61.679C199.941 61.9577 200.493 62.5467 200.959 63.0878Z" fill="#B1D2D7"/>
<path fill-rule="evenodd" clip-rule="evenodd" d="M198.363 64.4127C198.556 64.3003 198.812 64.4443 198.878 64.6486C198.964 64.9176 198.748 65.0558 198.554 65.1768C197.959 65.5489 197.448 66.0122 196.974 66.5302C195.989 67.6071 195.259 68.8674 194.409 70.0476C193.56 71.2268 192.526 72.2059 191.167 72.7575C189.885 73.2776 188.544 73.6445 187.257 74.16C186.123 74.6144 184.926 75.0916 184.147 76.077C183.398 77.0254 183.073 78.2298 182.537 79.2999C181.426 81.5149 179.745 83.2934 177.746 84.7187C176.818 85.3804 175.846 85.9947 174.773 86.3982C174.155 86.6306 173.321 86.9456 172.651 86.7378C172.342 86.642 172.045 86.3226 172.18 85.9773C172.307 85.6533 172.769 85.5537 173.056 85.4376C174.298 84.9353 175.443 84.2349 176.514 83.4389C177.552 82.6679 178.54 81.8251 179.343 80.8039C180.088 79.8562 180.629 78.8118 181.092 77.6986C181.564 76.5642 182.023 75.4061 182.873 74.4995C183.735 73.5786 184.901 73.0771 186.073 72.6658C187.313 72.2308 188.578 71.9007 189.853 71.5817C191.095 71.2708 192.129 70.7632 193.047 69.861C194.862 68.0787 196.112 65.7218 198.363 64.4127Z" fill="#89A0B0"/>
<path fill-rule="evenodd" clip-rule="evenodd" d="M168.314 60.5982C169.5 60.8286 170.421 61.6601 170.967 62.6922C171.606 63.9004 171.528 65.2093 171.628 66.5208C171.677 67.1736 171.85 67.8455 172.281 68.366C172.673 68.8394 173.25 69.031 173.771 69.3264C174.814 69.9167 175.539 70.9921 175.681 72.1601C175.855 73.5847 175.133 74.8473 174.948 76.2211C174.779 77.4828 175.858 78.5 176.731 79.2902C177.593 80.0694 178.364 80.7921 178.435 81.998C178.51 83.277 178.351 84.6574 177.686 85.7772C176.578 87.6419 174.303 88.116 172.244 87.8582C170.375 87.6242 168.094 86.9789 166.968 85.371C166.295 84.4089 166.212 83.23 166.466 82.1224C166.624 81.4336 166.895 80.7734 167.202 80.138C167.42 79.6876 167.682 79.2478 167.826 78.7666C168.208 77.4862 167.05 77.0012 166.093 76.4434C164.876 75.7345 164.13 74.6967 163.727 73.3748C163.352 72.1438 163.347 70.8428 163.94 69.6829C164.243 69.0907 164.682 68.5852 165.222 68.1876C165.459 68.0126 165.77 67.8885 165.991 67.699C166.197 67.522 166.213 67.2441 166.204 66.9881C166.16 65.8058 165.522 64.7098 165.448 63.5237C165.381 62.453 165.784 61.2149 166.843 60.7383C167.301 60.5324 167.821 60.5058 168.314 60.5982Z" fill="#89A0B0"/>
<path fill-rule="evenodd" clip-rule="evenodd" d="M169.358 63.8592C170.356 65.443 170.345 67.327 170.103 69.1081C169.967 70.1069 169.707 71.1375 169.811 72.152C169.9 73.0204 170.36 73.7603 170.845 74.4693C171.822 75.8966 172.933 77.3707 172.952 79.1655C172.962 80.2187 172.619 81.2379 172.711 82.2954C172.795 83.2566 173.08 84.2403 173.488 85.1176C173.817 85.8241 174.31 86.4118 174.689 87.0844C174.805 87.2897 174.969 87.5907 174.859 87.8275C174.73 88.1048 174.341 88.1249 174.086 88.028C173.493 87.8022 173.09 87.1157 172.772 86.6116C172.306 85.8746 171.937 85.1075 171.678 84.277C171.39 83.3547 171.199 82.3984 171.227 81.4317C171.255 80.4288 171.531 79.4316 171.345 78.4277C171.033 76.7387 169.715 75.5219 168.87 74.0886C167.817 72.3027 168.386 70.445 168.889 68.5972C169.165 67.5817 169.466 66.4329 169.128 65.3912C168.999 64.9936 168.621 64.5728 168.615 64.1481C168.609 63.759 169.11 63.464 169.358 63.8592Z" fill="#7D90A8"/>
</g>
<path fill-rule="evenodd" clip-rule="evenodd" d="M113.759 47.4068C114.35 47.4483 114.96 47.5927 115.452 47.9245C116.499 48.6299 116.561 50.04 116.333 51.132C116.087 52.3073 115.587 53.546 116.299 54.6695C116.626 55.1861 117.073 55.6197 117.392 56.1428C117.731 56.7018 117.965 57.3112 118.103 57.9437C118.356 59.1055 118.337 60.4103 117.697 61.4533C117.134 62.3715 116.026 63.084 116.009 64.2493C115.992 65.4648 117.002 66.5928 117.572 67.6116C118.218 68.7645 118.744 70.1798 118.618 71.503C118.498 72.771 117.712 73.9244 116.698 74.7037C114.672 76.2609 111.997 76.6976 109.48 76.2031C108.412 75.9931 107.211 75.7099 106.4 74.9564C106.15 74.7235 106.038 74.4951 105.922 74.1853C105.819 73.9075 105.649 73.7071 105.451 73.4863C105.016 73.0013 104.748 72.4096 104.626 71.7817C104.151 69.3431 105.424 66.6875 107.093 64.9277C107.488 64.5108 107.825 64.1012 107.788 63.5056C107.75 62.8838 107.476 62.2766 107.241 61.703C107.008 61.136 106.725 60.5831 106.572 59.9894C106.413 59.3673 106.453 58.7561 106.621 58.142C106.938 56.9885 107.654 56.0061 108.552 55.2034C109.418 54.4302 110.395 53.7194 110.628 52.5313C110.875 51.272 110.25 49.9879 110.857 48.7769C111.109 48.2754 111.513 47.7893 112.056 47.5647C112.576 47.3493 113.204 47.3678 113.759 47.4068Z" fill="#C2B1D7"/>
<path fill-rule="evenodd" clip-rule="evenodd" d="M112.991 49.3476C113.035 49.1806 113.255 49.1181 113.404 49.1929C113.601 49.2914 113.559 49.4849 113.52 49.657C113.4 50.1858 113.377 50.7178 113.404 51.2589C113.462 52.3839 113.761 53.4682 113.95 54.5749C114.139 55.6806 114.115 56.7797 113.675 57.8255C113.26 58.8115 112.728 59.7471 112.308 60.7335C111.938 61.6028 111.546 62.5192 111.666 63.4813C111.781 64.4074 112.272 65.2386 112.572 66.1135C113.192 67.9245 113.257 69.8126 112.951 71.6833C112.809 72.5519 112.617 73.419 112.252 74.2272C112.042 74.6926 111.759 75.3216 111.276 75.5772C111.053 75.6951 110.713 75.6848 110.595 75.4233C110.485 75.1781 110.683 74.8701 110.776 74.6496C111.179 73.6951 111.419 72.6863 111.565 71.666C111.706 70.6778 111.78 69.6782 111.654 68.6837C111.536 67.7606 111.253 66.8971 110.889 66.039C110.519 65.1645 110.127 64.2844 110.09 63.3263C110.052 62.3532 110.414 61.4407 110.828 60.5739C111.267 59.6571 111.778 58.7831 112.301 57.9098C112.81 57.0587 113.096 56.2154 113.099 55.2218C113.105 53.2588 112.482 51.2943 112.991 49.3476Z" fill="#2F4F65"/>
<path fill-rule="evenodd" clip-rule="evenodd" d="M104.743 57.3189C105.929 57.5493 106.85 58.3808 107.396 59.4129C108.034 60.6211 107.957 61.93 108.056 63.2415C108.106 63.8943 108.279 64.5662 108.71 65.0867C109.102 65.5601 109.678 65.7517 110.2 66.0471C111.242 66.6374 111.968 67.7128 112.11 68.8808C112.284 70.3054 111.562 71.568 111.377 72.9418C111.207 74.2035 112.286 75.2207 113.16 76.0109C114.021 76.7901 114.793 77.5128 114.864 78.7187C114.939 79.9977 114.78 81.3781 114.114 82.4979C113.006 84.3625 110.732 84.8367 108.672 84.5789C106.804 84.3449 104.522 83.6996 103.397 82.0917C102.724 81.1296 102.641 79.9507 102.895 78.8431C103.053 78.1543 103.323 77.4941 103.631 76.8587C103.849 76.4083 104.111 75.9685 104.254 75.4873C104.637 74.2069 103.479 73.7219 102.521 73.1641C101.305 72.4552 100.558 71.4174 100.156 70.0955C99.7808 68.8645 99.7758 67.5635 100.369 66.4036C100.672 65.8114 101.111 65.3059 101.651 64.9083C101.888 64.7333 102.199 64.6092 102.42 64.4197C102.626 64.2427 102.642 63.9648 102.633 63.7088C102.589 62.5265 101.951 61.4305 101.876 60.2444C101.809 59.1737 102.212 57.9357 103.272 57.459C103.73 57.2531 104.25 57.2265 104.743 57.3189Z" fill="#89A0B0"/>
<path fill-rule="evenodd" clip-rule="evenodd" d="M105.787 60.5799C106.784 62.1637 106.773 64.0477 106.532 65.8288C106.396 66.8276 106.135 67.8582 106.239 68.8727C106.329 69.7411 106.789 70.481 107.274 71.19C108.25 72.6173 109.362 74.0914 109.38 75.8862C109.391 76.9394 109.048 77.9586 109.14 79.0161C109.223 79.9773 109.508 80.961 109.917 81.8383C110.246 82.5448 110.739 83.1325 111.118 83.8051C111.233 84.0104 111.397 84.3114 111.287 84.5482C111.158 84.8255 110.769 84.8456 110.515 84.7487C109.922 84.5229 109.519 83.8364 109.2 83.3324C108.734 82.5953 108.366 81.8282 108.106 80.9977C107.819 80.0754 107.628 79.1192 107.655 78.1524C107.683 77.1495 107.96 76.1523 107.774 75.1484C107.461 73.4594 106.144 72.2426 105.299 70.8093C104.246 69.0234 104.815 67.1657 105.317 65.3179C105.593 64.3024 105.895 63.1536 105.557 62.1119C105.428 61.7143 105.05 61.2935 105.043 60.8688C105.038 60.4797 105.538 60.1847 105.787 60.5799Z" fill="#7D90A8"/>
<path fill-rule="evenodd" clip-rule="evenodd" d="M44.8146 112.06C45.1792 111.594 45.6404 111.169 46.1907 110.946C47.3608 110.474 48.5646 111.211 49.3421 112.011C50.1789 112.872 50.9259 113.979 52.2553 114.018C52.8664 114.036 53.4762 113.907 54.0877 113.936C54.7412 113.967 55.377 114.114 55.9784 114.354C57.0828 114.794 58.154 115.54 58.6606 116.653C59.1065 117.634 59.0777 118.951 60.0342 119.616C61.0319 120.311 62.5319 120.105 63.6955 120.202C65.0124 120.311 66.4797 120.667 67.5064 121.511C68.4903 122.32 69.0067 123.617 69.0855 124.893C69.243 127.443 68.1084 129.906 66.2909 131.715C65.5192 132.483 64.6127 133.32 63.5346 133.571C63.2014 133.648 62.9496 133.613 62.628 133.536C62.3398 133.466 62.0788 133.494 61.7849 133.535C61.1393 133.625 60.4992 133.516 59.9103 133.266C57.6235 132.295 56.1344 129.754 55.6091 127.387C55.4847 126.826 55.3336 126.317 54.8191 126.015C54.2821 125.699 53.6256 125.587 53.0186 125.461C52.4187 125.336 51.8018 125.262 51.2244 125.056C50.6195 124.84 50.1351 124.465 49.7205 123.982C48.9417 123.074 48.5274 121.932 48.3646 120.738C48.2077 119.588 48.1656 118.38 47.3108 117.522C46.4048 116.614 44.9911 116.413 44.327 115.232C44.0521 114.743 43.8751 114.136 43.9924 113.561C44.1049 113.009 44.4716 112.499 44.8146 112.06Z" fill="#B1B3D7"/>
<path fill-rule="evenodd" clip-rule="evenodd" d="M45.9937 113.782C45.8796 113.652 45.951 113.435 46.0966 113.353C46.2883 113.245 46.4254 113.388 46.5461 113.516C46.9172 113.912 47.3452 114.229 47.8092 114.508C48.7738 115.09 49.8401 115.449 50.8631 115.911C51.8853 116.373 52.783 117.008 53.4038 117.957C53.9893 118.852 54.467 119.817 55.0498 120.717C55.5634 121.51 56.1037 122.347 56.9682 122.786C57.8002 123.209 58.7638 123.267 59.6567 123.508C61.505 124.007 63.1063 125.009 64.486 126.309C65.1267 126.912 65.7378 127.557 66.2036 128.311C66.4719 128.746 66.8351 129.332 66.7766 129.876C66.7496 130.126 66.5508 130.402 66.2683 130.354C66.0033 130.308 65.859 129.971 65.7282 129.771C65.1622 128.903 64.46 128.14 63.696 127.449C62.9561 126.778 62.1689 126.158 61.2737 125.706C60.4429 125.288 59.5688 125.039 58.6539 124.861C57.7216 124.679 56.7733 124.511 55.9583 124.006C55.1304 123.493 54.5762 122.683 54.0898 121.854C53.5752 120.978 53.1367 120.065 52.7051 119.143C52.2845 118.245 51.7453 117.537 50.9233 116.978C49.2995 115.875 47.3227 115.293 45.9937 113.782Z" fill="#C4DDEE"/>
<path fill-rule="evenodd" clip-rule="evenodd" d="M47.9865 125.08C48.8412 124.226 50.0457 123.927 51.2064 124.052C52.5651 124.199 53.6065 124.996 54.7496 125.646C55.3185 125.97 55.9722 126.203 56.6446 126.137C57.2562 126.077 57.7376 125.706 58.2742 125.439C59.3466 124.905 60.6439 124.905 61.6915 125.441C62.9695 126.094 63.6123 127.398 64.6478 128.32C65.5987 129.166 67.0454 128.841 68.1891 128.559C69.3168 128.281 70.3477 128.045 71.3869 128.661C72.4891 129.314 73.5441 130.218 74.1002 131.396C75.0261 133.358 74.1466 135.508 72.7812 137.071C71.5419 138.489 69.7309 140.019 67.7686 140.053C66.5944 140.073 65.571 139.482 64.7948 138.652C64.3121 138.136 63.9163 137.542 63.5616 136.932C63.3103 136.499 63.0922 136.036 62.7736 135.648C61.9261 134.615 60.8764 135.303 59.8785 135.785C58.6104 136.397 57.3326 136.435 56.0116 136.029C54.7815 135.651 53.7003 134.928 53.0707 133.787C52.7492 133.205 52.5758 132.558 52.548 131.889C52.5358 131.594 52.6069 131.267 52.5732 130.978C52.5416 130.708 52.3205 130.539 52.1031 130.404C51.0986 129.778 49.833 129.695 48.8083 129.093C47.8833 128.549 47.0824 127.523 47.28 126.378C47.3653 125.883 47.6344 125.437 47.9865 125.08Z" fill="#ACD0E9"/>
<path fill-rule="evenodd" clip-rule="evenodd" d="M51.2742 126.039C53.1451 126.098 54.7005 127.161 56.0418 128.357C56.7938 129.029 57.5022 129.821 58.4015 130.302C59.1711 130.714 60.042 130.746 60.901 130.741C62.6303 130.73 64.474 130.633 65.9719 131.622C66.8509 132.202 67.5038 133.057 68.4318 133.572C69.2754 134.04 70.2502 134.355 71.2059 134.507C71.9755 134.629 72.7384 134.549 73.5079 134.611C73.7427 134.63 74.0841 134.663 74.2188 134.886C74.3765 135.148 74.1756 135.482 73.953 135.639C73.434 136.004 72.6396 135.954 72.0435 135.936C71.1719 135.91 70.3299 135.787 69.4964 135.537C68.5709 135.26 67.6717 134.883 66.8855 134.32C66.0698 133.735 65.3979 132.948 64.4619 132.541C62.8869 131.855 61.1413 132.267 59.4805 132.165C57.4112 132.039 56.1898 130.528 54.939 129.078C54.2516 128.282 53.4679 127.389 52.4154 127.087C52.0136 126.971 51.4533 127.049 51.0978 126.817C50.7721 126.604 50.8076 126.024 51.2742 126.039Z" fill="#7D90A8"/>
<path d="M65.8262 75.4948C65.8262 70.6058 69.7894 66.6426 74.6784 66.6426H178.168C183.057 66.6426 187.021 70.6058 187.021 75.4948V134.08C187.021 138.969 183.057 142.932 178.168 142.932H74.6783C69.7894 142.932 65.8262 138.969 65.8262 134.08V75.4948Z" fill="#7B8089"/>
<path d="M51.6205 144.464C52.7033 144 52.9425 144 54.5733 144H89.0949C90.7257 144 90.9267 144.048 92.0477 144.464C93.4915 144.999 93.1306 146.997 92.0477 147.533C90.9548 148.073 90.7257 147.996 89.0949 147.996H54.5733C52.9425 147.996 52.7034 147.996 51.6205 147.533C50.7932 147.178 50.7932 144.818 51.6205 144.464Z" fill="#DBEDEA"/>
<path d="M69.0449 78.7135C69.0449 73.8246 73.0082 69.8613 77.8971 69.8613H174.949C179.838 69.8613 183.801 73.8246 183.801 78.7135V130.861C183.801 135.75 179.838 139.713 174.949 139.713H77.8971C73.0082 139.713 69.0449 135.75 69.0449 130.861V78.7135Z" fill="url(#paint0_linear_5206_22257)"/>
<path opacity="0.45" d="M74.6782 89.8191C74.6782 87.3302 76.6959 85.3125 79.1848 85.3125H98.4986C100.988 85.3125 103.005 87.3302 103.005 89.8191V129.091C103.005 131.579 100.988 133.597 98.4986 133.597H79.1848C76.6959 133.597 74.6782 131.579 74.6782 129.091V89.8191Z" fill="white"/>
<path opacity="0.45" d="M78.2188 90.3017C78.2188 89.3239 79.0114 88.5312 79.9892 88.5312H104.775C105.753 88.5312 106.546 89.3239 106.546 90.3017V91.9112C106.546 92.889 105.753 93.6816 104.775 93.6816H79.9892C79.0114 93.6816 78.2188 92.889 78.2188 91.9112V90.3017Z" fill="white"/>
<path opacity="0.45" d="M75.9658 97.4641C75.9658 96.8864 76.4342 96.418 77.012 96.418H100.671C101.249 96.418 101.718 96.8864 101.718 97.4641C101.718 98.0419 101.249 98.5103 100.671 98.5103H77.012C76.4342 98.5103 75.9658 98.0419 75.9658 97.4641Z" fill="white"/>
<path opacity="0.45" d="M75.9658 102.775C75.9658 102.197 76.4342 101.729 77.012 101.729H100.671C101.249 101.729 101.718 102.197 101.718 102.775C101.718 103.352 101.249 103.821 100.671 103.821H77.012C76.4342 103.821 75.9658 103.352 75.9658 102.775Z" fill="white"/>
<path opacity="0.45" d="M112.823 117.101C112.823 116.523 113.292 116.055 113.869 116.055H120.468C121.046 116.055 121.514 116.523 121.514 117.101C121.514 117.679 121.046 118.147 120.468 118.147H113.869C113.292 118.147 112.823 117.679 112.823 117.101Z" fill="white"/>
<path opacity="0.45" d="M112.823 122.249C112.823 121.672 113.292 121.203 113.869 121.203H120.468C121.046 121.203 121.514 121.672 121.514 122.249C121.514 122.827 121.046 123.295 120.468 123.295H113.869C113.292 123.295 112.823 122.827 112.823 122.249Z" fill="white"/>
<path opacity="0.45" d="M112.823 125.63C112.823 125.052 113.292 124.584 113.869 124.584H120.468C121.046 124.584 121.514 125.052 121.514 125.63C121.514 126.208 121.046 126.676 120.468 126.676H113.869C113.292 126.676 112.823 126.208 112.823 125.63Z" fill="white"/>
<path opacity="0.45" d="M112.823 129.331C112.823 128.754 113.292 128.285 113.869 128.285H120.468C121.046 128.285 121.514 128.754 121.514 129.331C121.514 129.909 121.046 130.377 120.468 130.377H113.869C113.292 130.377 112.823 129.909 112.823 129.331Z" fill="white"/>
<path opacity="0.45" d="M125.216 117.101C125.216 116.523 125.684 116.055 126.262 116.055H132.861C133.439 116.055 133.907 116.523 133.907 117.101C133.907 117.679 133.439 118.147 132.861 118.147H126.262C125.684 118.147 125.216 117.679 125.216 117.101Z" fill="white"/>
<path opacity="0.45" d="M125.216 122.249C125.216 121.672 125.684 121.203 126.262 121.203H132.861C133.439 121.203 133.907 121.672 133.907 122.249C133.907 122.827 133.439 123.295 132.861 123.295H126.262C125.684 123.295 125.216 122.827 125.216 122.249Z" fill="white"/>
<path opacity="0.45" d="M125.216 125.63C125.216 125.052 125.684 124.584 126.262 124.584H132.861C133.439 124.584 133.907 125.052 133.907 125.63C133.907 126.208 133.439 126.676 132.861 126.676H126.262C125.684 126.676 125.216 126.208 125.216 125.63Z" fill="white"/>
<path opacity="0.45" d="M125.216 129.331C125.216 128.754 125.684 128.285 126.262 128.285H132.861C133.439 128.285 133.907 128.754 133.907 129.331C133.907 129.909 133.439 130.377 132.861 130.377H126.262C125.684 130.377 125.216 129.909 125.216 129.331Z" fill="white"/>
<path opacity="0.45" d="M137.609 117.101C137.609 116.523 138.077 116.055 138.655 116.055H145.254C145.832 116.055 146.3 116.523 146.3 117.101C146.3 117.679 145.832 118.147 145.254 118.147H138.655C138.077 118.147 137.609 117.679 137.609 117.101Z" fill="white"/>
<path opacity="0.45" d="M137.609 122.249C137.609 121.672 138.077 121.203 138.655 121.203H145.254C145.832 121.203 146.3 121.672 146.3 122.249C146.3 122.827 145.832 123.295 145.254 123.295H138.655C138.077 123.295 137.609 122.827 137.609 122.249Z" fill="white"/>
<path opacity="0.45" d="M137.609 125.63C137.609 125.052 138.077 124.584 138.655 124.584H145.254C145.832 124.584 146.3 125.052 146.3 125.63C146.3 126.208 145.832 126.676 145.254 126.676H138.655C138.077 126.676 137.609 126.208 137.609 125.63Z" fill="white"/>
<path opacity="0.45" d="M137.609 129.331C137.609 128.754 138.077 128.285 138.655 128.285H145.254C145.832 128.285 146.3 128.754 146.3 129.331C146.3 129.909 145.832 130.377 145.254 130.377H138.655C138.077 130.377 137.609 129.909 137.609 129.331Z" fill="white"/>
<path opacity="0.45" d="M150.002 117.101C150.002 116.523 150.471 116.055 151.049 116.055H157.648C158.225 116.055 158.694 116.523 158.694 117.101C158.694 117.679 158.225 118.147 157.648 118.147H151.049C150.471 118.147 150.002 117.679 150.002 117.101Z" fill="white"/>
<path opacity="0.45" d="M150.002 122.249C150.002 121.672 150.471 121.203 151.049 121.203H157.648C158.225 121.203 158.694 121.672 158.694 122.249C158.694 122.827 158.225 123.295 157.648 123.295H151.049C150.471 123.295 150.002 122.827 150.002 122.249Z" fill="white"/>
<path opacity="0.45" d="M150.002 125.63C150.002 125.052 150.471 124.584 151.049 124.584H157.648C158.225 124.584 158.694 125.052 158.694 125.63C158.694 126.208 158.225 126.676 157.648 126.676H151.049C150.471 126.676 150.002 126.208 150.002 125.63Z" fill="white"/>
<path opacity="0.45" d="M150.002 129.331C150.002 128.754 150.471 128.285 151.049 128.285H157.648C158.225 128.285 158.694 128.754 158.694 129.331C158.694 129.909 158.225 130.377 157.648 130.377H151.049C150.471 130.377 150.002 129.909 150.002 129.331Z" fill="white"/>
<path opacity="0.45" d="M162.396 117.101C162.396 116.523 162.864 116.055 163.442 116.055H170.041C170.618 116.055 171.087 116.523 171.087 117.101C171.087 117.679 170.618 118.147 170.041 118.147H163.442C162.864 118.147 162.396 117.679 162.396 117.101Z" fill="white"/>
<path opacity="0.45" d="M162.396 122.249C162.396 121.672 162.864 121.203 163.442 121.203H170.041C170.618 121.203 171.087 121.672 171.087 122.249C171.087 122.827 170.618 123.295 170.041 123.295H163.442C162.864 123.295 162.396 122.827 162.396 122.249Z" fill="white"/>
<path opacity="0.45" d="M162.396 125.63C162.396 125.052 162.864 124.584 163.442 124.584H170.041C170.618 124.584 171.087 125.052 171.087 125.63C171.087 126.208 170.618 126.676 170.041 126.676H163.442C162.864 126.676 162.396 126.208 162.396 125.63Z" fill="white"/>
<path opacity="0.45" d="M162.396 129.331C162.396 128.754 162.864 128.285 163.442 128.285H170.041C170.618 128.285 171.087 128.754 171.087 129.331C171.087 129.909 170.618 130.377 170.041 130.377H163.442C162.864 130.377 162.396 129.909 162.396 129.331Z" fill="white"/>
<path opacity="0.45" d="M75.9658 107.603C75.9658 107.025 76.4342 106.557 77.012 106.557H89.2441C89.8219 106.557 90.2903 107.025 90.2903 107.603C90.2903 108.181 89.8219 108.649 89.2441 108.649H77.012C76.4342 108.649 75.9658 108.181 75.9658 107.603Z" fill="white"/>
<path opacity="0.45" d="M75.9658 107.603C75.9658 107.025 76.4342 106.557 77.012 106.557H100.671C101.249 106.557 101.718 107.025 101.718 107.603C101.718 108.181 101.249 108.649 100.671 108.649H77.012C76.4342 108.649 75.9658 108.181 75.9658 107.603Z" fill="white"/>
<path opacity="0.45" d="M74.6782 77.9092C74.6782 76.4869 75.8312 75.334 77.2534 75.334H100.43C101.852 75.334 103.005 76.4869 103.005 77.9092V80.0015C103.005 81.4237 101.852 82.5767 100.43 82.5767H77.2534C75.8312 82.5767 74.6782 81.4237 74.6782 80.0015V77.9092Z" fill="white"/>
<path opacity="0.45" d="M109.765 116.858C109.765 115.436 110.918 114.283 112.34 114.283H173.662C175.084 114.283 176.237 115.436 176.237 116.858V129.734C176.237 131.157 175.084 132.309 173.662 132.309H112.34C110.918 132.309 109.765 131.157 109.765 129.734V116.858Z" fill="white"/>
<path opacity="0.45" d="M109.121 77.9092C109.121 76.4869 110.274 75.334 111.696 75.334H134.873C136.295 75.334 137.448 76.4869 137.448 77.9092V80.0015C137.448 81.4237 136.295 82.5767 134.873 82.5767H111.696C110.274 82.5767 109.121 81.4237 109.121 80.0015V77.9092Z" fill="white"/>
<path opacity="0.45" d="M142.598 77.9092C142.598 76.4869 143.751 75.334 145.173 75.334H173.661C175.083 75.334 176.236 76.4869 176.236 77.9092V80.0015C176.236 81.4237 175.083 82.5767 173.661 82.5767H145.173C143.751 82.5767 142.598 81.4237 142.598 80.0015V77.9092Z" fill="white"/>
<path opacity="0.45" d="M109.121 77.9092C109.121 76.4869 110.274 75.334 111.696 75.334H113.789C115.211 75.334 116.364 76.4869 116.364 77.9092V80.0015C116.364 81.4237 115.211 82.5767 113.789 82.5767H111.696C110.274 82.5767 109.121 81.4237 109.121 80.0015V77.9092Z" fill="white"/>
<path opacity="0.45" d="M135.356 93.9232C135.356 92.9009 136.185 92.0723 137.207 92.0723C138.229 92.0723 139.058 92.9009 139.058 93.9232C139.058 94.9454 138.229 95.7741 137.207 95.7741C136.185 95.7741 135.356 94.9454 135.356 93.9232Z" fill="white"/>
<path opacity="0.45" d="M140.023 93.9232C140.023 92.9009 140.852 92.0723 141.874 92.0723H174.386C175.408 92.0723 176.237 92.9009 176.237 93.9232C176.237 94.9454 175.408 95.7741 174.386 95.7741H141.874C140.852 95.7741 140.023 94.9454 140.023 93.9232Z" fill="white"/>
<path opacity="0.45" d="M135.356 101.81C135.356 100.788 136.185 99.959 137.207 99.959C138.229 99.959 139.058 100.788 139.058 101.81C139.058 102.832 138.229 103.661 137.207 103.661C136.185 103.661 135.356 102.832 135.356 101.81Z" fill="white"/>
<path opacity="0.45" d="M140.023 101.81C140.023 100.788 140.852 99.959 141.874 99.959H174.386C175.408 99.959 176.237 100.788 176.237 101.81C176.237 102.832 175.408 103.661 174.386 103.661H141.874C140.852 103.661 140.023 102.832 140.023 101.81Z" fill="white"/>
<path opacity="0.45" d="M135.356 109.374C135.356 108.352 136.185 107.523 137.207 107.523C138.229 107.523 139.058 108.352 139.058 109.374C139.058 110.397 138.229 111.225 137.207 111.225C136.185 111.225 135.356 110.397 135.356 109.374Z" fill="white"/>
<path opacity="0.45" d="M140.023 109.374C140.023 108.352 140.852 107.523 141.874 107.523H174.386C175.408 107.523 176.237 108.352 176.237 109.374C176.237 110.397 175.408 111.225 174.386 111.225H141.874C140.852 111.225 140.023 110.397 140.023 109.374Z" fill="white"/>
<path opacity="0.45" d="M142.598 77.9092C142.598 76.4869 143.751 75.334 145.173 75.334H156.279C157.701 75.334 158.854 76.4869 158.854 77.9092V80.0015C158.854 81.4237 157.701 82.5767 156.279 82.5767H145.173C143.751 82.5767 142.598 81.4237 142.598 80.0015V77.9092Z" fill="white"/>
<path opacity="0.45" d="M76.9312 127.159C76.9312 125.737 78.0841 124.584 79.5063 124.584H98.0154C99.4377 124.584 100.591 125.737 100.591 127.159V129.251C100.591 130.674 99.4377 131.827 98.0154 131.827H79.5063C78.0841 131.827 76.9312 130.674 76.9312 129.251V127.159Z" fill="white"/>
<path opacity="0.34" d="M128.697 95.8402C129.915 97.6286 130.494 99.7702 130.342 101.923C130.19 104.076 129.314 106.117 127.856 107.719C126.397 109.321 124.44 110.392 122.295 110.761C120.151 111.131 117.944 110.777 116.026 109.757C114.108 108.737 112.59 107.109 111.714 105.133C110.839 103.157 110.655 100.947 111.194 98.856C111.733 96.7648 112.963 94.9129 114.687 93.596C116.411 92.279 118.531 91.5728 120.707 91.5902L120.629 101.247L128.697 95.8402Z" fill="white"/>
<path opacity="0.6" d="M123.217 89.2661C125.775 89.5533 128.113 90.8447 129.719 92.8563L122.134 98.9098L123.217 89.2661Z" fill="white"/>
<path fill-rule="evenodd" clip-rule="evenodd" d="M180.998 86.3912C181.677 85.5941 182.137 84.6173 182.06 83.5228C181.839 80.3691 177.449 81.0629 176.595 82.6546C175.741 84.2463 175.842 88.2838 176.946 88.5682C177.386 88.6817 178.324 88.4038 179.278 87.8286L178.679 92.0662H182.216L180.998 86.3912Z" fill="#E0BE9E"/>
<path fill-rule="evenodd" clip-rule="evenodd" d="M201.262 110.531H177.429L174.307 145.188H209.783L201.262 110.531Z" fill="#C5CFD6"/>
<path fill-rule="evenodd" clip-rule="evenodd" d="M201.149 110.531H193.722L189.277 145.188H209.783L201.149 110.531Z" fill="black" fill-opacity="0.1"/>
<path fill-rule="evenodd" clip-rule="evenodd" d="M164.244 107.355C163.031 106.626 160.994 107.562 160.996 108.605C161 111.724 163.846 126.423 163.995 127.352C164.143 128.282 165.735 128.527 165.828 127.355C165.976 125.491 166.25 119.037 165.975 116.05C165.862 114.817 165.74 113.643 165.62 112.595C167.114 115.293 169.424 119.154 172.55 124.181L174.247 123.405C172.914 119.014 171.822 115.915 170.969 114.106C169.508 111.009 168.139 108.356 167.563 107.422C166.656 105.953 165.078 106.465 164.244 107.355Z" fill="#DCBDA3"/>
<path fill-rule="evenodd" clip-rule="evenodd" d="M174.126 120.968L168.301 107.169C166.906 104.924 162.993 107.626 163.469 108.928C164.55 111.883 170.044 121.453 170.366 122.333L174.126 120.968Z" fill="#8A8BA7"/>
<path fill-rule="evenodd" clip-rule="evenodd" d="M174.449 122.535C174.812 122.834 175.048 123.078 175.157 123.267C175.29 123.497 175.446 123.855 175.624 124.341C175.357 124.495 172.958 125.88 168.426 128.497C167.882 127.986 167.797 127.59 168.172 127.308C168.546 127.026 168.855 126.788 169.099 126.595L171.584 123.172C171.631 123.106 171.723 123.091 171.789 123.139C171.79 123.14 171.792 123.141 171.793 123.141L172.309 123.539C172.782 123.498 173.136 123.41 173.369 123.275C173.559 123.165 173.776 122.938 174.022 122.592L174.022 122.592C174.116 122.459 174.3 122.428 174.433 122.522C174.438 122.526 174.444 122.531 174.449 122.535Z" fill="#1E0D86"/>
<path fill-rule="evenodd" clip-rule="evenodd" d="M166.201 126.607C166.366 127.047 166.449 127.377 166.449 127.595C166.449 127.861 166.404 128.249 166.316 128.759C166.008 128.759 163.237 128.759 158.004 128.759C157.788 128.045 157.913 127.659 158.378 127.602C158.844 127.545 159.23 127.494 159.538 127.448L163.401 125.726C163.476 125.693 163.563 125.726 163.596 125.8C163.596 125.802 163.597 125.803 163.597 125.804L163.846 126.406C164.277 126.607 164.627 126.708 164.896 126.708C165.115 126.708 165.417 126.62 165.803 126.443L165.803 126.443C165.951 126.375 166.126 126.44 166.193 126.588C166.196 126.594 166.199 126.601 166.201 126.607Z" fill="#1E0D86"/>
<path fill-rule="evenodd" clip-rule="evenodd" d="M160.588 109.666C160.588 113.581 162.447 122.713 162.448 123.575L166.448 123.578C165.863 115.43 165.655 111.311 165.825 111.224C166.081 111.092 176.296 112.243 179.359 112.243C183.777 112.243 185.605 109.458 185.753 104.297H177.002C175.22 104.488 165.925 106.362 162.474 107.007C160.996 107.283 160.588 108.587 160.588 109.666Z" fill="#A8ACC8"/>
<path fill-rule="evenodd" clip-rule="evenodd" d="M175.638 95.1169L170.523 92.3155C169.673 91.3054 168.835 90.5209 168.009 89.9621C167.757 89.8567 167.316 89.793 167.728 90.5252C168.141 91.2575 168.542 92.0462 168.332 92.2718C168.121 92.4974 167.597 92.1823 167.347 92.5571C167.179 92.8069 168.075 93.2017 170.033 93.7413L173.749 97.1442L175.638 95.1169ZM167.627 97.4806L165.38 96.2463C165.065 95.0467 164.688 94.4432 164.25 94.4356C163.913 94.2789 164.5 95.7947 163.861 95.6633C163.223 95.5318 161.664 94.3728 161.396 94.6081C160.998 94.9563 161.353 96.0253 161.77 96.5571C162.55 97.551 163.196 97.8909 164.792 98.3359C165.627 98.5686 166.529 99.0351 167.499 99.7353L167.627 97.4806Z" fill="#E0BA9A"/>
<path fill-rule="evenodd" clip-rule="evenodd" d="M178.129 94.4928C176.338 94.4738 173.949 94.0954 171.399 92.4773L170.398 94.7099C172.157 96.4549 174.629 97.8887 176.791 97.8279C178.494 97.7801 179.365 95.7194 178.129 94.4928Z" fill="#ABBE9C"/>
<path fill-rule="evenodd" clip-rule="evenodd" d="M175.717 98.073C173.815 98.5473 170.625 97.9879 166.148 96.3948C165.038 98.6922 164.524 100.33 164.608 101.308C168.449 103.315 171.741 104.209 174.453 104.268C174.366 105.877 174.562 107.409 175.22 108.808C176.573 111.684 184.494 109.02 187.157 109.544C188.825 104.128 185.6 101.927 185.597 98.4613C185.595 94.666 182.547 88.8242 182.099 88.8242H178.01C177.784 91.7227 176.649 94.9171 175.717 98.073Z" fill="#C6D3AF"/>
<path fill-rule="evenodd" clip-rule="evenodd" d="M181.499 87C181.933 84.9743 183.169 83.5934 182.981 82.6879C182.855 82.0843 182.519 81.709 181.974 81.5618C181.692 80.3651 180.783 79.8561 179.246 80.0348C176.941 80.3029 175.534 81.3072 176.142 83.5173C176.7 83.5173 177.374 83.3053 178.307 83.6684C178.602 83.7836 178.814 84.1409 178.941 84.7402H179.363C179.772 84.029 180.175 83.7676 180.572 83.9561C180.97 84.1446 181.06 84.6025 180.843 85.3298L181.051 87H181.499Z" fill="#191847"/>
<g clip-path="url(#clip1_5206_22257)">
<path fill-rule="evenodd" clip-rule="evenodd" d="M71.2373 114.221L76.0677 131.25L79.5921 143.802H82.1626L78.4175 114.221H71.2373Z" fill="#6C76D0"/>
<path fill-rule="evenodd" clip-rule="evenodd" d="M69.9455 114.221C69.8338 122.998 69.4528 127.785 69.3355 128.583C69.2182 129.38 67.4444 134.453 64.0142 143.802H66.677C71.044 134.833 73.4818 129.76 73.9903 128.583C74.4989 127.405 76.0683 122.618 78.432 114.221H69.9455Z" fill="#A2AAEF"/>
<path fill-rule="evenodd" clip-rule="evenodd" d="M63.7759 146.211L63.9091 143.4H66.7071C68.0338 144.337 69.7658 145.096 71.9032 145.676V146.211H66.8403L65.1082 145.944V146.211H63.7759Z" fill="#191847"/>
<path fill-rule="evenodd" clip-rule="evenodd" d="M79.2314 146.211L79.3647 143.4H82.1626C83.4893 144.337 85.2214 145.096 87.3588 145.676V146.211H82.2959L80.5638 145.944V146.211H79.2314Z" fill="#191847"/>
</g>
<path fill-rule="evenodd" clip-rule="evenodd" d="M73.0426 99.6888C72.4527 98.9955 72.0534 98.1458 72.1202 97.1937C72.3124 94.4504 76.1261 95.0539 76.8679 96.4385C77.6098 97.823 77.5216 101.335 76.5629 101.583C76.1805 101.681 75.366 101.44 74.537 100.939L75.0573 104.625H71.9849L73.0426 99.6888Z" fill="#DBA576"/>
<path d="M77.7639 94.046C77.9945 94.1029 78.1656 94.2946 78.2293 94.5186C78.3096 94.8015 78.2117 95.1006 78.0534 95.338C77.972 95.46 77.873 95.5702 77.7573 95.6609C77.8331 95.7093 77.9206 95.76 77.97 95.8376C78.0171 95.9117 78.0307 96.0009 78.0219 96.0871C78.0111 96.1932 77.9731 96.3107 77.9282 96.4073C77.885 96.5004 77.8225 96.5836 77.7472 96.6531C77.8196 96.673 77.8796 96.7206 77.9148 96.7869C77.9328 96.8208 77.9406 96.8558 77.949 96.8927L77.949 96.8927L77.9497 96.896C77.9599 96.9414 77.9785 96.9846 77.9877 97.0308C78.0032 97.1094 77.9945 97.1883 77.9582 97.2601C77.9227 97.3302 77.8042 97.4421 77.6984 97.4852C77.5926 97.5283 77.2661 97.4984 77.2222 97.4491C77.1238 97.3385 77.0889 97.1657 77.0329 97.0308C76.9575 96.8489 76.8647 96.6922 76.7516 96.5293C76.6378 96.3655 76.4968 96.2156 76.3278 96.1081C76.2935 96.0863 76.2357 96.0263 76.1961 96.0494C76.1706 96.0642 76.154 96.109 76.1373 96.1324C76.1161 96.162 76.0906 96.1887 76.0642 96.2139C75.9445 96.3284 75.7927 96.3943 75.6383 96.4483C75.4824 96.5027 75.3197 96.5483 75.1778 96.6349C75.0473 96.7146 74.9634 96.8402 74.9102 96.9807C74.8567 97.122 74.8305 97.2715 74.7896 97.4164C74.7365 97.6044 74.6613 97.7886 74.5681 97.9603C74.5253 98.0392 74.4759 98.1169 74.4066 98.1754C74.3665 98.2092 74.2767 98.2779 74.2223 98.2383C74.1976 98.2203 74.2012 98.1869 74.194 98.1599C74.1822 98.1163 73.9442 97.6524 73.7342 97.6048C73.5345 97.5595 73.0322 97.5592 72.8645 97.6508C72.5046 97.8475 72.4598 98.2774 72.5691 98.6357C72.6188 98.799 72.6916 98.963 72.8107 99.0881C72.8621 99.142 72.9301 99.201 73.0028 99.2234C73.0769 99.2462 73.1727 99.2675 73.2513 99.2545C73.2444 99.298 73.2322 99.339 73.2364 99.383C73.2411 99.4319 73.2474 99.48 73.2469 99.5293C73.2459 99.6237 73.2244 99.7142 73.1897 99.8017C73.1718 99.8467 73.1408 99.8919 73.136 99.9384C73.1322 99.9749 73.1354 100.012 73.1303 100.049C73.1207 100.119 72.9535 102.013 72.9206 102.076C72.3566 103.801 71.4637 104.128 72.0809 101.712C71.1842 103.368 68.6317 101.185 69.3512 99.8063C69.3426 99.7881 69.5378 99.7334 69.5189 99.7245C69.4823 99.7071 69.4473 99.6859 69.4151 99.6613C69.3491 99.611 69.3891 99.4567 69.3512 99.383C69.2626 99.2109 69.3211 99.1311 69.3512 98.9436C69.3669 98.8459 69.2828 98.8328 69.3125 98.7385C69.3272 98.6919 69.0751 98.5833 69.0928 98.5378C69.11 98.4936 69.1381 98.4488 69.1505 98.4034C69.1593 98.371 69.1557 98.3892 69.1385 98.367C69.1315 98.358 69.1207 98.3509 69.1124 98.3428C69.0979 98.3285 69.0841 98.3137 69.071 98.2982C69.0459 98.2683 69.0237 98.2359 69.0047 98.2018C68.9674 98.135 68.943 98.0616 68.929 97.9865C68.8988 97.8248 68.914 97.6562 68.9446 97.4957C68.9632 97.3979 68.9928 97.3021 69.035 97.2118C69.048 97.1842 69.0679 97.1566 69.0788 97.1283C69.0886 97.1029 69.0837 97.1028 69.0686 97.0785C69.0441 97.039 69.0232 96.9972 69.0057 96.9542C68.897 96.6877 68.8954 96.3766 68.9863 96.105C69.0729 95.8462 69.25 95.6163 69.4976 95.4936C69.5611 95.4621 69.6283 95.4381 69.6972 95.4217C69.7347 95.4129 69.7726 95.4062 69.8108 95.4017C69.8218 95.4004 69.851 95.4034 69.8582 95.3967C69.8634 95.3918 69.8644 95.3545 69.866 95.3456C69.8937 95.1929 69.9598 95.048 70.0616 94.9303C70.1623 94.8139 70.2944 94.7278 70.4394 94.677C70.468 94.667 70.4786 94.6665 70.4943 94.6436C70.5066 94.6257 70.5127 94.601 70.522 94.5812C70.5412 94.5403 70.5621 94.5003 70.585 94.4614C70.6328 94.3802 70.6891 94.304 70.7534 94.2351C70.8786 94.1008 71.031 93.9699 71.2081 93.9115C71.3023 93.8805 71.4003 93.8754 71.4965 93.9005C71.6413 93.8062 72.3065 93.5263 72.4774 93.4985C72.6209 93.4809 73.7393 93.4868 73.8622 93.5616C73.8943 93.5811 73.8906 93.5719 73.9135 93.544C73.927 93.5276 73.941 93.5116 73.9554 93.4959C73.9792 93.4699 74.0042 93.445 74.03 93.421C74.0791 93.3754 74.1306 93.3321 74.1846 93.2925C74.44 93.1056 74.7349 93.0902 75.0411 93.0879C75.3124 93.086 75.5814 93.1518 75.7992 93.3191C75.8168 93.3326 75.8604 93.3866 75.882 93.39C75.9016 93.3931 75.9651 93.345 75.9846 93.3352C76.0496 93.3026 76.1163 93.2731 76.185 93.2494C76.3178 93.2036 76.4573 93.1808 76.5978 93.193C76.8545 93.2154 77.1016 93.3391 77.2844 93.5183C77.3822 93.6141 77.4633 93.7278 77.5115 93.8563C77.5257 93.894 77.5371 93.9327 77.5463 93.9718C77.5492 93.9844 77.5494 94.0106 77.5566 94.0213C77.5662 94.0358 77.572 94.0298 77.5926 94.029C77.6502 94.0267 77.7079 94.0322 77.7639 94.046Z" fill="#525A65"/>
<path fill-rule="evenodd" clip-rule="evenodd" d="M78.8679 116.213L77.2526 115.199C77.9255 111.657 79.2869 109.671 73.8242 107.761L75.7475 102.587C79.5365 105.264 80.9942 107.513 80.5745 112.174C80.0818 113.613 79.5141 115.082 78.8679 116.213Z" fill="#DCDAB7"/>
<path d="M76.0147 102.569L72.6892 101.807L72.6874 101.805H72.4696C67.5606 106.248 67.7748 109.811 69.4153 116.162H78.7712C77.8367 111.951 76.0147 108.297 76.0147 102.569Z" fill="#FDFAC1"/>
<path fill-rule="evenodd" clip-rule="evenodd" d="M70.938 104.283C70.5431 107.248 72.559 108.113 75.5672 104.992L72.7026 108.907C68.8781 109.008 70.938 104.283 70.938 104.283Z" fill="black" fill-opacity="0.05"/>
<path fill-rule="evenodd" clip-rule="evenodd" d="M68.5948 112.478C68.5948 112.478 74.4123 113.968 77.0026 109.915L78.7457 116.067L69.4152 116.067L68.5948 112.478Z" fill="black" fill-opacity="0.05"/>
<path d="M77.611 104.162L77.6515 109.263L75.2774 108.69L76.3016 104.398C75.8756 102.674 75.7948 101.822 76.0592 101.842C76.4558 101.873 76.4383 102.408 76.7024 102.471C76.9666 102.535 76.5132 101.725 76.9 101.097C77.2868 100.469 77.4274 100.832 77.4547 101.07C77.379 101.939 78.0236 103.081 77.611 104.162Z" fill="#C68A56"/>
<path fill-rule="evenodd" clip-rule="evenodd" d="M80.5915 106.222L76.2851 104.274C76.2851 104.274 70.0407 111.291 70.7061 105.543L71.9786 102.223C68.2783 102.879 64.1436 113.386 71.731 113.542C76.8784 113.648 80.7308 109.859 80.5915 106.222Z" fill="#FDFAC1"/>
<g clip-path="url(#clip2_5206_22257)">
<path fill-rule="evenodd" clip-rule="evenodd" d="M197.532 108.516C198.119 108.444 198.746 108.47 199.292 108.701C200.454 109.195 200.784 110.567 200.768 111.682C200.751 112.883 200.496 114.194 201.409 115.161C201.828 115.606 202.35 115.947 202.762 116.399C203.203 116.883 203.548 117.437 203.804 118.032C204.273 119.124 204.504 120.409 204.074 121.554C203.696 122.563 202.745 123.474 202.951 124.621C203.165 125.817 204.371 126.732 205.126 127.624C205.979 128.632 206.765 129.921 206.894 131.244C207.018 132.512 206.466 133.794 205.62 134.752C203.928 136.667 201.384 137.606 198.82 137.6C197.731 137.597 196.498 137.548 195.559 136.963C195.268 136.782 195.115 136.579 194.942 136.297C194.788 136.044 194.583 135.88 194.346 135.701C193.826 135.308 193.451 134.778 193.211 134.185C192.281 131.881 193.025 129.032 194.327 126.986C194.636 126.502 194.888 126.035 194.739 125.458C194.582 124.855 194.197 124.311 193.857 123.792C193.521 123.28 193.137 122.792 192.875 122.238C192.6 121.657 192.522 121.05 192.571 120.415C192.662 119.222 193.177 118.121 193.906 117.162C194.608 116.238 195.433 115.354 195.434 114.143C195.436 112.86 194.579 111.719 194.944 110.414C195.095 109.874 195.399 109.32 195.889 108.996C196.359 108.685 196.979 108.583 197.532 108.516Z" fill="#CFB1D7"/>
<path fill-rule="evenodd" clip-rule="evenodd" d="M197.148 110.567C197.159 110.395 197.363 110.292 197.524 110.337C197.736 110.396 197.732 110.594 197.726 110.77C197.709 111.312 197.787 111.839 197.918 112.365C198.188 113.458 198.689 114.466 199.085 115.516C199.482 116.565 199.668 117.649 199.435 118.759C199.216 119.806 198.872 120.826 198.648 121.875C198.45 122.799 198.24 123.773 198.541 124.695C198.83 125.582 199.471 126.304 199.932 127.106C200.886 128.765 201.309 130.606 201.366 132.501C201.392 133.381 201.369 134.269 201.165 135.132C201.047 135.629 200.889 136.3 200.463 136.643C200.267 136.801 199.931 136.856 199.766 136.622C199.611 136.402 199.747 136.062 199.796 135.828C200.01 134.814 200.052 133.778 200.001 132.749C199.952 131.751 199.834 130.756 199.52 129.804C199.229 128.92 198.787 128.126 198.266 127.353C197.735 126.566 197.184 125.776 196.964 124.843C196.742 123.895 196.923 122.93 197.165 122C197.42 121.016 197.756 120.061 198.102 119.104C198.44 118.172 198.56 117.289 198.373 116.313C198.005 114.385 197.019 112.575 197.148 110.567Z" fill="#A689B0"/>
<path fill-rule="evenodd" clip-rule="evenodd" d="M223.091 116.186C223.688 116.656 224.23 117.25 224.51 117.959C225.103 119.466 224.135 121.015 223.091 122.014C221.968 123.09 220.527 124.049 220.458 125.761C220.427 126.547 220.584 127.332 220.538 128.12C220.489 128.961 220.29 129.779 219.972 130.553C219.388 131.974 218.41 133.351 216.965 134.001C215.693 134.573 213.993 134.534 213.12 135.764C212.209 137.047 212.454 138.978 212.313 140.476C212.153 142.171 211.672 144.06 210.568 145.38C209.51 146.645 205.998 145.281 204.349 145.38C201.054 145.577 199.722 146.138 197.411 143.795C196.431 142.8 195.363 141.632 195.055 140.244C194.959 139.814 195.008 139.49 195.113 139.077C195.206 138.706 195.174 138.37 195.125 137.991C195.018 137.16 195.168 136.336 195.499 135.579C196.785 132.636 200.087 130.724 203.151 130.053C203.877 129.893 204.535 129.7 204.933 129.038C205.348 128.347 205.503 127.503 205.674 126.721C205.843 125.949 205.948 125.155 206.222 124.412C206.509 123.634 207 123.011 207.63 122.478C208.813 121.478 210.294 120.946 211.838 120.739C213.324 120.539 214.885 120.487 216.004 119.389C217.19 118.224 217.469 116.405 219.003 115.552C219.638 115.199 220.424 114.972 221.165 115.124C221.876 115.27 222.53 115.743 223.091 116.186Z" fill="#B1D7C5"/>
<path fill-rule="evenodd" clip-rule="evenodd" d="M220.795 117.981C220.963 117.834 221.242 117.926 221.345 118.114C221.481 118.362 221.295 118.539 221.128 118.695C220.615 119.173 220.201 119.725 219.835 120.324C219.073 121.569 218.597 122.946 217.987 124.266C217.379 125.585 216.55 126.744 215.321 127.544C214.162 128.299 212.915 128.915 211.751 129.666C210.724 130.328 209.64 131.025 209.063 132.141C208.508 133.215 208.419 134.459 208.096 135.612C207.428 137.998 206.117 140.064 204.426 141.844C203.641 142.671 202.804 143.459 201.828 144.06C201.266 144.405 200.507 144.874 199.809 144.797C199.487 144.762 199.135 144.505 199.202 144.141C199.265 143.798 199.7 143.613 199.959 143.444C201.082 142.714 202.073 141.808 202.973 140.823C203.845 139.868 204.654 138.852 205.247 137.697C205.798 136.625 206.13 135.496 206.373 134.315C206.62 133.111 206.85 131.887 207.511 130.835C208.182 129.767 209.231 129.052 210.303 128.425C211.437 127.762 212.616 127.197 213.807 126.64C214.967 126.099 215.886 125.403 216.615 124.342C218.056 122.247 218.834 119.695 220.795 117.981Z" fill="#89B096"/>
<path fill-rule="evenodd" clip-rule="evenodd" d="M190.569 119.965C191.778 119.965 192.841 120.606 193.573 121.515C194.43 122.579 194.603 123.879 194.951 125.147C195.125 125.779 195.422 126.405 195.945 126.834C196.419 127.224 197.022 127.302 197.59 127.493C198.726 127.874 199.643 128.791 200.006 129.91C200.447 131.276 199.979 132.653 200.06 134.037C200.134 135.308 201.387 136.101 202.395 136.71C203.389 137.311 204.285 137.873 204.584 139.043C204.902 140.284 205.008 141.67 204.569 142.896C203.836 144.938 201.694 145.837 199.623 145.976C197.744 146.102 195.382 145.904 193.97 144.54C193.126 143.724 192.82 142.582 192.858 141.447C192.882 140.74 193.022 140.041 193.202 139.358C193.331 138.875 193.504 138.393 193.553 137.893C193.684 136.563 192.455 136.308 191.409 135.943C190.08 135.479 189.149 134.602 188.502 133.381C187.899 132.245 187.646 130.968 188.008 129.717C188.192 129.077 188.527 128.498 188.981 128.004C189.181 127.787 189.462 127.606 189.643 127.378C189.811 127.165 189.774 126.889 189.716 126.64C189.448 125.487 188.612 124.533 188.313 123.383C188.044 122.345 188.203 121.053 189.152 120.383C189.562 120.093 190.068 119.968 190.569 119.965Z" fill="#89A0B0"/>
<path fill-rule="evenodd" clip-rule="evenodd" d="M192.217 122.967C193.498 124.332 193.846 126.184 193.948 127.978C194.005 128.985 193.946 130.046 194.242 131.022C194.494 131.857 195.088 132.496 195.699 133.1C196.929 134.315 198.302 135.55 198.662 137.308C198.873 138.34 198.73 139.406 199.022 140.427C199.287 141.354 199.754 142.266 200.323 143.049C200.78 143.68 201.376 144.163 201.876 144.751C202.029 144.93 202.248 145.195 202.185 145.448C202.111 145.745 201.733 145.839 201.465 145.792C200.839 145.683 200.313 145.086 199.904 144.652C199.306 144.017 198.798 143.335 198.385 142.569C197.927 141.718 197.558 140.816 197.4 139.862C197.236 138.872 197.318 137.84 196.944 136.89C196.315 135.292 194.79 134.348 193.687 133.102C192.313 131.55 192.518 129.618 192.659 127.708C192.736 126.659 192.813 125.474 192.283 124.515C192.08 124.15 191.629 123.809 191.542 123.393C191.462 123.012 191.897 122.627 192.217 122.967Z" fill="#7D90A8"/>
</g>
<defs>
<linearGradient id="paint0_linear_5206_22257" x1="182.272" y1="73.3217" x2="70.3325" y2="139.713" gradientUnits="userSpaceOnUse">
<stop stop-color="#EDC6BE"/>
<stop offset="1" stop-color="#FACBCB"/>
</linearGradient>
<clipPath id="clip0_5206_22257">
<rect width="37.8717" height="42.3771" fill="white" transform="translate(167.824 48.8047) rotate(10.9879)"/>
</clipPath>
<clipPath id="clip1_5206_22257">
<rect width="23.5827" height="31.9904" fill="white" transform="translate(63.7759 114.221)"/>
</clipPath>
<clipPath id="clip2_5206_22257">
<rect width="37.8717" height="42.3771" fill="white" transform="translate(187.841 108.48)"/>
</clipPath>
</defs>
</svg>
