<svg width="10" height="10" viewBox="0 0 10 10" fill="none" xmlns="http://www.w3.org/2000/svg">
<path d="M1.04087 9.99998C0.903803 10.0007 0.767964 9.97415 0.64126 9.92189C0.514555 9.86963 0.399518 9.79271 0.302845 9.69559C0.108799 9.49907 0 9.23407 0 8.95796C0 8.68186 0.108799 8.41686 0.302845 8.22034L8.18662 0.338778C8.28167 0.234994 8.39675 0.151503 8.52492 0.0933292C8.6531 0.0351556 8.79173 0.00350241 8.93247 0.00027454C9.07321 -0.00295333 9.21314 0.022311 9.34385 0.0745468C9.47457 0.126783 9.59335 0.20491 9.69307 0.304227C9.79278 0.403545 9.87136 0.521999 9.92407 0.652461C9.97679 0.782923 10.0025 0.922696 9.9998 1.06337C9.99706 1.20404 9.96586 1.3427 9.9081 1.47101C9.85034 1.59932 9.7672 1.71462 9.66368 1.80998L1.77483 9.69356C1.67943 9.79139 1.56525 9.86895 1.43913 9.92161C1.31301 9.97426 1.17755 10.0009 1.04087 9.99998Z" fill="#353B44"/>
<path d="M8.92397 9.99924C8.7869 9.99996 8.65106 9.97341 8.52436 9.92116C8.39765 9.8689 8.28262 9.79197 8.18594 9.69486L0.302169 1.80924C0.129684 1.60988 0.0391108 1.35264 0.0486585 1.08925C0.0582062 0.825859 0.167167 0.575847 0.353634 0.38948C0.540102 0.203114 0.790248 0.0942114 1.05378 0.0846689C1.31731 0.0751263 1.57469 0.165651 1.77416 0.338043L9.65793 8.21757C9.85198 8.41409 9.96078 8.67909 9.96078 8.9552C9.96078 9.23131 9.85198 9.4963 9.65793 9.69283C9.56126 9.78994 9.44622 9.86687 9.31952 9.91913C9.19282 9.97139 9.05698 9.99793 8.91991 9.99721L8.92397 9.99924Z" fill="#353B44"/>
</svg>
