<svg width="20" height="17" viewBox="0 0 20 17" fill="none" xmlns="http://www.w3.org/2000/svg">
<path fill-rule="evenodd" clip-rule="evenodd" d="M9.99987 5.64111C8.66987 5.64111 7.58887 6.72311 7.58887 8.05311C7.58887 9.38211 8.66987 10.4631 9.99987 10.4631C11.3299 10.4631 12.4119 9.38211 12.4119 8.05311C12.4119 6.72311 11.3299 5.64111 9.99987 5.64111ZM9.99987 11.9631C7.84287 11.9631 6.08887 10.2091 6.08887 8.05311C6.08887 5.89611 7.84287 4.14111 9.99987 4.14111C12.1569 4.14111 13.9119 5.89611 13.9119 8.05311C13.9119 10.2091 12.1569 11.9631 9.99987 11.9631Z" fill="#8D99BB"/>
<mask id="mask0_8058_17721" style="mask-type:luminance" maskUnits="userSpaceOnUse" x="0" y="0" width="20" height="17">
<path fill-rule="evenodd" clip-rule="evenodd" d="M0 0H19.9998V16.105H0V0Z" fill="white"/>
</mask>
<g mask="url(#mask0_8058_17721)">
<path fill-rule="evenodd" clip-rule="evenodd" d="M1.56975 8.05226C3.42975 12.1613 6.56275 14.6043 9.99975 14.6053C13.4368 14.6043 16.5697 12.1613 18.4298 8.05226C16.5697 3.94426 13.4368 1.50126 9.99975 1.50026C6.56375 1.50126 3.42975 3.94426 1.56975 8.05226ZM10.0017 16.1053H9.99775H9.99675C5.86075 16.1023 2.14675 13.2033 0.06075 8.34826C-0.02025 8.15926 -0.02025 7.94526 0.06075 7.75626C2.14675 2.90226 5.86175 0.00326172 9.99675 0.000261719C9.99875 -0.000738281 9.99875 -0.000738281 9.99975 0.000261719C10.0017 -0.000738281 10.0017 -0.000738281 10.0028 0.000261719C14.1388 0.00326172 17.8527 2.90226 19.9387 7.75626C20.0208 7.94526 20.0208 8.15926 19.9387 8.34826C17.8537 13.2033 14.1388 16.1023 10.0028 16.1053H10.0017Z" fill="#8D99BB"/>
</g>
</svg>
